<?xml version="1.0" encoding="UTF-8" standalone="no"?>
<!DOCTYPE svg PUBLIC "-//W3C//DTD SVG 1.1//EN"
 "http://www.w3.org/Graphics/SVG/1.1/DTD/svg11.dtd">
<!-- Generated by graphviz version 2.42.3 (0)
 -->
<!-- Title: gametree Pages: 1 -->
<svg width="638pt" height="218pt"
 viewBox="0.00 0.00 638.00 218.00" xmlns="http://www.w3.org/2000/svg" xmlns:xlink="http://www.w3.org/1999/xlink">
<g id="graph0" class="graph" transform="scale(1 1) rotate(0) translate(4 214)">
<title>gametree</title>
<polygon fill="white" stroke="transparent" points="-4,4 -4,-214 634,-214 634,4 -4,4"/>
<!-- &#45;0&#45;1 -->
<g id="node1" class="node">
<title>&#45;0&#45;1</title>
<ellipse fill="none" stroke="black" cx="207" cy="-105" rx="27" ry="18"/>
<text text-anchor="middle" x="207" y="-101.3" font-family="Times,serif" font-size="14.00">&#45;21</text>
</g>
<!-- &#45;0&#45;1&#45;1 -->
<g id="node2" class="node">
<title>&#45;0&#45;1&#45;1</title>
<ellipse fill="none" stroke="black" cx="27" cy="-18" rx="27" ry="18"/>
<text text-anchor="middle" x="27" y="-14.3" font-family="Times,serif" font-size="14.00">&#45;16</text>
</g>
<!-- &#45;0&#45;1&#45;&gt;&#45;0&#45;1&#45;1 -->
<g id="edge6" class="edge">
<title>&#45;0&#45;1&#45;&gt;&#45;0&#45;1&#45;1</title>
<path fill="none" stroke="black" d="M181.36,-98.7C157.81,-93.22 122.37,-83.44 94,-69 78.45,-61.08 62.72,-49.57 50.42,-39.59"/>
<polygon fill="black" stroke="black" points="52.41,-36.7 42.49,-32.99 47.93,-42.08 52.41,-36.7"/>
<text text-anchor="middle" x="110" y="-57.8" font-family="Times,serif" font-size="14.00"> 0/6 </text>
</g>
<!-- &#45;0&#45;1&#45;3 -->
<g id="node3" class="node">
<title>&#45;0&#45;1&#45;3</title>
<ellipse fill="none" stroke="black" cx="99" cy="-18" rx="27" ry="18"/>
<text text-anchor="middle" x="99" y="-14.3" font-family="Times,serif" font-size="14.00">&#45;10</text>
</g>
<!-- &#45;0&#45;1&#45;&gt;&#45;0&#45;1&#45;3 -->
<g id="edge8" class="edge">
<title>&#45;0&#45;1&#45;&gt;&#45;0&#45;1&#45;3</title>
<path fill="none" stroke="black" d="M185.19,-94.13C172.52,-87.86 156.63,-79.06 144,-69 134.35,-61.31 125,-51.45 117.34,-42.53"/>
<polygon fill="black" stroke="black" points="119.91,-40.14 110.83,-34.68 114.52,-44.61 119.91,-40.14"/>
<text text-anchor="middle" x="160" y="-57.8" font-family="Times,serif" font-size="14.00"> 2/0 </text>
</g>
<!-- &#45;0&#45;1&#45;4 -->
<g id="node4" class="node">
<title>&#45;0&#45;1&#45;4</title>
<ellipse fill="none" stroke="black" cx="171" cy="-18" rx="27" ry="18"/>
<text text-anchor="middle" x="171" y="-14.3" font-family="Times,serif" font-size="14.00">&#45;12</text>
</g>
<!-- &#45;0&#45;1&#45;&gt;&#45;0&#45;1&#45;4 -->
<g id="edge9" class="edge">
<title>&#45;0&#45;1&#45;&gt;&#45;0&#45;1&#45;4</title>
<path fill="none" stroke="black" d="M196.3,-88.07C192.69,-82.24 188.86,-75.48 186,-69 182.78,-61.7 180,-53.52 177.74,-45.91"/>
<polygon fill="black" stroke="black" points="181.04,-44.73 174.98,-36.04 174.3,-46.61 181.04,-44.73"/>
<text text-anchor="middle" x="202" y="-57.8" font-family="Times,serif" font-size="14.00"> 4/5 </text>
</g>
<!-- &#45;0&#45;1&#45;0 -->
<g id="node8" class="node">
<title>&#45;0&#45;1&#45;0</title>
<ellipse fill="none" stroke="black" cx="243" cy="-18" rx="27" ry="18"/>
<text text-anchor="middle" x="243" y="-14.3" font-family="Times,serif" font-size="14.00">&#45;10</text>
</g>
<!-- &#45;0&#45;1&#45;&gt;&#45;0&#45;1&#45;0 -->
<g id="edge5" class="edge">
<title>&#45;0&#45;1&#45;&gt;&#45;0&#45;1&#45;0</title>
<path fill="none" stroke="black" d="M214.11,-87.21C219.22,-75.14 226.21,-58.64 232.03,-44.89"/>
<polygon fill="black" stroke="black" points="235.35,-46.04 236.02,-35.47 228.9,-43.31 235.35,-46.04"/>
<text text-anchor="middle" x="243" y="-57.8" font-family="Times,serif" font-size="14.00"> 0/1 </text>
</g>
<!-- &#45;0&#45;1&#45;2 -->
<g id="node9" class="node">
<title>&#45;0&#45;1&#45;2</title>
<ellipse fill="none" stroke="black" cx="315" cy="-18" rx="27" ry="18"/>
<text text-anchor="middle" x="315" y="-14.3" font-family="Times,serif" font-size="14.00">&#45;12</text>
</g>
<!-- &#45;0&#45;1&#45;&gt;&#45;0&#45;1&#45;2 -->
<g id="edge7" class="edge">
<title>&#45;0&#45;1&#45;&gt;&#45;0&#45;1&#45;2</title>
<path fill="none" stroke="black" d="M227.11,-92.81C238.08,-86.36 251.7,-77.81 263,-69 273.8,-60.58 284.87,-50.23 294,-41.13"/>
<polygon fill="black" stroke="black" points="296.64,-43.43 301.16,-33.85 291.65,-38.52 296.64,-43.43"/>
<text text-anchor="middle" x="295" y="-57.8" font-family="Times,serif" font-size="14.00"> 0/7 </text>
</g>
<!-- &#45;0 -->
<g id="node5" class="node">
<title>&#45;0</title>
<ellipse fill="none" stroke="black" cx="332" cy="-192" rx="27" ry="18"/>
<text text-anchor="middle" x="332" y="-188.3" font-family="Times,serif" font-size="14.00">&#45;12</text>
</g>
<!-- &#45;0&#45;&gt;&#45;0&#45;1 -->
<g id="edge11" class="edge">
<title>&#45;0&#45;&gt;&#45;0&#45;1</title>
<path fill="none" stroke="black" d="M313.82,-178.64C292.72,-164.29 257.71,-140.49 233.56,-124.06"/>
<polygon fill="black" stroke="black" points="235.44,-121.1 225.2,-118.37 231.5,-126.89 235.44,-121.1"/>
<text text-anchor="middle" x="292" y="-144.8" font-family="Times,serif" font-size="14.00"> 7/5 </text>
</g>
<!-- &#45;0&#45;0 -->
<g id="node10" class="node">
<title>&#45;0&#45;0</title>
<ellipse fill="none" stroke="black" cx="459" cy="-105" rx="27" ry="18"/>
<text text-anchor="middle" x="459" y="-101.3" font-family="Times,serif" font-size="14.00">&#45;21</text>
</g>
<!-- &#45;0&#45;&gt;&#45;0&#45;0 -->
<g id="edge10" class="edge">
<title>&#45;0&#45;&gt;&#45;0&#45;0</title>
<path fill="none" stroke="black" d="M350.47,-178.64C371.91,-164.29 407.47,-140.49 432.01,-124.06"/>
<polygon fill="black" stroke="black" points="434.15,-126.85 440.51,-118.37 430.25,-121.03 434.15,-126.85"/>
<text text-anchor="middle" x="419" y="-144.8" font-family="Times,serif" font-size="14.00"> 0/7 </text>
</g>
<!-- &#45;0&#45;0&#45;0 -->
<g id="node6" class="node">
<title>&#45;0&#45;0&#45;0</title>
<ellipse fill="none" stroke="black" cx="387" cy="-18" rx="27" ry="18"/>
<text text-anchor="middle" x="387" y="-14.3" font-family="Times,serif" font-size="14.00">&#45;10</text>
</g>
<!-- &#45;0&#45;0&#45;3 -->
<g id="node7" class="node">
<title>&#45;0&#45;0&#45;3</title>
<ellipse fill="none" stroke="black" cx="459" cy="-18" rx="27" ry="18"/>
<text text-anchor="middle" x="459" y="-14.3" font-family="Times,serif" font-size="14.00">&#45;10</text>
</g>
<!-- &#45;0&#45;0&#45;&gt;&#45;0&#45;0&#45;0 -->
<g id="edge1" class="edge">
<title>&#45;0&#45;0&#45;&gt;&#45;0&#45;0&#45;0</title>
<path fill="none" stroke="black" d="M443.34,-89.92C436.79,-83.74 429.26,-76.26 423,-69 416.05,-60.94 409.07,-51.6 403.13,-43.19"/>
<polygon fill="black" stroke="black" points="405.92,-41.08 397.36,-34.85 400.17,-45.06 405.92,-41.08"/>
<text text-anchor="middle" x="439" y="-57.8" font-family="Times,serif" font-size="14.00"> 0/1 </text>
</g>
<!-- &#45;0&#45;0&#45;&gt;&#45;0&#45;0&#45;3 -->
<g id="edge4" class="edge">
<title>&#45;0&#45;0&#45;&gt;&#45;0&#45;0&#45;3</title>
<path fill="none" stroke="black" d="M459,-86.8C459,-75.16 459,-59.55 459,-46.24"/>
<polygon fill="black" stroke="black" points="462.5,-46.18 459,-36.18 455.5,-46.18 462.5,-46.18"/>
<text text-anchor="middle" x="475" y="-57.8" font-family="Times,serif" font-size="14.00"> 4/5 </text>
</g>
<!-- &#45;0&#45;0&#45;1 -->
<g id="node11" class="node">
<title>&#45;0&#45;0&#45;1</title>
<ellipse fill="none" stroke="black" cx="531" cy="-18" rx="27" ry="18"/>
<text text-anchor="middle" x="531" y="-14.3" font-family="Times,serif" font-size="14.00">&#45;16</text>
</g>
<!-- &#45;0&#45;0&#45;&gt;&#45;0&#45;0&#45;1 -->
<g id="edge2" class="edge">
<title>&#45;0&#45;0&#45;&gt;&#45;0&#45;0&#45;1</title>
<path fill="none" stroke="black" d="M474.66,-89.92C481.21,-83.74 488.74,-76.26 495,-69 501.95,-60.94 508.93,-51.6 514.87,-43.19"/>
<polygon fill="black" stroke="black" points="517.83,-45.06 520.64,-34.85 512.08,-41.08 517.83,-45.06"/>
<text text-anchor="middle" x="522" y="-57.8" font-family="Times,serif" font-size="14.00"> 0/6 </text>
</g>
<!-- &#45;0&#45;0&#45;2 -->
<g id="node12" class="node">
<title>&#45;0&#45;0&#45;2</title>
<ellipse fill="none" stroke="black" cx="603" cy="-18" rx="27" ry="18"/>
<text text-anchor="middle" x="603" y="-14.3" font-family="Times,serif" font-size="14.00">&#45;8</text>
</g>
<!-- &#45;0&#45;0&#45;&gt;&#45;0&#45;0&#45;2 -->
<g id="edge3" class="edge">
<title>&#45;0&#45;0&#45;&gt;&#45;0&#45;0&#45;2</title>
<path fill="none" stroke="black" d="M482.77,-96.05C499.86,-89.85 523.12,-80.39 542,-69 555.59,-60.8 569.37,-49.78 580.39,-40.17"/>
<polygon fill="black" stroke="black" points="582.75,-42.76 587.88,-33.49 578.09,-37.53 582.75,-42.76"/>
<text text-anchor="middle" x="579" y="-57.8" font-family="Times,serif" font-size="14.00"> 2/0 </text>
</g>
</g>
</svg>
