<?xml version="1.0" encoding="UTF-8" standalone="no"?>
<!DOCTYPE svg PUBLIC "-//W3C//DTD SVG 1.1//EN"
 "http://www.w3.org/Graphics/SVG/1.1/DTD/svg11.dtd">
<!-- Generated by graphviz version 2.42.3 (0)
 -->
<!-- Title: gametree Pages: 1 -->
<svg width="2510pt" height="392pt"
 viewBox="0.00 0.00 2510.00 392.00" xmlns="http://www.w3.org/2000/svg" xmlns:xlink="http://www.w3.org/1999/xlink">
<g id="graph0" class="graph" transform="scale(1 1) rotate(0) translate(4 388)">
<title>gametree</title>
<polygon fill="white" stroke="transparent" points="-4,4 -4,-388 2506,-388 2506,4 -4,4"/>
<!-- &#45;0&#45;0&#45;0&#45;1&#45;2 -->
<g id="node1" class="node">
<title>&#45;0&#45;0&#45;0&#45;1&#45;2</title>
<ellipse fill="none" stroke="black" cx="1899" cy="-18" rx="27" ry="18"/>
<text text-anchor="middle" x="1899" y="-14.3" font-family="Times,serif" font-size="14.00">&#45;4</text>
</g>
<!-- &#45;0&#45;1 -->
<g id="node2" class="node">
<title>&#45;0&#45;1</title>
<ellipse fill="none" stroke="black" cx="714" cy="-279" rx="27" ry="18"/>
<text text-anchor="middle" x="714" y="-275.3" font-family="Times,serif" font-size="14.00">&#45;21</text>
</g>
<!-- &#45;0&#45;1&#45;1 -->
<g id="node3" class="node">
<title>&#45;0&#45;1&#45;1</title>
<ellipse fill="none" stroke="black" cx="374" cy="-192" rx="27" ry="18"/>
<text text-anchor="middle" x="374" y="-188.3" font-family="Times,serif" font-size="14.00">&#45;16</text>
</g>
<!-- &#45;0&#45;1&#45;&gt;&#45;0&#45;1&#45;1 -->
<g id="edge29" class="edge">
<title>&#45;0&#45;1&#45;&gt;&#45;0&#45;1&#45;1</title>
<path fill="none" stroke="black" d="M689,-271.75C629.19,-256.8 477.74,-218.94 408.95,-201.74"/>
<polygon fill="black" stroke="black" points="409.59,-198.29 399.04,-199.26 407.89,-205.08 409.59,-198.29"/>
<text text-anchor="middle" x="580" y="-231.8" font-family="Times,serif" font-size="14.00"> 0/6 </text>
</g>
<!-- &#45;0&#45;1&#45;3 -->
<g id="node6" class="node">
<title>&#45;0&#45;1&#45;3</title>
<ellipse fill="none" stroke="black" cx="536" cy="-192" rx="27" ry="18"/>
<text text-anchor="middle" x="536" y="-188.3" font-family="Times,serif" font-size="14.00">&#45;10</text>
</g>
<!-- &#45;0&#45;1&#45;&gt;&#45;0&#45;1&#45;3 -->
<g id="edge31" class="edge">
<title>&#45;0&#45;1&#45;&gt;&#45;0&#45;1&#45;3</title>
<path fill="none" stroke="black" d="M692.53,-267.75C661.04,-252.71 602.18,-224.61 566.3,-207.47"/>
<polygon fill="black" stroke="black" points="567.8,-204.31 557.27,-203.16 564.79,-210.62 567.8,-204.31"/>
<text text-anchor="middle" x="651" y="-231.8" font-family="Times,serif" font-size="14.00"> 2/0 </text>
</g>
<!-- &#45;0&#45;1&#45;4 -->
<g id="node47" class="node">
<title>&#45;0&#45;1&#45;4</title>
<ellipse fill="none" stroke="black" cx="653" cy="-192" rx="27" ry="18"/>
<text text-anchor="middle" x="653" y="-188.3" font-family="Times,serif" font-size="14.00">&#45;12</text>
</g>
<!-- &#45;0&#45;1&#45;&gt;&#45;0&#45;1&#45;4 -->
<g id="edge32" class="edge">
<title>&#45;0&#45;1&#45;&gt;&#45;0&#45;1&#45;4</title>
<path fill="none" stroke="black" d="M702.81,-262.41C693.7,-249.71 680.67,-231.56 670.23,-217.01"/>
<polygon fill="black" stroke="black" points="672.79,-214.58 664.12,-208.49 667.1,-218.66 672.79,-214.58"/>
<text text-anchor="middle" x="703" y="-231.8" font-family="Times,serif" font-size="14.00"> 4/5 </text>
</g>
<!-- &#45;0&#45;1&#45;2 -->
<g id="node52" class="node">
<title>&#45;0&#45;1&#45;2</title>
<ellipse fill="none" stroke="black" cx="747" cy="-192" rx="27" ry="18"/>
<text text-anchor="middle" x="747" y="-188.3" font-family="Times,serif" font-size="14.00">&#45;12</text>
</g>
<!-- &#45;0&#45;1&#45;&gt;&#45;0&#45;1&#45;2 -->
<g id="edge30" class="edge">
<title>&#45;0&#45;1&#45;&gt;&#45;0&#45;1&#45;2</title>
<path fill="none" stroke="black" d="M720.52,-261.21C725.18,-249.22 731.53,-232.85 736.84,-219.16"/>
<polygon fill="black" stroke="black" points="740.14,-220.35 740.49,-209.76 733.61,-217.81 740.14,-220.35"/>
<text text-anchor="middle" x="748" y="-231.8" font-family="Times,serif" font-size="14.00"> 0/7 </text>
</g>
<!-- &#45;0&#45;1&#45;0 -->
<g id="node53" class="node">
<title>&#45;0&#45;1&#45;0</title>
<ellipse fill="none" stroke="black" cx="1179" cy="-192" rx="27" ry="18"/>
<text text-anchor="middle" x="1179" y="-188.3" font-family="Times,serif" font-size="14.00">&#45;10</text>
</g>
<!-- &#45;0&#45;1&#45;&gt;&#45;0&#45;1&#45;0 -->
<g id="edge28" class="edge">
<title>&#45;0&#45;1&#45;&gt;&#45;0&#45;1&#45;0</title>
<path fill="none" stroke="black" d="M739.66,-273.31C817.77,-259.03 1052.78,-216.07 1143.1,-199.56"/>
<polygon fill="black" stroke="black" points="1143.92,-202.97 1153.13,-197.73 1142.66,-196.08 1143.92,-202.97"/>
<text text-anchor="middle" x="990" y="-231.8" font-family="Times,serif" font-size="14.00"> 0/1 </text>
</g>
<!-- &#45;0&#45;1&#45;1&#45;0 -->
<g id="node41" class="node">
<title>&#45;0&#45;1&#45;1&#45;0</title>
<ellipse fill="none" stroke="black" cx="135" cy="-105" rx="27" ry="18"/>
<text text-anchor="middle" x="135" y="-101.3" font-family="Times,serif" font-size="14.00">&#45;29</text>
</g>
<!-- &#45;0&#45;1&#45;1&#45;&gt;&#45;0&#45;1&#45;1&#45;0 -->
<g id="edge27" class="edge">
<title>&#45;0&#45;1&#45;1&#45;&gt;&#45;0&#45;1&#45;1&#45;0</title>
<path fill="none" stroke="black" d="M350.65,-182.7C307.9,-167.49 216.97,-135.15 167.95,-117.72"/>
<polygon fill="black" stroke="black" points="169.04,-114.39 158.45,-114.34 166.7,-120.99 169.04,-114.39"/>
<text text-anchor="middle" x="285" y="-144.8" font-family="Times,serif" font-size="14.00"> 0/7 </text>
</g>
<!-- &#45;0&#45;1&#45;1&#45;0&#45;2 -->
<g id="node4" class="node">
<title>&#45;0&#45;1&#45;1&#45;0&#45;2</title>
<ellipse fill="none" stroke="black" cx="27" cy="-18" rx="27" ry="18"/>
<text text-anchor="middle" x="27" y="-14.3" font-family="Times,serif" font-size="14.00">&#45;20</text>
</g>
<!-- &#45;0&#45;1&#45;2&#45;1 -->
<g id="node5" class="node">
<title>&#45;0&#45;1&#45;2&#45;1</title>
<ellipse fill="none" stroke="black" cx="747" cy="-105" rx="27" ry="18"/>
<text text-anchor="middle" x="747" y="-101.3" font-family="Times,serif" font-size="14.00">&#45;17</text>
</g>
<!-- &#45;0&#45;1&#45;2&#45;1&#45;0 -->
<g id="node22" class="node">
<title>&#45;0&#45;1&#45;2&#45;1&#45;0</title>
<ellipse fill="none" stroke="black" cx="675" cy="-18" rx="27" ry="18"/>
<text text-anchor="middle" x="675" y="-14.3" font-family="Times,serif" font-size="14.00">&#45;8</text>
</g>
<!-- &#45;0&#45;1&#45;2&#45;1&#45;&gt;&#45;0&#45;1&#45;2&#45;1&#45;0 -->
<g id="edge4" class="edge">
<title>&#45;0&#45;1&#45;2&#45;1&#45;&gt;&#45;0&#45;1&#45;2&#45;1&#45;0</title>
<path fill="none" stroke="black" d="M731.34,-89.92C724.79,-83.74 717.26,-76.26 711,-69 704.05,-60.94 697.07,-51.6 691.13,-43.19"/>
<polygon fill="black" stroke="black" points="693.92,-41.08 685.36,-34.85 688.17,-45.06 693.92,-41.08"/>
<text text-anchor="middle" x="727" y="-57.8" font-family="Times,serif" font-size="14.00"> 0/1 </text>
</g>
<!-- &#45;0&#45;1&#45;2&#45;1&#45;2 -->
<g id="node50" class="node">
<title>&#45;0&#45;1&#45;2&#45;1&#45;2</title>
<ellipse fill="none" stroke="black" cx="747" cy="-18" rx="27" ry="18"/>
<text text-anchor="middle" x="747" y="-14.3" font-family="Times,serif" font-size="14.00">&#45;4</text>
</g>
<!-- &#45;0&#45;1&#45;2&#45;1&#45;&gt;&#45;0&#45;1&#45;2&#45;1&#45;2 -->
<g id="edge6" class="edge">
<title>&#45;0&#45;1&#45;2&#45;1&#45;&gt;&#45;0&#45;1&#45;2&#45;1&#45;2</title>
<path fill="none" stroke="black" d="M747,-86.8C747,-75.16 747,-59.55 747,-46.24"/>
<polygon fill="black" stroke="black" points="750.5,-46.18 747,-36.18 743.5,-46.18 750.5,-46.18"/>
<text text-anchor="middle" x="763" y="-57.8" font-family="Times,serif" font-size="14.00"> 2/0 </text>
</g>
<!-- &#45;0&#45;1&#45;2&#45;1&#45;1 -->
<g id="node58" class="node">
<title>&#45;0&#45;1&#45;2&#45;1&#45;1</title>
<ellipse fill="none" stroke="black" cx="819" cy="-18" rx="27" ry="18"/>
<text text-anchor="middle" x="819" y="-14.3" font-family="Times,serif" font-size="14.00">&#45;14</text>
</g>
<!-- &#45;0&#45;1&#45;2&#45;1&#45;&gt;&#45;0&#45;1&#45;2&#45;1&#45;1 -->
<g id="edge5" class="edge">
<title>&#45;0&#45;1&#45;2&#45;1&#45;&gt;&#45;0&#45;1&#45;2&#45;1&#45;1</title>
<path fill="none" stroke="black" d="M762.66,-89.92C769.21,-83.74 776.74,-76.26 783,-69 789.95,-60.94 796.93,-51.6 802.87,-43.19"/>
<polygon fill="black" stroke="black" points="805.83,-45.06 808.64,-34.85 800.08,-41.08 805.83,-45.06"/>
<text text-anchor="middle" x="810" y="-57.8" font-family="Times,serif" font-size="14.00"> 0/6 </text>
</g>
<!-- &#45;0&#45;1&#45;3&#45;0 -->
<g id="node23" class="node">
<title>&#45;0&#45;1&#45;3&#45;0</title>
<ellipse fill="none" stroke="black" cx="351" cy="-105" rx="27" ry="18"/>
<text text-anchor="middle" x="351" y="-101.3" font-family="Times,serif" font-size="14.00">&#45;19</text>
</g>
<!-- &#45;0&#45;1&#45;3&#45;&gt;&#45;0&#45;1&#45;3&#45;0 -->
<g id="edge7" class="edge">
<title>&#45;0&#45;1&#45;3&#45;&gt;&#45;0&#45;1&#45;3&#45;0</title>
<path fill="none" stroke="black" d="M514.42,-181.08C481.78,-166.09 419.71,-137.57 382.17,-120.32"/>
<polygon fill="black" stroke="black" points="383.28,-116.98 372.73,-115.99 380.36,-123.34 383.28,-116.98"/>
<text text-anchor="middle" x="470" y="-144.8" font-family="Times,serif" font-size="14.00"> 0/7 </text>
</g>
<!-- &#45;0&#45;0&#45;2 -->
<g id="node7" class="node">
<title>&#45;0&#45;0&#45;2</title>
<ellipse fill="none" stroke="black" cx="1737" cy="-192" rx="27" ry="18"/>
<text text-anchor="middle" x="1737" y="-188.3" font-family="Times,serif" font-size="14.00">&#45;8</text>
</g>
<!-- &#45;0&#45;0&#45;2&#45;0 -->
<g id="node43" class="node">
<title>&#45;0&#45;0&#45;2&#45;0</title>
<ellipse fill="none" stroke="black" cx="1647" cy="-105" rx="27" ry="18"/>
<text text-anchor="middle" x="1647" y="-101.3" font-family="Times,serif" font-size="14.00">&#45;11</text>
</g>
<!-- &#45;0&#45;0&#45;2&#45;&gt;&#45;0&#45;0&#45;2&#45;0 -->
<g id="edge54" class="edge">
<title>&#45;0&#45;0&#45;2&#45;&gt;&#45;0&#45;0&#45;2&#45;0</title>
<path fill="none" stroke="black" d="M1722.14,-176.96C1707.81,-163.43 1685.93,-142.77 1669.47,-127.22"/>
<polygon fill="black" stroke="black" points="1671.56,-124.38 1661.88,-120.06 1666.75,-129.47 1671.56,-124.38"/>
<text text-anchor="middle" x="1713" y="-144.8" font-family="Times,serif" font-size="14.00"> 7/5 </text>
</g>
<!-- &#45;0&#45;0&#45;2&#45;0&#45;0 -->
<g id="node8" class="node">
<title>&#45;0&#45;0&#45;2&#45;0&#45;0</title>
<ellipse fill="none" stroke="black" cx="1539" cy="-18" rx="27" ry="18"/>
<text text-anchor="middle" x="1539" y="-14.3" font-family="Times,serif" font-size="14.00">&#45;6</text>
</g>
<!-- &#45;0&#45;1&#45;1&#45;0&#45;1 -->
<g id="node9" class="node">
<title>&#45;0&#45;1&#45;1&#45;0&#45;1</title>
<ellipse fill="none" stroke="black" cx="99" cy="-18" rx="27" ry="18"/>
<text text-anchor="middle" x="99" y="-14.3" font-family="Times,serif" font-size="14.00">&#45;18</text>
</g>
<!-- &#45;0&#45;0&#45;0&#45;0&#45;1 -->
<g id="node10" class="node">
<title>&#45;0&#45;0&#45;0&#45;0&#45;1</title>
<ellipse fill="none" stroke="black" cx="1755" cy="-18" rx="27" ry="18"/>
<text text-anchor="middle" x="1755" y="-14.3" font-family="Times,serif" font-size="14.00">&#45;4</text>
</g>
<!-- &#45;0&#45;0&#45;0&#45;1&#45;0 -->
<g id="node11" class="node">
<title>&#45;0&#45;0&#45;0&#45;1&#45;0</title>
<ellipse fill="none" stroke="black" cx="1971" cy="-18" rx="27" ry="18"/>
<text text-anchor="middle" x="1971" y="-14.3" font-family="Times,serif" font-size="14.00">0</text>
</g>
<!-- &#45;0&#45;0&#45;2&#45;0&#45;1 -->
<g id="node12" class="node">
<title>&#45;0&#45;0&#45;2&#45;0&#45;1</title>
<ellipse fill="none" stroke="black" cx="1611" cy="-18" rx="27" ry="18"/>
<text text-anchor="middle" x="1611" y="-14.3" font-family="Times,serif" font-size="14.00">&#45;6</text>
</g>
<!-- &#45;0&#45;0&#45;3&#45;0 -->
<g id="node13" class="node">
<title>&#45;0&#45;0&#45;3&#45;0</title>
<ellipse fill="none" stroke="black" cx="2151" cy="-105" rx="27" ry="18"/>
<text text-anchor="middle" x="2151" y="-101.3" font-family="Times,serif" font-size="14.00">&#45;23</text>
</g>
<!-- &#45;0&#45;0&#45;3&#45;0&#45;1 -->
<g id="node44" class="node">
<title>&#45;0&#45;0&#45;3&#45;0&#45;1</title>
<ellipse fill="none" stroke="black" cx="2115" cy="-18" rx="27" ry="18"/>
<text text-anchor="middle" x="2115" y="-14.3" font-family="Times,serif" font-size="14.00">&#45;18</text>
</g>
<!-- &#45;0&#45;0&#45;3&#45;0&#45;&gt;&#45;0&#45;0&#45;3&#45;0&#45;1 -->
<g id="edge56" class="edge">
<title>&#45;0&#45;0&#45;3&#45;0&#45;&gt;&#45;0&#45;0&#45;3&#45;0&#45;1</title>
<path fill="none" stroke="black" d="M2142.13,-87.83C2139.07,-81.98 2135.73,-75.27 2133,-69 2129.72,-61.47 2126.55,-53.13 2123.8,-45.46"/>
<polygon fill="black" stroke="black" points="2127.06,-44.17 2120.47,-35.88 2120.45,-46.47 2127.06,-44.17"/>
<text text-anchor="middle" x="2149" y="-57.8" font-family="Times,serif" font-size="14.00"> 0/6 </text>
</g>
<!-- &#45;0&#45;0&#45;3&#45;0&#45;2 -->
<g id="node45" class="node">
<title>&#45;0&#45;0&#45;3&#45;0&#45;2</title>
<ellipse fill="none" stroke="black" cx="2187" cy="-18" rx="27" ry="18"/>
<text text-anchor="middle" x="2187" y="-14.3" font-family="Times,serif" font-size="14.00">&#45;12</text>
</g>
<!-- &#45;0&#45;0&#45;3&#45;0&#45;&gt;&#45;0&#45;0&#45;3&#45;0&#45;2 -->
<g id="edge57" class="edge">
<title>&#45;0&#45;0&#45;3&#45;0&#45;&gt;&#45;0&#45;0&#45;3&#45;0&#45;2</title>
<path fill="none" stroke="black" d="M2158.11,-87.21C2163.22,-75.14 2170.21,-58.64 2176.03,-44.89"/>
<polygon fill="black" stroke="black" points="2179.35,-46.04 2180.02,-35.47 2172.9,-43.31 2179.35,-46.04"/>
<text text-anchor="middle" x="2187" y="-57.8" font-family="Times,serif" font-size="14.00"> 2/0 </text>
</g>
<!-- &#45;0&#45;0&#45;3&#45;0&#45;0 -->
<g id="node51" class="node">
<title>&#45;0&#45;0&#45;3&#45;0&#45;0</title>
<ellipse fill="none" stroke="black" cx="2259" cy="-18" rx="27" ry="18"/>
<text text-anchor="middle" x="2259" y="-14.3" font-family="Times,serif" font-size="14.00">&#45;12</text>
</g>
<!-- &#45;0&#45;0&#45;3&#45;0&#45;&gt;&#45;0&#45;0&#45;3&#45;0&#45;0 -->
<g id="edge55" class="edge">
<title>&#45;0&#45;0&#45;3&#45;0&#45;&gt;&#45;0&#45;0&#45;3&#45;0&#45;0</title>
<path fill="none" stroke="black" d="M2171.11,-92.81C2182.08,-86.36 2195.7,-77.81 2207,-69 2217.8,-60.58 2228.87,-50.23 2238,-41.13"/>
<polygon fill="black" stroke="black" points="2240.64,-43.43 2245.16,-33.85 2235.65,-38.52 2240.64,-43.43"/>
<text text-anchor="middle" x="2239" y="-57.8" font-family="Times,serif" font-size="14.00"> 0/1 </text>
</g>
<!-- &#45;0&#45;1&#45;1&#45;0&#45;0 -->
<g id="node14" class="node">
<title>&#45;0&#45;1&#45;1&#45;0&#45;0</title>
<ellipse fill="none" stroke="black" cx="171" cy="-18" rx="27" ry="18"/>
<text text-anchor="middle" x="171" y="-14.3" font-family="Times,serif" font-size="14.00">&#45;18</text>
</g>
<!-- &#45;0 -->
<g id="node15" class="node">
<title>&#45;0</title>
<ellipse fill="none" stroke="black" cx="1253" cy="-366" rx="27" ry="18"/>
<text text-anchor="middle" x="1253" y="-362.3" font-family="Times,serif" font-size="14.00">&#45;12</text>
</g>
<!-- &#45;0&#45;&gt;&#45;0&#45;1 -->
<g id="edge24" class="edge">
<title>&#45;0&#45;&gt;&#45;0&#45;1</title>
<path fill="none" stroke="black" d="M1227,-360.9C1138.96,-347.02 851.86,-301.74 750.14,-285.7"/>
<polygon fill="black" stroke="black" points="750.47,-282.21 740.05,-284.11 749.38,-289.12 750.47,-282.21"/>
<text text-anchor="middle" x="1031" y="-318.8" font-family="Times,serif" font-size="14.00"> 7/5 </text>
</g>
<!-- &#45;0&#45;0 -->
<g id="node34" class="node">
<title>&#45;0&#45;0</title>
<ellipse fill="none" stroke="black" cx="1881" cy="-279" rx="27" ry="18"/>
<text text-anchor="middle" x="1881" y="-275.3" font-family="Times,serif" font-size="14.00">&#45;21</text>
</g>
<!-- &#45;0&#45;&gt;&#45;0&#45;0 -->
<g id="edge23" class="edge">
<title>&#45;0&#45;&gt;&#45;0&#45;0</title>
<path fill="none" stroke="black" d="M1279.18,-361.46C1378.23,-348.05 1730.15,-300.42 1844.69,-284.92"/>
<polygon fill="black" stroke="black" points="1845.26,-288.37 1854.7,-283.56 1844.32,-281.43 1845.26,-288.37"/>
<text text-anchor="middle" x="1620" y="-318.8" font-family="Times,serif" font-size="14.00"> 0/7 </text>
</g>
<!-- &#45;0&#45;0&#45;1&#45;0 -->
<g id="node16" class="node">
<title>&#45;0&#45;0&#45;1&#45;0</title>
<ellipse fill="none" stroke="black" cx="2367" cy="-105" rx="27" ry="18"/>
<text text-anchor="middle" x="2367" y="-101.3" font-family="Times,serif" font-size="14.00">&#45;25</text>
</g>
<!-- &#45;0&#45;0&#45;1&#45;0&#45;0 -->
<g id="node17" class="node">
<title>&#45;0&#45;0&#45;1&#45;0&#45;0</title>
<ellipse fill="none" stroke="black" cx="2331" cy="-18" rx="27" ry="18"/>
<text text-anchor="middle" x="2331" y="-14.3" font-family="Times,serif" font-size="14.00">&#45;6</text>
</g>
<!-- &#45;0&#45;0&#45;1&#45;0&#45;&gt;&#45;0&#45;0&#45;1&#45;0&#45;0 -->
<g id="edge1" class="edge">
<title>&#45;0&#45;0&#45;1&#45;0&#45;&gt;&#45;0&#45;0&#45;1&#45;0&#45;0</title>
<path fill="none" stroke="black" d="M2358.13,-87.83C2355.07,-81.98 2351.73,-75.27 2349,-69 2345.72,-61.47 2342.55,-53.13 2339.8,-45.46"/>
<polygon fill="black" stroke="black" points="2343.06,-44.17 2336.47,-35.88 2336.45,-46.47 2343.06,-44.17"/>
<text text-anchor="middle" x="2365" y="-57.8" font-family="Times,serif" font-size="14.00"> 0/1 </text>
</g>
<!-- &#45;0&#45;0&#45;1&#45;0&#45;2 -->
<g id="node21" class="node">
<title>&#45;0&#45;0&#45;1&#45;0&#45;2</title>
<ellipse fill="none" stroke="black" cx="2403" cy="-18" rx="27" ry="18"/>
<text text-anchor="middle" x="2403" y="-14.3" font-family="Times,serif" font-size="14.00">&#45;16</text>
</g>
<!-- &#45;0&#45;0&#45;1&#45;0&#45;&gt;&#45;0&#45;0&#45;1&#45;0&#45;2 -->
<g id="edge3" class="edge">
<title>&#45;0&#45;0&#45;1&#45;0&#45;&gt;&#45;0&#45;0&#45;1&#45;0&#45;2</title>
<path fill="none" stroke="black" d="M2374.11,-87.21C2379.22,-75.14 2386.21,-58.64 2392.03,-44.89"/>
<polygon fill="black" stroke="black" points="2395.35,-46.04 2396.02,-35.47 2388.9,-43.31 2395.35,-46.04"/>
<text text-anchor="middle" x="2403" y="-57.8" font-family="Times,serif" font-size="14.00"> 4/5 </text>
</g>
<!-- &#45;0&#45;0&#45;1&#45;0&#45;1 -->
<g id="node42" class="node">
<title>&#45;0&#45;0&#45;1&#45;0&#45;1</title>
<ellipse fill="none" stroke="black" cx="2475" cy="-18" rx="27" ry="18"/>
<text text-anchor="middle" x="2475" y="-14.3" font-family="Times,serif" font-size="14.00">&#45;14</text>
</g>
<!-- &#45;0&#45;0&#45;1&#45;0&#45;&gt;&#45;0&#45;0&#45;1&#45;0&#45;1 -->
<g id="edge2" class="edge">
<title>&#45;0&#45;0&#45;1&#45;0&#45;&gt;&#45;0&#45;0&#45;1&#45;0&#45;1</title>
<path fill="none" stroke="black" d="M2387.11,-92.81C2398.08,-86.36 2411.7,-77.81 2423,-69 2433.8,-60.58 2444.87,-50.23 2454,-41.13"/>
<polygon fill="black" stroke="black" points="2456.64,-43.43 2461.16,-33.85 2451.65,-38.52 2456.64,-43.43"/>
<text text-anchor="middle" x="2455" y="-57.8" font-family="Times,serif" font-size="14.00"> 2/0 </text>
</g>
<!-- &#45;0&#45;1&#45;2&#45;0&#45;1 -->
<g id="node18" class="node">
<title>&#45;0&#45;1&#45;2&#45;0&#45;1</title>
<ellipse fill="none" stroke="black" cx="891" cy="-18" rx="27" ry="18"/>
<text text-anchor="middle" x="891" y="-14.3" font-family="Times,serif" font-size="14.00">&#45;6</text>
</g>
<!-- &#45;0&#45;1&#45;4&#45;0&#45;1 -->
<g id="node19" class="node">
<title>&#45;0&#45;1&#45;4&#45;0&#45;1</title>
<ellipse fill="none" stroke="black" cx="459" cy="-18" rx="27" ry="18"/>
<text text-anchor="middle" x="459" y="-14.3" font-family="Times,serif" font-size="14.00">&#45;16</text>
</g>
<!-- &#45;0&#45;0&#45;0&#45;1&#45;1 -->
<g id="node20" class="node">
<title>&#45;0&#45;0&#45;0&#45;1&#45;1</title>
<ellipse fill="none" stroke="black" cx="2043" cy="-18" rx="27" ry="18"/>
<text text-anchor="middle" x="2043" y="-14.3" font-family="Times,serif" font-size="14.00">&#45;6</text>
</g>
<!-- &#45;0&#45;1&#45;3&#45;0&#45;1 -->
<g id="node24" class="node">
<title>&#45;0&#45;1&#45;3&#45;0&#45;1</title>
<ellipse fill="none" stroke="black" cx="243" cy="-18" rx="27" ry="18"/>
<text text-anchor="middle" x="243" y="-14.3" font-family="Times,serif" font-size="14.00">&#45;14</text>
</g>
<!-- &#45;0&#45;1&#45;3&#45;0&#45;&gt;&#45;0&#45;1&#45;3&#45;0&#45;1 -->
<g id="edge40" class="edge">
<title>&#45;0&#45;1&#45;3&#45;0&#45;&gt;&#45;0&#45;1&#45;3&#45;0&#45;1</title>
<path fill="none" stroke="black" d="M329.82,-93.51C317.89,-87.16 303.03,-78.47 291,-69 280.76,-60.94 270.6,-50.75 262.28,-41.68"/>
<polygon fill="black" stroke="black" points="264.75,-39.2 255.48,-34.08 259.53,-43.86 264.75,-39.2"/>
<text text-anchor="middle" x="307" y="-57.8" font-family="Times,serif" font-size="14.00"> 0/6 </text>
</g>
<!-- &#45;0&#45;1&#45;3&#45;0&#45;0 -->
<g id="node29" class="node">
<title>&#45;0&#45;1&#45;3&#45;0&#45;0</title>
<ellipse fill="none" stroke="black" cx="315" cy="-18" rx="27" ry="18"/>
<text text-anchor="middle" x="315" y="-14.3" font-family="Times,serif" font-size="14.00">&#45;14</text>
</g>
<!-- &#45;0&#45;1&#45;3&#45;0&#45;&gt;&#45;0&#45;1&#45;3&#45;0&#45;0 -->
<g id="edge39" class="edge">
<title>&#45;0&#45;1&#45;3&#45;0&#45;&gt;&#45;0&#45;1&#45;3&#45;0&#45;0</title>
<path fill="none" stroke="black" d="M342.13,-87.83C339.07,-81.98 335.73,-75.27 333,-69 329.72,-61.47 326.55,-53.13 323.8,-45.46"/>
<polygon fill="black" stroke="black" points="327.06,-44.17 320.47,-35.88 320.45,-46.47 327.06,-44.17"/>
<text text-anchor="middle" x="349" y="-57.8" font-family="Times,serif" font-size="14.00"> 0/1 </text>
</g>
<!-- &#45;0&#45;1&#45;3&#45;0&#45;2 -->
<g id="node32" class="node">
<title>&#45;0&#45;1&#45;3&#45;0&#45;2</title>
<ellipse fill="none" stroke="black" cx="387" cy="-18" rx="27" ry="18"/>
<text text-anchor="middle" x="387" y="-14.3" font-family="Times,serif" font-size="14.00">&#45;6</text>
</g>
<!-- &#45;0&#45;1&#45;3&#45;0&#45;&gt;&#45;0&#45;1&#45;3&#45;0&#45;2 -->
<g id="edge41" class="edge">
<title>&#45;0&#45;1&#45;3&#45;0&#45;&gt;&#45;0&#45;1&#45;3&#45;0&#45;2</title>
<path fill="none" stroke="black" d="M358.11,-87.21C363.22,-75.14 370.21,-58.64 376.03,-44.89"/>
<polygon fill="black" stroke="black" points="379.35,-46.04 380.02,-35.47 372.9,-43.31 379.35,-46.04"/>
<text text-anchor="middle" x="387" y="-57.8" font-family="Times,serif" font-size="14.00"> 4/5 </text>
</g>
<!-- &#45;0&#45;0&#45;0 -->
<g id="node25" class="node">
<title>&#45;0&#45;0&#45;0</title>
<ellipse fill="none" stroke="black" cx="1881" cy="-192" rx="27" ry="18"/>
<text text-anchor="middle" x="1881" y="-188.3" font-family="Times,serif" font-size="14.00">&#45;10</text>
</g>
<!-- &#45;0&#45;0&#45;0&#45;0 -->
<g id="node38" class="node">
<title>&#45;0&#45;0&#45;0&#45;0</title>
<ellipse fill="none" stroke="black" cx="1827" cy="-105" rx="27" ry="18"/>
<text text-anchor="middle" x="1827" y="-101.3" font-family="Times,serif" font-size="14.00">&#45;15</text>
</g>
<!-- &#45;0&#45;0&#45;0&#45;&gt;&#45;0&#45;0&#45;0&#45;0 -->
<g id="edge46" class="edge">
<title>&#45;0&#45;0&#45;0&#45;&gt;&#45;0&#45;0&#45;0&#45;0</title>
<path fill="none" stroke="black" d="M1870.84,-175.01C1862.92,-162.55 1851.78,-145.01 1842.72,-130.74"/>
<polygon fill="black" stroke="black" points="1845.43,-128.48 1837.11,-121.92 1839.52,-132.23 1845.43,-128.48"/>
<text text-anchor="middle" x="1873" y="-144.8" font-family="Times,serif" font-size="14.00"> 2/0 </text>
</g>
<!-- &#45;0&#45;0&#45;0&#45;1 -->
<g id="node46" class="node">
<title>&#45;0&#45;0&#45;0&#45;1</title>
<ellipse fill="none" stroke="black" cx="1960" cy="-105" rx="27" ry="18"/>
<text text-anchor="middle" x="1960" y="-101.3" font-family="Times,serif" font-size="14.00">&#45;13</text>
</g>
<!-- &#45;0&#45;0&#45;0&#45;&gt;&#45;0&#45;0&#45;0&#45;1 -->
<g id="edge47" class="edge">
<title>&#45;0&#45;0&#45;0&#45;&gt;&#45;0&#45;0&#45;0&#45;1</title>
<path fill="none" stroke="black" d="M1894.76,-176.19C1907.11,-162.91 1925.4,-143.23 1939.47,-128.08"/>
<polygon fill="black" stroke="black" points="1942.15,-130.34 1946.4,-120.64 1937.03,-125.58 1942.15,-130.34"/>
<text text-anchor="middle" x="1941" y="-144.8" font-family="Times,serif" font-size="14.00"> 7/5 </text>
</g>
<!-- &#45;0&#45;0&#45;0&#45;0&#45;0 -->
<g id="node26" class="node">
<title>&#45;0&#45;0&#45;0&#45;0&#45;0</title>
<ellipse fill="none" stroke="black" cx="1827" cy="-18" rx="27" ry="18"/>
<text text-anchor="middle" x="1827" y="-14.3" font-family="Times,serif" font-size="14.00">&#45;2</text>
</g>
<!-- &#45;0&#45;0&#45;3 -->
<g id="node27" class="node">
<title>&#45;0&#45;0&#45;3</title>
<ellipse fill="none" stroke="black" cx="1958" cy="-192" rx="27" ry="18"/>
<text text-anchor="middle" x="1958" y="-188.3" font-family="Times,serif" font-size="14.00">&#45;10</text>
</g>
<!-- &#45;0&#45;0&#45;3&#45;&gt;&#45;0&#45;0&#45;3&#45;0 -->
<g id="edge11" class="edge">
<title>&#45;0&#45;0&#45;3&#45;&gt;&#45;0&#45;0&#45;3&#45;0</title>
<path fill="none" stroke="black" d="M1980.14,-181.25C2014.46,-166.13 2080.62,-137 2119.78,-119.75"/>
<polygon fill="black" stroke="black" points="2121.38,-122.87 2129.12,-115.64 2118.56,-116.46 2121.38,-122.87"/>
<text text-anchor="middle" x="2082" y="-144.8" font-family="Times,serif" font-size="14.00"> 7/5 </text>
</g>
<!-- &#45;0&#45;1&#45;0&#45;1 -->
<g id="node28" class="node">
<title>&#45;0&#45;1&#45;0&#45;1</title>
<ellipse fill="none" stroke="black" cx="1179" cy="-105" rx="27" ry="18"/>
<text text-anchor="middle" x="1179" y="-101.3" font-family="Times,serif" font-size="14.00">&#45;17</text>
</g>
<!-- &#45;0&#45;1&#45;0&#45;1&#45;0 -->
<g id="node31" class="node">
<title>&#45;0&#45;1&#45;0&#45;1&#45;0</title>
<ellipse fill="none" stroke="black" cx="1107" cy="-18" rx="27" ry="18"/>
<text text-anchor="middle" x="1107" y="-14.3" font-family="Times,serif" font-size="14.00">&#45;4</text>
</g>
<!-- &#45;0&#45;1&#45;0&#45;1&#45;&gt;&#45;0&#45;1&#45;0&#45;1&#45;0 -->
<g id="edge12" class="edge">
<title>&#45;0&#45;1&#45;0&#45;1&#45;&gt;&#45;0&#45;1&#45;0&#45;1&#45;0</title>
<path fill="none" stroke="black" d="M1163.34,-89.92C1156.79,-83.74 1149.26,-76.26 1143,-69 1136.05,-60.94 1129.07,-51.6 1123.13,-43.19"/>
<polygon fill="black" stroke="black" points="1125.92,-41.08 1117.36,-34.85 1120.17,-45.06 1125.92,-41.08"/>
<text text-anchor="middle" x="1159" y="-57.8" font-family="Times,serif" font-size="14.00"> 0/6 </text>
</g>
<!-- &#45;0&#45;1&#45;0&#45;1&#45;1 -->
<g id="node36" class="node">
<title>&#45;0&#45;1&#45;0&#45;1&#45;1</title>
<ellipse fill="none" stroke="black" cx="1179" cy="-18" rx="27" ry="18"/>
<text text-anchor="middle" x="1179" y="-14.3" font-family="Times,serif" font-size="14.00">&#45;8</text>
</g>
<!-- &#45;0&#45;1&#45;0&#45;1&#45;&gt;&#45;0&#45;1&#45;0&#45;1&#45;1 -->
<g id="edge13" class="edge">
<title>&#45;0&#45;1&#45;0&#45;1&#45;&gt;&#45;0&#45;1&#45;0&#45;1&#45;1</title>
<path fill="none" stroke="black" d="M1179,-86.8C1179,-75.16 1179,-59.55 1179,-46.24"/>
<polygon fill="black" stroke="black" points="1182.5,-46.18 1179,-36.18 1175.5,-46.18 1182.5,-46.18"/>
<text text-anchor="middle" x="1195" y="-57.8" font-family="Times,serif" font-size="14.00"> 0/7 </text>
</g>
<!-- &#45;0&#45;1&#45;0&#45;1&#45;2 -->
<g id="node40" class="node">
<title>&#45;0&#45;1&#45;0&#45;1&#45;2</title>
<ellipse fill="none" stroke="black" cx="1251" cy="-18" rx="27" ry="18"/>
<text text-anchor="middle" x="1251" y="-14.3" font-family="Times,serif" font-size="14.00">&#45;2</text>
</g>
<!-- &#45;0&#45;1&#45;0&#45;1&#45;&gt;&#45;0&#45;1&#45;0&#45;1&#45;2 -->
<g id="edge14" class="edge">
<title>&#45;0&#45;1&#45;0&#45;1&#45;&gt;&#45;0&#45;1&#45;0&#45;1&#45;2</title>
<path fill="none" stroke="black" d="M1194.66,-89.92C1201.21,-83.74 1208.74,-76.26 1215,-69 1221.95,-60.94 1228.93,-51.6 1234.87,-43.19"/>
<polygon fill="black" stroke="black" points="1237.83,-45.06 1240.64,-34.85 1232.08,-41.08 1237.83,-45.06"/>
<text text-anchor="middle" x="1242" y="-57.8" font-family="Times,serif" font-size="14.00"> 4/5 </text>
</g>
<!-- &#45;0&#45;1&#45;4&#45;0&#45;2 -->
<g id="node30" class="node">
<title>&#45;0&#45;1&#45;4&#45;0&#45;2</title>
<ellipse fill="none" stroke="black" cx="531" cy="-18" rx="27" ry="18"/>
<text text-anchor="middle" x="531" y="-14.3" font-family="Times,serif" font-size="14.00">&#45;10</text>
</g>
<!-- &#45;0&#45;1&#45;4&#45;0 -->
<g id="node33" class="node">
<title>&#45;0&#45;1&#45;4&#45;0</title>
<ellipse fill="none" stroke="black" cx="567" cy="-105" rx="27" ry="18"/>
<text text-anchor="middle" x="567" y="-101.3" font-family="Times,serif" font-size="14.00">&#45;21</text>
</g>
<!-- &#45;0&#45;1&#45;4&#45;0&#45;&gt;&#45;0&#45;1&#45;4&#45;0&#45;1 -->
<g id="edge37" class="edge">
<title>&#45;0&#45;1&#45;4&#45;0&#45;&gt;&#45;0&#45;1&#45;4&#45;0&#45;1</title>
<path fill="none" stroke="black" d="M545.19,-94.13C532.52,-87.86 516.63,-79.06 504,-69 494.35,-61.31 485,-51.45 477.34,-42.53"/>
<polygon fill="black" stroke="black" points="479.91,-40.14 470.83,-34.68 474.52,-44.61 479.91,-40.14"/>
<text text-anchor="middle" x="520" y="-57.8" font-family="Times,serif" font-size="14.00"> 0/6 </text>
</g>
<!-- &#45;0&#45;1&#45;4&#45;0&#45;&gt;&#45;0&#45;1&#45;4&#45;0&#45;2 -->
<g id="edge38" class="edge">
<title>&#45;0&#45;1&#45;4&#45;0&#45;&gt;&#45;0&#45;1&#45;4&#45;0&#45;2</title>
<path fill="none" stroke="black" d="M556.3,-88.07C552.69,-82.24 548.86,-75.48 546,-69 542.78,-61.7 540,-53.52 537.74,-45.91"/>
<polygon fill="black" stroke="black" points="541.04,-44.73 534.98,-36.04 534.3,-46.61 541.04,-44.73"/>
<text text-anchor="middle" x="562" y="-57.8" font-family="Times,serif" font-size="14.00"> 2/0 </text>
</g>
<!-- &#45;0&#45;1&#45;4&#45;0&#45;0 -->
<g id="node59" class="node">
<title>&#45;0&#45;1&#45;4&#45;0&#45;0</title>
<ellipse fill="none" stroke="black" cx="603" cy="-18" rx="27" ry="18"/>
<text text-anchor="middle" x="603" y="-14.3" font-family="Times,serif" font-size="14.00">&#45;10</text>
</g>
<!-- &#45;0&#45;1&#45;4&#45;0&#45;&gt;&#45;0&#45;1&#45;4&#45;0&#45;0 -->
<g id="edge36" class="edge">
<title>&#45;0&#45;1&#45;4&#45;0&#45;&gt;&#45;0&#45;1&#45;4&#45;0&#45;0</title>
<path fill="none" stroke="black" d="M574.11,-87.21C579.22,-75.14 586.21,-58.64 592.03,-44.89"/>
<polygon fill="black" stroke="black" points="595.35,-46.04 596.02,-35.47 588.9,-43.31 595.35,-46.04"/>
<text text-anchor="middle" x="603" y="-57.8" font-family="Times,serif" font-size="14.00"> 0/1 </text>
</g>
<!-- &#45;0&#45;0&#45;&gt;&#45;0&#45;0&#45;2 -->
<g id="edge44" class="edge">
<title>&#45;0&#45;0&#45;&gt;&#45;0&#45;0&#45;2</title>
<path fill="none" stroke="black" d="M1861.28,-266.36C1836.4,-251.67 1793.44,-226.31 1765.12,-209.6"/>
<polygon fill="black" stroke="black" points="1766.87,-206.57 1756.48,-204.5 1763.31,-212.6 1766.87,-206.57"/>
<text text-anchor="middle" x="1833" y="-231.8" font-family="Times,serif" font-size="14.00"> 2/0 </text>
</g>
<!-- &#45;0&#45;0&#45;&gt;&#45;0&#45;0&#45;0 -->
<g id="edge42" class="edge">
<title>&#45;0&#45;0&#45;&gt;&#45;0&#45;0&#45;0</title>
<path fill="none" stroke="black" d="M1881,-260.8C1881,-249.16 1881,-233.55 1881,-220.24"/>
<polygon fill="black" stroke="black" points="1884.5,-220.18 1881,-210.18 1877.5,-220.18 1884.5,-220.18"/>
<text text-anchor="middle" x="1897" y="-231.8" font-family="Times,serif" font-size="14.00"> 0/1 </text>
</g>
<!-- &#45;0&#45;0&#45;&gt;&#45;0&#45;0&#45;3 -->
<g id="edge45" class="edge">
<title>&#45;0&#45;0&#45;&gt;&#45;0&#45;0&#45;3</title>
<path fill="none" stroke="black" d="M1896.09,-264.06C1902.68,-257.79 1910.39,-250.19 1917,-243 1924.83,-234.48 1933,-224.72 1939.97,-216.09"/>
<polygon fill="black" stroke="black" points="1942.72,-218.25 1946.23,-208.25 1937.25,-213.88 1942.72,-218.25"/>
<text text-anchor="middle" x="1945" y="-231.8" font-family="Times,serif" font-size="14.00"> 4/5 </text>
</g>
<!-- &#45;0&#45;0&#45;1 -->
<g id="node57" class="node">
<title>&#45;0&#45;0&#45;1</title>
<ellipse fill="none" stroke="black" cx="2033" cy="-192" rx="27" ry="18"/>
<text text-anchor="middle" x="2033" y="-188.3" font-family="Times,serif" font-size="14.00">&#45;16</text>
</g>
<!-- &#45;0&#45;0&#45;&gt;&#45;0&#45;0&#45;1 -->
<g id="edge43" class="edge">
<title>&#45;0&#45;0&#45;&gt;&#45;0&#45;0&#45;1</title>
<path fill="none" stroke="black" d="M1904.52,-269.93C1921.76,-263.6 1945.47,-254.04 1965,-243 1980.24,-234.39 1996.06,-222.93 2008.6,-213.15"/>
<polygon fill="black" stroke="black" points="2011.06,-215.67 2016.71,-206.71 2006.71,-210.19 2011.06,-215.67"/>
<text text-anchor="middle" x="2004" y="-231.8" font-family="Times,serif" font-size="14.00"> 0/6 </text>
</g>
<!-- &#45;0&#45;0&#45;2&#45;0&#45;2 -->
<g id="node35" class="node">
<title>&#45;0&#45;0&#45;2&#45;0&#45;2</title>
<ellipse fill="none" stroke="black" cx="1683" cy="-18" rx="27" ry="18"/>
<text text-anchor="middle" x="1683" y="-14.3" font-family="Times,serif" font-size="14.00">&#45;2</text>
</g>
<!-- &#45;0&#45;1&#45;2&#45;0&#45;2 -->
<g id="node37" class="node">
<title>&#45;0&#45;1&#45;2&#45;0&#45;2</title>
<ellipse fill="none" stroke="black" cx="963" cy="-18" rx="27" ry="18"/>
<text text-anchor="middle" x="963" y="-14.3" font-family="Times,serif" font-size="14.00">&#45;6</text>
</g>
<!-- &#45;0&#45;0&#45;0&#45;0&#45;&gt;&#45;0&#45;0&#45;0&#45;0&#45;1 -->
<g id="edge26" class="edge">
<title>&#45;0&#45;0&#45;0&#45;0&#45;&gt;&#45;0&#45;0&#45;0&#45;0&#45;1</title>
<path fill="none" stroke="black" d="M1811.34,-89.92C1804.79,-83.74 1797.26,-76.26 1791,-69 1784.05,-60.94 1777.07,-51.6 1771.13,-43.19"/>
<polygon fill="black" stroke="black" points="1773.92,-41.08 1765.36,-34.85 1768.17,-45.06 1773.92,-41.08"/>
<text text-anchor="middle" x="1807" y="-57.8" font-family="Times,serif" font-size="14.00"> 4/5 </text>
</g>
<!-- &#45;0&#45;0&#45;0&#45;0&#45;&gt;&#45;0&#45;0&#45;0&#45;0&#45;0 -->
<g id="edge25" class="edge">
<title>&#45;0&#45;0&#45;0&#45;0&#45;&gt;&#45;0&#45;0&#45;0&#45;0&#45;0</title>
<path fill="none" stroke="black" d="M1827,-86.8C1827,-75.16 1827,-59.55 1827,-46.24"/>
<polygon fill="black" stroke="black" points="1830.5,-46.18 1827,-36.18 1823.5,-46.18 1830.5,-46.18"/>
<text text-anchor="middle" x="1843" y="-57.8" font-family="Times,serif" font-size="14.00"> 0/6 </text>
</g>
<!-- &#45;0&#45;1&#45;0&#45;0&#45;2 -->
<g id="node39" class="node">
<title>&#45;0&#45;1&#45;0&#45;0&#45;2</title>
<ellipse fill="none" stroke="black" cx="1323" cy="-18" rx="27" ry="18"/>
<text text-anchor="middle" x="1323" y="-14.3" font-family="Times,serif" font-size="14.00">&#45;8</text>
</g>
<!-- &#45;0&#45;1&#45;1&#45;0&#45;&gt;&#45;0&#45;1&#45;1&#45;0&#45;2 -->
<g id="edge22" class="edge">
<title>&#45;0&#45;1&#45;1&#45;0&#45;&gt;&#45;0&#45;1&#45;1&#45;0&#45;2</title>
<path fill="none" stroke="black" d="M113.7,-93.77C101.51,-87.44 86.26,-78.69 74,-69 63.88,-61 53.91,-50.83 45.78,-41.74"/>
<polygon fill="black" stroke="black" points="48.35,-39.37 39.14,-34.13 43.07,-43.97 48.35,-39.37"/>
<text text-anchor="middle" x="90" y="-57.8" font-family="Times,serif" font-size="14.00"> 4/5 </text>
</g>
<!-- &#45;0&#45;1&#45;1&#45;0&#45;&gt;&#45;0&#45;1&#45;1&#45;0&#45;1 -->
<g id="edge21" class="edge">
<title>&#45;0&#45;1&#45;1&#45;0&#45;&gt;&#45;0&#45;1&#45;1&#45;0&#45;1</title>
<path fill="none" stroke="black" d="M124.91,-87.99C121.49,-82.15 117.82,-75.41 115,-69 111.73,-61.58 108.8,-53.27 106.37,-45.59"/>
<polygon fill="black" stroke="black" points="109.72,-44.55 103.48,-35.99 103.01,-46.58 109.72,-44.55"/>
<text text-anchor="middle" x="131" y="-57.8" font-family="Times,serif" font-size="14.00"> 2/0 </text>
</g>
<!-- &#45;0&#45;1&#45;1&#45;0&#45;&gt;&#45;0&#45;1&#45;1&#45;0&#45;0 -->
<g id="edge20" class="edge">
<title>&#45;0&#45;1&#45;1&#45;0&#45;&gt;&#45;0&#45;1&#45;1&#45;0&#45;0</title>
<path fill="none" stroke="black" d="M142.11,-87.21C147.22,-75.14 154.21,-58.64 160.03,-44.89"/>
<polygon fill="black" stroke="black" points="163.35,-46.04 164.02,-35.47 156.9,-43.31 163.35,-46.04"/>
<text text-anchor="middle" x="172" y="-57.8" font-family="Times,serif" font-size="14.00"> 0/1 </text>
</g>
<!-- &#45;0&#45;0&#45;2&#45;0&#45;&gt;&#45;0&#45;0&#45;2&#45;0&#45;0 -->
<g id="edge8" class="edge">
<title>&#45;0&#45;0&#45;2&#45;0&#45;&gt;&#45;0&#45;0&#45;2&#45;0&#45;0</title>
<path fill="none" stroke="black" d="M1625.7,-93.77C1613.51,-87.44 1598.26,-78.69 1586,-69 1575.88,-61 1565.91,-50.83 1557.78,-41.74"/>
<polygon fill="black" stroke="black" points="1560.35,-39.37 1551.14,-34.13 1555.07,-43.97 1560.35,-39.37"/>
<text text-anchor="middle" x="1602" y="-57.8" font-family="Times,serif" font-size="14.00"> 0/1 </text>
</g>
<!-- &#45;0&#45;0&#45;2&#45;0&#45;&gt;&#45;0&#45;0&#45;2&#45;0&#45;1 -->
<g id="edge9" class="edge">
<title>&#45;0&#45;0&#45;2&#45;0&#45;&gt;&#45;0&#45;0&#45;2&#45;0&#45;1</title>
<path fill="none" stroke="black" d="M1638.13,-87.83C1635.07,-81.98 1631.73,-75.27 1629,-69 1625.72,-61.47 1622.55,-53.13 1619.8,-45.46"/>
<polygon fill="black" stroke="black" points="1623.06,-44.17 1616.47,-35.88 1616.45,-46.47 1623.06,-44.17"/>
<text text-anchor="middle" x="1645" y="-57.8" font-family="Times,serif" font-size="14.00"> 0/6 </text>
</g>
<!-- &#45;0&#45;0&#45;2&#45;0&#45;&gt;&#45;0&#45;0&#45;2&#45;0&#45;2 -->
<g id="edge10" class="edge">
<title>&#45;0&#45;0&#45;2&#45;0&#45;&gt;&#45;0&#45;0&#45;2&#45;0&#45;2</title>
<path fill="none" stroke="black" d="M1654.11,-87.21C1659.22,-75.14 1666.21,-58.64 1672.03,-44.89"/>
<polygon fill="black" stroke="black" points="1675.35,-46.04 1676.02,-35.47 1668.9,-43.31 1675.35,-46.04"/>
<text text-anchor="middle" x="1683" y="-57.8" font-family="Times,serif" font-size="14.00"> 4/5 </text>
</g>
<!-- &#45;0&#45;0&#45;0&#45;1&#45;&gt;&#45;0&#45;0&#45;0&#45;1&#45;2 -->
<g id="edge52" class="edge">
<title>&#45;0&#45;0&#45;0&#45;1&#45;&gt;&#45;0&#45;0&#45;0&#45;1&#45;2</title>
<path fill="none" stroke="black" d="M1945.56,-89.62C1939.78,-83.52 1933.26,-76.17 1928,-69 1922.31,-61.24 1916.81,-52.28 1912.16,-44.1"/>
<polygon fill="black" stroke="black" points="1915.2,-42.37 1907.3,-35.31 1909.07,-45.76 1915.2,-42.37"/>
<text text-anchor="middle" x="1944" y="-57.8" font-family="Times,serif" font-size="14.00"> 4/5 </text>
</g>
<!-- &#45;0&#45;0&#45;0&#45;1&#45;&gt;&#45;0&#45;0&#45;0&#45;1&#45;0 -->
<g id="edge50" class="edge">
<title>&#45;0&#45;0&#45;0&#45;1&#45;&gt;&#45;0&#45;0&#45;0&#45;1&#45;0</title>
<path fill="none" stroke="black" d="M1962.23,-86.8C1963.73,-75.16 1965.75,-59.55 1967.48,-46.24"/>
<polygon fill="black" stroke="black" points="1970.96,-46.54 1968.78,-36.18 1964.02,-45.64 1970.96,-46.54"/>
<text text-anchor="middle" x="1982" y="-57.8" font-family="Times,serif" font-size="14.00"> 0/6 </text>
</g>
<!-- &#45;0&#45;0&#45;0&#45;1&#45;&gt;&#45;0&#45;0&#45;0&#45;1&#45;1 -->
<g id="edge51" class="edge">
<title>&#45;0&#45;0&#45;0&#45;1&#45;&gt;&#45;0&#45;0&#45;0&#45;1&#45;1</title>
<path fill="none" stroke="black" d="M1977.4,-90.73C1985.22,-84.46 1994.38,-76.68 2002,-69 2010.15,-60.79 2018.38,-51.08 2025.31,-42.42"/>
<polygon fill="black" stroke="black" points="2028.09,-44.54 2031.51,-34.52 2022.58,-40.22 2028.09,-44.54"/>
<text text-anchor="middle" x="2031" y="-57.8" font-family="Times,serif" font-size="14.00"> 2/0 </text>
</g>
<!-- &#45;0&#45;1&#45;4&#45;&gt;&#45;0&#45;1&#45;4&#45;0 -->
<g id="edge58" class="edge">
<title>&#45;0&#45;1&#45;4&#45;&gt;&#45;0&#45;1&#45;4&#45;0</title>
<path fill="none" stroke="black" d="M638.41,-176.58C624.82,-163.15 604.38,-142.94 588.84,-127.59"/>
<polygon fill="black" stroke="black" points="591.23,-125.03 581.66,-120.49 586.31,-130.01 591.23,-125.03"/>
<text text-anchor="middle" x="631" y="-144.8" font-family="Times,serif" font-size="14.00"> 0/7 </text>
</g>
<!-- &#45;0&#45;1&#45;0&#45;0 -->
<g id="node48" class="node">
<title>&#45;0&#45;1&#45;0&#45;0</title>
<ellipse fill="none" stroke="black" cx="1359" cy="-105" rx="27" ry="18"/>
<text text-anchor="middle" x="1359" y="-101.3" font-family="Times,serif" font-size="14.00">&#45;19</text>
</g>
<!-- &#45;0&#45;1&#45;0&#45;0&#45;&gt;&#45;0&#45;1&#45;0&#45;0&#45;2 -->
<g id="edge35" class="edge">
<title>&#45;0&#45;1&#45;0&#45;0&#45;&gt;&#45;0&#45;1&#45;0&#45;0&#45;2</title>
<path fill="none" stroke="black" d="M1348.3,-88.07C1344.69,-82.24 1340.86,-75.48 1338,-69 1334.78,-61.7 1332,-53.52 1329.74,-45.91"/>
<polygon fill="black" stroke="black" points="1333.04,-44.73 1326.98,-36.04 1326.3,-46.61 1333.04,-44.73"/>
<text text-anchor="middle" x="1354" y="-57.8" font-family="Times,serif" font-size="14.00"> 4/5 </text>
</g>
<!-- &#45;0&#45;1&#45;0&#45;0&#45;0 -->
<g id="node49" class="node">
<title>&#45;0&#45;1&#45;0&#45;0&#45;0</title>
<ellipse fill="none" stroke="black" cx="1395" cy="-18" rx="27" ry="18"/>
<text text-anchor="middle" x="1395" y="-14.3" font-family="Times,serif" font-size="14.00">&#45;6</text>
</g>
<!-- &#45;0&#45;1&#45;0&#45;0&#45;&gt;&#45;0&#45;1&#45;0&#45;0&#45;0 -->
<g id="edge33" class="edge">
<title>&#45;0&#45;1&#45;0&#45;0&#45;&gt;&#45;0&#45;1&#45;0&#45;0&#45;0</title>
<path fill="none" stroke="black" d="M1366.11,-87.21C1371.22,-75.14 1378.21,-58.64 1384.03,-44.89"/>
<polygon fill="black" stroke="black" points="1387.35,-46.04 1388.02,-35.47 1380.9,-43.31 1387.35,-46.04"/>
<text text-anchor="middle" x="1395" y="-57.8" font-family="Times,serif" font-size="14.00"> 0/6 </text>
</g>
<!-- &#45;0&#45;1&#45;0&#45;0&#45;1 -->
<g id="node54" class="node">
<title>&#45;0&#45;1&#45;0&#45;0&#45;1</title>
<ellipse fill="none" stroke="black" cx="1467" cy="-18" rx="27" ry="18"/>
<text text-anchor="middle" x="1467" y="-14.3" font-family="Times,serif" font-size="14.00">&#45;12</text>
</g>
<!-- &#45;0&#45;1&#45;0&#45;0&#45;&gt;&#45;0&#45;1&#45;0&#45;0&#45;1 -->
<g id="edge34" class="edge">
<title>&#45;0&#45;1&#45;0&#45;0&#45;&gt;&#45;0&#45;1&#45;0&#45;0&#45;1</title>
<path fill="none" stroke="black" d="M1379.11,-92.81C1390.08,-86.36 1403.7,-77.81 1415,-69 1425.8,-60.58 1436.87,-50.23 1446,-41.13"/>
<polygon fill="black" stroke="black" points="1448.64,-43.43 1453.16,-33.85 1443.65,-38.52 1448.64,-43.43"/>
<text text-anchor="middle" x="1447" y="-57.8" font-family="Times,serif" font-size="14.00"> 2/0 </text>
</g>
<!-- &#45;0&#45;1&#45;2&#45;&gt;&#45;0&#45;1&#45;2&#45;1 -->
<g id="edge49" class="edge">
<title>&#45;0&#45;1&#45;2&#45;&gt;&#45;0&#45;1&#45;2&#45;1</title>
<path fill="none" stroke="black" d="M747,-173.8C747,-162.16 747,-146.55 747,-133.24"/>
<polygon fill="black" stroke="black" points="750.5,-133.18 747,-123.18 743.5,-133.18 750.5,-133.18"/>
<text text-anchor="middle" x="763" y="-144.8" font-family="Times,serif" font-size="14.00"> 4/5 </text>
</g>
<!-- &#45;0&#45;1&#45;2&#45;0 -->
<g id="node55" class="node">
<title>&#45;0&#45;1&#45;2&#45;0</title>
<ellipse fill="none" stroke="black" cx="927" cy="-105" rx="27" ry="18"/>
<text text-anchor="middle" x="927" y="-101.3" font-family="Times,serif" font-size="14.00">&#45;17</text>
</g>
<!-- &#45;0&#45;1&#45;2&#45;&gt;&#45;0&#45;1&#45;2&#45;0 -->
<g id="edge48" class="edge">
<title>&#45;0&#45;1&#45;2&#45;&gt;&#45;0&#45;1&#45;2&#45;0</title>
<path fill="none" stroke="black" d="M768.36,-180.92C800.16,-165.9 860.11,-137.59 896.51,-120.4"/>
<polygon fill="black" stroke="black" points="898.12,-123.51 905.67,-116.07 895.14,-117.18 898.12,-123.51"/>
<text text-anchor="middle" x="863" y="-144.8" font-family="Times,serif" font-size="14.00"> 0/6 </text>
</g>
<!-- &#45;0&#45;1&#45;0&#45;&gt;&#45;0&#45;1&#45;0&#45;1 -->
<g id="edge19" class="edge">
<title>&#45;0&#45;1&#45;0&#45;&gt;&#45;0&#45;1&#45;0&#45;1</title>
<path fill="none" stroke="black" d="M1179,-173.8C1179,-162.16 1179,-146.55 1179,-133.24"/>
<polygon fill="black" stroke="black" points="1182.5,-133.18 1179,-123.18 1175.5,-133.18 1182.5,-133.18"/>
<text text-anchor="middle" x="1195" y="-144.8" font-family="Times,serif" font-size="14.00"> 2/0 </text>
</g>
<!-- &#45;0&#45;1&#45;0&#45;&gt;&#45;0&#45;1&#45;0&#45;0 -->
<g id="edge18" class="edge">
<title>&#45;0&#45;1&#45;0&#45;&gt;&#45;0&#45;1&#45;0&#45;0</title>
<path fill="none" stroke="black" d="M1200.36,-180.92C1232.16,-165.9 1292.11,-137.59 1328.51,-120.4"/>
<polygon fill="black" stroke="black" points="1330.12,-123.51 1337.67,-116.07 1327.14,-117.18 1330.12,-123.51"/>
<text text-anchor="middle" x="1295" y="-144.8" font-family="Times,serif" font-size="14.00"> 0/7 </text>
</g>
<!-- &#45;0&#45;1&#45;2&#45;0&#45;&gt;&#45;0&#45;1&#45;2&#45;0&#45;1 -->
<g id="edge16" class="edge">
<title>&#45;0&#45;1&#45;2&#45;0&#45;&gt;&#45;0&#45;1&#45;2&#45;0&#45;1</title>
<path fill="none" stroke="black" d="M918.13,-87.83C915.07,-81.98 911.73,-75.27 909,-69 905.72,-61.47 902.55,-53.13 899.8,-45.46"/>
<polygon fill="black" stroke="black" points="903.06,-44.17 896.47,-35.88 896.45,-46.47 903.06,-44.17"/>
<text text-anchor="middle" x="925" y="-57.8" font-family="Times,serif" font-size="14.00"> 2/0 </text>
</g>
<!-- &#45;0&#45;1&#45;2&#45;0&#45;&gt;&#45;0&#45;1&#45;2&#45;0&#45;2 -->
<g id="edge17" class="edge">
<title>&#45;0&#45;1&#45;2&#45;0&#45;&gt;&#45;0&#45;1&#45;2&#45;0&#45;2</title>
<path fill="none" stroke="black" d="M934.11,-87.21C939.22,-75.14 946.21,-58.64 952.03,-44.89"/>
<polygon fill="black" stroke="black" points="955.35,-46.04 956.02,-35.47 948.9,-43.31 955.35,-46.04"/>
<text text-anchor="middle" x="963" y="-57.8" font-family="Times,serif" font-size="14.00"> 4/5 </text>
</g>
<!-- &#45;0&#45;1&#45;2&#45;0&#45;0 -->
<g id="node56" class="node">
<title>&#45;0&#45;1&#45;2&#45;0&#45;0</title>
<ellipse fill="none" stroke="black" cx="1035" cy="-18" rx="27" ry="18"/>
<text text-anchor="middle" x="1035" y="-14.3" font-family="Times,serif" font-size="14.00">4</text>
</g>
<!-- &#45;0&#45;1&#45;2&#45;0&#45;&gt;&#45;0&#45;1&#45;2&#45;0&#45;0 -->
<g id="edge15" class="edge">
<title>&#45;0&#45;1&#45;2&#45;0&#45;&gt;&#45;0&#45;1&#45;2&#45;0&#45;0</title>
<path fill="none" stroke="black" d="M947.11,-92.81C958.08,-86.36 971.7,-77.81 983,-69 993.8,-60.58 1004.87,-50.23 1014,-41.13"/>
<polygon fill="black" stroke="black" points="1016.64,-43.43 1021.16,-33.85 1011.65,-38.52 1016.64,-43.43"/>
<text text-anchor="middle" x="1015" y="-57.8" font-family="Times,serif" font-size="14.00"> 0/1 </text>
</g>
<!-- &#45;0&#45;0&#45;1&#45;&gt;&#45;0&#45;0&#45;1&#45;0 -->
<g id="edge53" class="edge">
<title>&#45;0&#45;0&#45;1&#45;&gt;&#45;0&#45;0&#45;1&#45;0</title>
<path fill="none" stroke="black" d="M2057.83,-184.68C2116.65,-169.71 2264.58,-132.07 2332.24,-114.85"/>
<polygon fill="black" stroke="black" points="2333.18,-118.22 2342.01,-112.36 2331.45,-111.44 2333.18,-118.22"/>
<text text-anchor="middle" x="2235" y="-144.8" font-family="Times,serif" font-size="14.00"> 7/5 </text>
</g>
</g>
</svg>
