<?xml version="1.0" encoding="UTF-8" standalone="no"?>
<!DOCTYPE svg PUBLIC "-//W3C//DTD SVG 1.1//EN"
 "http://www.w3.org/Graphics/SVG/1.1/DTD/svg11.dtd">
<!-- Generated by graphviz version 2.42.3 (0)
 -->
<!-- Title: gametree Pages: 1 -->
<svg width="1291pt" height="479pt"
 viewBox="0.00 0.00 1291.00 479.00" xmlns="http://www.w3.org/2000/svg" xmlns:xlink="http://www.w3.org/1999/xlink">
<g id="graph0" class="graph" transform="scale(1 1) rotate(0) translate(4 475)">
<title>gametree</title>
<polygon fill="white" stroke="transparent" points="-4,4 -4,-475 1287,-475 1287,4 -4,4"/>
<!-- &#45;0&#45;0&#45;3&#45;0 -->
<g id="node1" class="node">
<title>&#45;0&#45;0&#45;3&#45;0</title>
<ellipse fill="none" stroke="black" cx="603" cy="-192" rx="27" ry="18"/>
<text text-anchor="middle" x="603" y="-188.3" font-family="Times,serif" font-size="14.00">26</text>
</g>
<!-- &#45;0&#45;0&#45;3&#45;0&#45;1 -->
<g id="node31" class="node">
<title>&#45;0&#45;0&#45;3&#45;0&#45;1</title>
<ellipse fill="none" stroke="black" cx="603" cy="-105" rx="27" ry="18"/>
<text text-anchor="middle" x="603" y="-101.3" font-family="Times,serif" font-size="14.00">11</text>
</g>
<!-- &#45;0&#45;0&#45;3&#45;0&#45;&gt;&#45;0&#45;0&#45;3&#45;0&#45;1 -->
<g id="edge31" class="edge">
<title>&#45;0&#45;0&#45;3&#45;0&#45;&gt;&#45;0&#45;0&#45;3&#45;0&#45;1</title>
<path fill="none" stroke="black" d="M603,-173.8C603,-162.16 603,-146.55 603,-133.24"/>
<polygon fill="black" stroke="black" points="606.5,-133.18 603,-123.18 599.5,-133.18 606.5,-133.18"/>
<text text-anchor="middle" x="619" y="-144.8" font-family="Times,serif" font-size="14.00"> 1/6 </text>
</g>
<!-- &#45;0&#45;0&#45;3&#45;0&#45;0 -->
<g id="node39" class="node">
<title>&#45;0&#45;0&#45;3&#45;0&#45;0</title>
<ellipse fill="none" stroke="black" cx="675" cy="-105" rx="27" ry="18"/>
<text text-anchor="middle" x="675" y="-101.3" font-family="Times,serif" font-size="14.00">13</text>
</g>
<!-- &#45;0&#45;0&#45;3&#45;0&#45;&gt;&#45;0&#45;0&#45;3&#45;0&#45;0 -->
<g id="edge30" class="edge">
<title>&#45;0&#45;0&#45;3&#45;0&#45;&gt;&#45;0&#45;0&#45;3&#45;0&#45;0</title>
<path fill="none" stroke="black" d="M618.66,-176.92C625.21,-170.74 632.74,-163.26 639,-156 645.95,-147.94 652.93,-138.6 658.87,-130.19"/>
<polygon fill="black" stroke="black" points="661.83,-132.06 664.64,-121.85 656.08,-128.08 661.83,-132.06"/>
<text text-anchor="middle" x="667" y="-144.8" font-family="Times,serif" font-size="14.00"> 0/7 </text>
</g>
<!-- &#45;0&#45;1&#45;3&#45;0&#45;1 -->
<g id="node2" class="node">
<title>&#45;0&#45;1&#45;3&#45;0&#45;1</title>
<ellipse fill="none" stroke="black" cx="891" cy="-105" rx="27" ry="18"/>
<text text-anchor="middle" x="891" y="-101.3" font-family="Times,serif" font-size="14.00">1</text>
</g>
<!-- &#45;0&#45;0 -->
<g id="node3" class="node">
<title>&#45;0&#45;0</title>
<ellipse fill="none" stroke="black" cx="495" cy="-366" rx="27" ry="18"/>
<text text-anchor="middle" x="495" y="-362.3" font-family="Times,serif" font-size="14.00">20</text>
</g>
<!-- &#45;0&#45;0&#45;0 -->
<g id="node4" class="node">
<title>&#45;0&#45;0&#45;0</title>
<ellipse fill="none" stroke="black" cx="221" cy="-279" rx="27" ry="18"/>
<text text-anchor="middle" x="221" y="-275.3" font-family="Times,serif" font-size="14.00">7</text>
</g>
<!-- &#45;0&#45;0&#45;&gt;&#45;0&#45;0&#45;0 -->
<g id="edge21" class="edge">
<title>&#45;0&#45;0&#45;&gt;&#45;0&#45;0&#45;0</title>
<path fill="none" stroke="black" d="M470.53,-357.72C447.03,-350.71 410.55,-339.75 379,-330 335.97,-316.7 286.48,-300.97 254.52,-290.75"/>
<polygon fill="black" stroke="black" points="255.38,-287.35 244.79,-287.64 253.25,-294.02 255.38,-287.35"/>
<text text-anchor="middle" x="395" y="-318.8" font-family="Times,serif" font-size="14.00"> 0/7 </text>
</g>
<!-- &#45;0&#45;0&#45;1 -->
<g id="node5" class="node">
<title>&#45;0&#45;0&#45;1</title>
<ellipse fill="none" stroke="black" cx="351" cy="-279" rx="27" ry="18"/>
<text text-anchor="middle" x="351" y="-275.3" font-family="Times,serif" font-size="14.00">5</text>
</g>
<!-- &#45;0&#45;0&#45;&gt;&#45;0&#45;0&#45;1 -->
<g id="edge22" class="edge">
<title>&#45;0&#45;0&#45;&gt;&#45;0&#45;0&#45;1</title>
<path fill="none" stroke="black" d="M475.28,-353.36C450.4,-338.67 407.44,-313.31 379.12,-296.6"/>
<polygon fill="black" stroke="black" points="380.87,-293.57 370.48,-291.5 377.31,-299.6 380.87,-293.57"/>
<text text-anchor="middle" x="448" y="-318.8" font-family="Times,serif" font-size="14.00"> 1/6 </text>
</g>
<!-- &#45;0&#45;0&#45;2 -->
<g id="node27" class="node">
<title>&#45;0&#45;0&#45;2</title>
<ellipse fill="none" stroke="black" cx="495" cy="-279" rx="27" ry="18"/>
<text text-anchor="middle" x="495" y="-275.3" font-family="Times,serif" font-size="14.00">13</text>
</g>
<!-- &#45;0&#45;0&#45;&gt;&#45;0&#45;0&#45;2 -->
<g id="edge23" class="edge">
<title>&#45;0&#45;0&#45;&gt;&#45;0&#45;0&#45;2</title>
<path fill="none" stroke="black" d="M495,-347.8C495,-336.16 495,-320.55 495,-307.24"/>
<polygon fill="black" stroke="black" points="498.5,-307.18 495,-297.18 491.5,-307.18 498.5,-307.18"/>
<text text-anchor="middle" x="511" y="-318.8" font-family="Times,serif" font-size="14.00"> 7/0 </text>
</g>
<!-- &#45;0&#45;0&#45;3 -->
<g id="node41" class="node">
<title>&#45;0&#45;0&#45;3</title>
<ellipse fill="none" stroke="black" cx="567" cy="-279" rx="27" ry="18"/>
<text text-anchor="middle" x="567" y="-275.3" font-family="Times,serif" font-size="14.00">11</text>
</g>
<!-- &#45;0&#45;0&#45;&gt;&#45;0&#45;0&#45;3 -->
<g id="edge24" class="edge">
<title>&#45;0&#45;0&#45;&gt;&#45;0&#45;0&#45;3</title>
<path fill="none" stroke="black" d="M510.66,-350.92C517.21,-344.74 524.74,-337.26 531,-330 537.95,-321.94 544.93,-312.6 550.87,-304.19"/>
<polygon fill="black" stroke="black" points="553.83,-306.06 556.64,-295.85 548.08,-302.08 553.83,-306.06"/>
<text text-anchor="middle" x="559" y="-318.8" font-family="Times,serif" font-size="14.00"> 7/1 </text>
</g>
<!-- &#45;0&#45;0&#45;0&#45;0 -->
<g id="node8" class="node">
<title>&#45;0&#45;0&#45;0&#45;0</title>
<ellipse fill="none" stroke="black" cx="99" cy="-192" rx="27" ry="18"/>
<text text-anchor="middle" x="99" y="-188.3" font-family="Times,serif" font-size="14.00">20</text>
</g>
<!-- &#45;0&#45;0&#45;0&#45;&gt;&#45;0&#45;0&#45;0&#45;0 -->
<g id="edge27" class="edge">
<title>&#45;0&#45;0&#45;0&#45;&gt;&#45;0&#45;0&#45;0&#45;0</title>
<path fill="none" stroke="black" d="M203,-265.46C182.55,-251.21 148.97,-227.82 125.52,-211.48"/>
<polygon fill="black" stroke="black" points="127.28,-208.44 117.08,-205.59 123.28,-214.18 127.28,-208.44"/>
<text text-anchor="middle" x="184" y="-231.8" font-family="Times,serif" font-size="14.00"> 7/1 </text>
</g>
<!-- &#45;0&#45;0&#45;1&#45;0 -->
<g id="node6" class="node">
<title>&#45;0&#45;0&#45;1&#45;0</title>
<ellipse fill="none" stroke="black" cx="243" cy="-192" rx="27" ry="18"/>
<text text-anchor="middle" x="243" y="-188.3" font-family="Times,serif" font-size="14.00">8</text>
</g>
<!-- &#45;0&#45;0&#45;1&#45;&gt;&#45;0&#45;0&#45;1&#45;0 -->
<g id="edge34" class="edge">
<title>&#45;0&#45;0&#45;1&#45;&gt;&#45;0&#45;0&#45;1&#45;0</title>
<path fill="none" stroke="black" d="M334.12,-264.72C316.29,-250.68 287.99,-228.41 267.66,-212.41"/>
<polygon fill="black" stroke="black" points="269.78,-209.62 259.76,-206.19 265.45,-215.12 269.78,-209.62"/>
<text text-anchor="middle" x="320" y="-231.8" font-family="Times,serif" font-size="14.00"> 0/7 </text>
</g>
<!-- &#45;0&#45;0&#45;1&#45;1 -->
<g id="node25" class="node">
<title>&#45;0&#45;0&#45;1&#45;1</title>
<ellipse fill="none" stroke="black" cx="351" cy="-192" rx="27" ry="18"/>
<text text-anchor="middle" x="351" y="-188.3" font-family="Times,serif" font-size="14.00">18</text>
</g>
<!-- &#45;0&#45;0&#45;1&#45;&gt;&#45;0&#45;0&#45;1&#45;1 -->
<g id="edge35" class="edge">
<title>&#45;0&#45;0&#45;1&#45;&gt;&#45;0&#45;0&#45;1&#45;1</title>
<path fill="none" stroke="black" d="M351,-260.8C351,-249.16 351,-233.55 351,-220.24"/>
<polygon fill="black" stroke="black" points="354.5,-220.18 351,-210.18 347.5,-220.18 354.5,-220.18"/>
<text text-anchor="middle" x="367" y="-231.8" font-family="Times,serif" font-size="14.00"> 7/1 </text>
</g>
<!-- &#45;0&#45;0&#45;1&#45;0&#45;0 -->
<g id="node13" class="node">
<title>&#45;0&#45;0&#45;1&#45;0&#45;0</title>
<ellipse fill="none" stroke="black" cx="171" cy="-105" rx="27" ry="18"/>
<text text-anchor="middle" x="171" y="-101.3" font-family="Times,serif" font-size="14.00">1</text>
</g>
<!-- &#45;0&#45;0&#45;1&#45;0&#45;&gt;&#45;0&#45;0&#45;1&#45;0&#45;0 -->
<g id="edge7" class="edge">
<title>&#45;0&#45;0&#45;1&#45;0&#45;&gt;&#45;0&#45;0&#45;1&#45;0&#45;0</title>
<path fill="none" stroke="black" d="M227.34,-176.92C220.79,-170.74 213.26,-163.26 207,-156 200.05,-147.94 193.07,-138.6 187.13,-130.19"/>
<polygon fill="black" stroke="black" points="189.92,-128.08 181.36,-121.85 184.17,-132.06 189.92,-128.08"/>
<text text-anchor="middle" x="223" y="-144.8" font-family="Times,serif" font-size="14.00"> 7/0 </text>
</g>
<!-- &#45;0&#45;0&#45;1&#45;0&#45;1 -->
<g id="node38" class="node">
<title>&#45;0&#45;0&#45;1&#45;0&#45;1</title>
<ellipse fill="none" stroke="black" cx="243" cy="-105" rx="27" ry="18"/>
<text text-anchor="middle" x="243" y="-101.3" font-family="Times,serif" font-size="14.00">&#45;1</text>
</g>
<!-- &#45;0&#45;0&#45;1&#45;0&#45;&gt;&#45;0&#45;0&#45;1&#45;0&#45;1 -->
<g id="edge8" class="edge">
<title>&#45;0&#45;0&#45;1&#45;0&#45;&gt;&#45;0&#45;0&#45;1&#45;0&#45;1</title>
<path fill="none" stroke="black" d="M243,-173.8C243,-162.16 243,-146.55 243,-133.24"/>
<polygon fill="black" stroke="black" points="246.5,-133.18 243,-123.18 239.5,-133.18 246.5,-133.18"/>
<text text-anchor="middle" x="259" y="-144.8" font-family="Times,serif" font-size="14.00"> 7/1 </text>
</g>
<!-- &#45;0 -->
<g id="node7" class="node">
<title>&#45;0</title>
<ellipse fill="none" stroke="black" cx="674" cy="-453" rx="27" ry="18"/>
<text text-anchor="middle" x="674" y="-449.3" font-family="Times,serif" font-size="14.00">7</text>
</g>
<!-- &#45;0&#45;&gt;&#45;0&#45;0 -->
<g id="edge15" class="edge">
<title>&#45;0&#45;&gt;&#45;0&#45;0</title>
<path fill="none" stroke="black" d="M652.41,-441.75C620.74,-426.71 561.56,-398.61 525.47,-381.47"/>
<polygon fill="black" stroke="black" points="526.92,-378.28 516.39,-377.16 523.92,-384.61 526.92,-378.28"/>
<text text-anchor="middle" x="612" y="-405.8" font-family="Times,serif" font-size="14.00"> 4/1 </text>
</g>
<!-- &#45;0&#45;1 -->
<g id="node32" class="node">
<title>&#45;0&#45;1</title>
<ellipse fill="none" stroke="black" cx="880" cy="-366" rx="27" ry="18"/>
<text text-anchor="middle" x="880" y="-362.3" font-family="Times,serif" font-size="14.00">20</text>
</g>
<!-- &#45;0&#45;&gt;&#45;0&#45;1 -->
<g id="edge16" class="edge">
<title>&#45;0&#45;&gt;&#45;0&#45;1</title>
<path fill="none" stroke="black" d="M696.44,-442.74C733.12,-427.6 806.06,-397.51 848.11,-380.16"/>
<polygon fill="black" stroke="black" points="849.68,-383.3 857.59,-376.25 847.01,-376.83 849.68,-383.3"/>
<text text-anchor="middle" x="806" y="-405.8" font-family="Times,serif" font-size="14.00"> 7/1 </text>
</g>
<!-- &#45;0&#45;0&#45;0&#45;0&#45;0 -->
<g id="node36" class="node">
<title>&#45;0&#45;0&#45;0&#45;0&#45;0</title>
<ellipse fill="none" stroke="black" cx="27" cy="-105" rx="27" ry="18"/>
<text text-anchor="middle" x="27" y="-101.3" font-family="Times,serif" font-size="14.00">5</text>
</g>
<!-- &#45;0&#45;0&#45;0&#45;0&#45;&gt;&#45;0&#45;0&#45;0&#45;0&#45;0 -->
<g id="edge5" class="edge">
<title>&#45;0&#45;0&#45;0&#45;0&#45;&gt;&#45;0&#45;0&#45;0&#45;0&#45;0</title>
<path fill="none" stroke="black" d="M83.34,-176.92C76.79,-170.74 69.26,-163.26 63,-156 56.05,-147.94 49.07,-138.6 43.13,-130.19"/>
<polygon fill="black" stroke="black" points="45.92,-128.08 37.36,-121.85 40.17,-132.06 45.92,-128.08"/>
<text text-anchor="middle" x="79" y="-144.8" font-family="Times,serif" font-size="14.00"> 1/6 </text>
</g>
<!-- &#45;0&#45;0&#45;0&#45;0&#45;1 -->
<g id="node37" class="node">
<title>&#45;0&#45;0&#45;0&#45;0&#45;1</title>
<ellipse fill="none" stroke="black" cx="99" cy="-105" rx="27" ry="18"/>
<text text-anchor="middle" x="99" y="-101.3" font-family="Times,serif" font-size="14.00">13</text>
</g>
<!-- &#45;0&#45;0&#45;0&#45;0&#45;&gt;&#45;0&#45;0&#45;0&#45;0&#45;1 -->
<g id="edge6" class="edge">
<title>&#45;0&#45;0&#45;0&#45;0&#45;&gt;&#45;0&#45;0&#45;0&#45;0&#45;1</title>
<path fill="none" stroke="black" d="M99,-173.8C99,-162.16 99,-146.55 99,-133.24"/>
<polygon fill="black" stroke="black" points="102.5,-133.18 99,-123.18 95.5,-133.18 102.5,-133.18"/>
<text text-anchor="middle" x="115" y="-144.8" font-family="Times,serif" font-size="14.00"> 7/0 </text>
</g>
<!-- &#45;0&#45;0&#45;1&#45;1&#45;0 -->
<g id="node9" class="node">
<title>&#45;0&#45;0&#45;1&#45;1&#45;0</title>
<ellipse fill="none" stroke="black" cx="315" cy="-105" rx="27" ry="18"/>
<text text-anchor="middle" x="315" y="-101.3" font-family="Times,serif" font-size="14.00">5</text>
</g>
<!-- &#45;0&#45;1&#45;1&#45;1&#45;0 -->
<g id="node10" class="node">
<title>&#45;0&#45;1&#45;1&#45;1&#45;0</title>
<ellipse fill="none" stroke="black" cx="1035" cy="-105" rx="27" ry="18"/>
<text text-anchor="middle" x="1035" y="-101.3" font-family="Times,serif" font-size="14.00">13</text>
</g>
<!-- &#45;0&#45;0&#45;3&#45;0&#45;1&#45;0 -->
<g id="node11" class="node">
<title>&#45;0&#45;0&#45;3&#45;0&#45;1&#45;0</title>
<ellipse fill="none" stroke="black" cx="603" cy="-18" rx="27" ry="18"/>
<text text-anchor="middle" x="603" y="-14.3" font-family="Times,serif" font-size="14.00">14</text>
</g>
<!-- &#45;0&#45;1&#45;1&#45;0&#45;0 -->
<g id="node12" class="node">
<title>&#45;0&#45;1&#45;1&#45;0&#45;0</title>
<ellipse fill="none" stroke="black" cx="1179" cy="-105" rx="27" ry="18"/>
<text text-anchor="middle" x="1179" y="-101.3" font-family="Times,serif" font-size="14.00">13</text>
</g>
<!-- &#45;0&#45;0&#45;1&#45;0&#45;0&#45;0 -->
<g id="node17" class="node">
<title>&#45;0&#45;0&#45;1&#45;0&#45;0&#45;0</title>
<ellipse fill="none" stroke="black" cx="171" cy="-18" rx="27" ry="18"/>
<text text-anchor="middle" x="171" y="-14.3" font-family="Times,serif" font-size="14.00">14</text>
</g>
<!-- &#45;0&#45;0&#45;1&#45;0&#45;0&#45;&gt;&#45;0&#45;0&#45;1&#45;0&#45;0&#45;0 -->
<g id="edge4" class="edge">
<title>&#45;0&#45;0&#45;1&#45;0&#45;0&#45;&gt;&#45;0&#45;0&#45;1&#45;0&#45;0&#45;0</title>
<path fill="none" stroke="black" d="M171,-86.8C171,-75.16 171,-59.55 171,-46.24"/>
<polygon fill="black" stroke="black" points="174.5,-46.18 171,-36.18 167.5,-46.18 174.5,-46.18"/>
<text text-anchor="middle" x="187" y="-57.8" font-family="Times,serif" font-size="14.00"> 7/1 </text>
</g>
<!-- &#45;0&#45;0&#45;1&#45;0&#45;1&#45;0 -->
<g id="node14" class="node">
<title>&#45;0&#45;0&#45;1&#45;0&#45;1&#45;0</title>
<ellipse fill="none" stroke="black" cx="243" cy="-18" rx="27" ry="18"/>
<text text-anchor="middle" x="243" y="-14.3" font-family="Times,serif" font-size="14.00">14</text>
</g>
<!-- &#45;0&#45;0&#45;2&#45;0 -->
<g id="node15" class="node">
<title>&#45;0&#45;0&#45;2&#45;0</title>
<ellipse fill="none" stroke="black" cx="495" cy="-192" rx="27" ry="18"/>
<text text-anchor="middle" x="495" y="-188.3" font-family="Times,serif" font-size="14.00">26</text>
</g>
<!-- &#45;0&#45;0&#45;2&#45;0&#45;1 -->
<g id="node16" class="node">
<title>&#45;0&#45;0&#45;2&#45;0&#45;1</title>
<ellipse fill="none" stroke="black" cx="459" cy="-105" rx="27" ry="18"/>
<text text-anchor="middle" x="459" y="-101.3" font-family="Times,serif" font-size="14.00">1</text>
</g>
<!-- &#45;0&#45;0&#45;2&#45;0&#45;&gt;&#45;0&#45;0&#45;2&#45;0&#45;1 -->
<g id="edge29" class="edge">
<title>&#45;0&#45;0&#45;2&#45;0&#45;&gt;&#45;0&#45;0&#45;2&#45;0&#45;1</title>
<path fill="none" stroke="black" d="M484.91,-174.99C481.49,-169.15 477.82,-162.41 475,-156 471.73,-148.58 468.8,-140.27 466.37,-132.59"/>
<polygon fill="black" stroke="black" points="469.72,-131.55 463.48,-122.99 463.01,-133.58 469.72,-131.55"/>
<text text-anchor="middle" x="491" y="-144.8" font-family="Times,serif" font-size="14.00"> 1/6 </text>
</g>
<!-- &#45;0&#45;0&#45;2&#45;0&#45;0 -->
<g id="node40" class="node">
<title>&#45;0&#45;0&#45;2&#45;0&#45;0</title>
<ellipse fill="none" stroke="black" cx="531" cy="-105" rx="27" ry="18"/>
<text text-anchor="middle" x="531" y="-101.3" font-family="Times,serif" font-size="14.00">13</text>
</g>
<!-- &#45;0&#45;0&#45;2&#45;0&#45;&gt;&#45;0&#45;0&#45;2&#45;0&#45;0 -->
<g id="edge28" class="edge">
<title>&#45;0&#45;0&#45;2&#45;0&#45;&gt;&#45;0&#45;0&#45;2&#45;0&#45;0</title>
<path fill="none" stroke="black" d="M502.11,-174.21C507.22,-162.14 514.21,-145.64 520.03,-131.89"/>
<polygon fill="black" stroke="black" points="523.35,-133.04 524.02,-122.47 516.9,-130.31 523.35,-133.04"/>
<text text-anchor="middle" x="532" y="-144.8" font-family="Times,serif" font-size="14.00"> 0/7 </text>
</g>
<!-- &#45;0&#45;1&#45;0&#45;0&#45;1 -->
<g id="node18" class="node">
<title>&#45;0&#45;1&#45;0&#45;0&#45;1</title>
<ellipse fill="none" stroke="black" cx="747" cy="-105" rx="27" ry="18"/>
<text text-anchor="middle" x="747" y="-101.3" font-family="Times,serif" font-size="14.00">7</text>
</g>
<!-- &#45;0&#45;1&#45;1&#45;0&#45;1 -->
<g id="node19" class="node">
<title>&#45;0&#45;1&#45;1&#45;0&#45;1</title>
<ellipse fill="none" stroke="black" cx="1251" cy="-105" rx="27" ry="18"/>
<text text-anchor="middle" x="1251" y="-101.3" font-family="Times,serif" font-size="14.00">9</text>
</g>
<!-- &#45;0&#45;1&#45;1&#45;0&#45;1&#45;0 -->
<g id="node23" class="node">
<title>&#45;0&#45;1&#45;1&#45;0&#45;1&#45;0</title>
<ellipse fill="none" stroke="black" cx="1251" cy="-18" rx="27" ry="18"/>
<text text-anchor="middle" x="1251" y="-14.3" font-family="Times,serif" font-size="14.00">20</text>
</g>
<!-- &#45;0&#45;1&#45;1&#45;0&#45;1&#45;&gt;&#45;0&#45;1&#45;1&#45;0&#45;1&#45;0 -->
<g id="edge13" class="edge">
<title>&#45;0&#45;1&#45;1&#45;0&#45;1&#45;&gt;&#45;0&#45;1&#45;1&#45;0&#45;1&#45;0</title>
<path fill="none" stroke="black" d="M1251,-86.8C1251,-75.16 1251,-59.55 1251,-46.24"/>
<polygon fill="black" stroke="black" points="1254.5,-46.18 1251,-36.18 1247.5,-46.18 1254.5,-46.18"/>
<text text-anchor="middle" x="1267" y="-57.8" font-family="Times,serif" font-size="14.00"> 4/1 </text>
</g>
<!-- &#45;0&#45;1&#45;3&#45;0 -->
<g id="node20" class="node">
<title>&#45;0&#45;1&#45;3&#45;0</title>
<ellipse fill="none" stroke="black" cx="952" cy="-192" rx="27" ry="18"/>
<text text-anchor="middle" x="952" y="-188.3" font-family="Times,serif" font-size="14.00">26</text>
</g>
<!-- &#45;0&#45;1&#45;3&#45;0&#45;&gt;&#45;0&#45;1&#45;3&#45;0&#45;1 -->
<g id="edge33" class="edge">
<title>&#45;0&#45;1&#45;3&#45;0&#45;&gt;&#45;0&#45;1&#45;3&#45;0&#45;1</title>
<path fill="none" stroke="black" d="M937.56,-176.62C931.78,-170.52 925.26,-163.17 920,-156 914.31,-148.24 908.81,-139.28 904.16,-131.1"/>
<polygon fill="black" stroke="black" points="907.2,-129.37 899.3,-122.31 901.07,-132.76 907.2,-129.37"/>
<text text-anchor="middle" x="936" y="-144.8" font-family="Times,serif" font-size="14.00"> 1/6 </text>
</g>
<!-- &#45;0&#45;1&#45;3&#45;0&#45;0 -->
<g id="node30" class="node">
<title>&#45;0&#45;1&#45;3&#45;0&#45;0</title>
<ellipse fill="none" stroke="black" cx="963" cy="-105" rx="27" ry="18"/>
<text text-anchor="middle" x="963" y="-101.3" font-family="Times,serif" font-size="14.00">13</text>
</g>
<!-- &#45;0&#45;1&#45;3&#45;0&#45;&gt;&#45;0&#45;1&#45;3&#45;0&#45;0 -->
<g id="edge32" class="edge">
<title>&#45;0&#45;1&#45;3&#45;0&#45;&gt;&#45;0&#45;1&#45;3&#45;0&#45;0</title>
<path fill="none" stroke="black" d="M954.23,-173.8C955.73,-162.16 957.75,-146.55 959.48,-133.24"/>
<polygon fill="black" stroke="black" points="962.96,-133.54 960.78,-123.18 956.02,-132.64 962.96,-133.54"/>
<text text-anchor="middle" x="974" y="-144.8" font-family="Times,serif" font-size="14.00"> 0/7 </text>
</g>
<!-- &#45;0&#45;1&#45;0&#45;0 -->
<g id="node21" class="node">
<title>&#45;0&#45;1&#45;0&#45;0</title>
<ellipse fill="none" stroke="black" cx="808" cy="-192" rx="27" ry="18"/>
<text text-anchor="middle" x="808" y="-188.3" font-family="Times,serif" font-size="14.00">14</text>
</g>
<!-- &#45;0&#45;1&#45;0&#45;0&#45;&gt;&#45;0&#45;1&#45;0&#45;0&#45;1 -->
<g id="edge3" class="edge">
<title>&#45;0&#45;1&#45;0&#45;0&#45;&gt;&#45;0&#45;1&#45;0&#45;0&#45;1</title>
<path fill="none" stroke="black" d="M794.09,-176.52C788.51,-170.4 782.18,-163.07 777,-156 771.26,-148.17 765.61,-139.19 760.79,-131.02"/>
<polygon fill="black" stroke="black" points="763.76,-129.16 755.74,-122.24 757.69,-132.66 763.76,-129.16"/>
<text text-anchor="middle" x="793" y="-144.8" font-family="Times,serif" font-size="14.00"> 7/0 </text>
</g>
<!-- &#45;0&#45;1&#45;0&#45;0&#45;0 -->
<g id="node22" class="node">
<title>&#45;0&#45;1&#45;0&#45;0&#45;0</title>
<ellipse fill="none" stroke="black" cx="819" cy="-105" rx="27" ry="18"/>
<text text-anchor="middle" x="819" y="-101.3" font-family="Times,serif" font-size="14.00">5</text>
</g>
<!-- &#45;0&#45;1&#45;0&#45;0&#45;&gt;&#45;0&#45;1&#45;0&#45;0&#45;0 -->
<g id="edge2" class="edge">
<title>&#45;0&#45;1&#45;0&#45;0&#45;&gt;&#45;0&#45;1&#45;0&#45;0&#45;0</title>
<path fill="none" stroke="black" d="M810.23,-173.8C811.73,-162.16 813.75,-146.55 815.48,-133.24"/>
<polygon fill="black" stroke="black" points="818.96,-133.54 816.78,-123.18 812.02,-132.64 818.96,-133.54"/>
<text text-anchor="middle" x="831" y="-144.8" font-family="Times,serif" font-size="14.00"> 1/6 </text>
</g>
<!-- &#45;0&#45;1&#45;1&#45;1 -->
<g id="node24" class="node">
<title>&#45;0&#45;1&#45;1&#45;1</title>
<ellipse fill="none" stroke="black" cx="1046" cy="-192" rx="27" ry="18"/>
<text text-anchor="middle" x="1046" y="-188.3" font-family="Times,serif" font-size="14.00">26</text>
</g>
<!-- &#45;0&#45;1&#45;1&#45;1&#45;&gt;&#45;0&#45;1&#45;1&#45;1&#45;0 -->
<g id="edge19" class="edge">
<title>&#45;0&#45;1&#45;1&#45;1&#45;&gt;&#45;0&#45;1&#45;1&#45;1&#45;0</title>
<path fill="none" stroke="black" d="M1043.77,-173.8C1042.27,-162.16 1040.25,-146.55 1038.52,-133.24"/>
<polygon fill="black" stroke="black" points="1041.98,-132.64 1037.22,-123.18 1035.04,-133.54 1041.98,-132.64"/>
<text text-anchor="middle" x="1057" y="-144.8" font-family="Times,serif" font-size="14.00"> 0/7 </text>
</g>
<!-- &#45;0&#45;1&#45;1&#45;1&#45;1 -->
<g id="node34" class="node">
<title>&#45;0&#45;1&#45;1&#45;1&#45;1</title>
<ellipse fill="none" stroke="black" cx="1107" cy="-105" rx="27" ry="18"/>
<text text-anchor="middle" x="1107" y="-101.3" font-family="Times,serif" font-size="14.00">13</text>
</g>
<!-- &#45;0&#45;1&#45;1&#45;1&#45;&gt;&#45;0&#45;1&#45;1&#45;1&#45;1 -->
<g id="edge20" class="edge">
<title>&#45;0&#45;1&#45;1&#45;1&#45;&gt;&#45;0&#45;1&#45;1&#45;1&#45;1</title>
<path fill="none" stroke="black" d="M1059.91,-176.52C1065.49,-170.4 1071.82,-163.07 1077,-156 1082.74,-148.17 1088.39,-139.19 1093.21,-131.02"/>
<polygon fill="black" stroke="black" points="1096.31,-132.66 1098.26,-122.24 1090.24,-129.16 1096.31,-132.66"/>
<text text-anchor="middle" x="1102" y="-144.8" font-family="Times,serif" font-size="14.00"> 7/0 </text>
</g>
<!-- &#45;0&#45;0&#45;1&#45;1&#45;&gt;&#45;0&#45;0&#45;1&#45;1&#45;0 -->
<g id="edge40" class="edge">
<title>&#45;0&#45;0&#45;1&#45;1&#45;&gt;&#45;0&#45;0&#45;1&#45;1&#45;0</title>
<path fill="none" stroke="black" d="M342.13,-174.83C339.07,-168.98 335.73,-162.27 333,-156 329.72,-148.47 326.55,-140.13 323.8,-132.46"/>
<polygon fill="black" stroke="black" points="327.06,-131.17 320.47,-122.88 320.45,-133.47 327.06,-131.17"/>
<text text-anchor="middle" x="349" y="-144.8" font-family="Times,serif" font-size="14.00"> 0/7 </text>
</g>
<!-- &#45;0&#45;0&#45;1&#45;1&#45;1 -->
<g id="node26" class="node">
<title>&#45;0&#45;0&#45;1&#45;1&#45;1</title>
<ellipse fill="none" stroke="black" cx="387" cy="-105" rx="27" ry="18"/>
<text text-anchor="middle" x="387" y="-101.3" font-family="Times,serif" font-size="14.00">1</text>
</g>
<!-- &#45;0&#45;0&#45;1&#45;1&#45;&gt;&#45;0&#45;0&#45;1&#45;1&#45;1 -->
<g id="edge41" class="edge">
<title>&#45;0&#45;0&#45;1&#45;1&#45;&gt;&#45;0&#45;0&#45;1&#45;1&#45;1</title>
<path fill="none" stroke="black" d="M358.11,-174.21C363.22,-162.14 370.21,-145.64 376.03,-131.89"/>
<polygon fill="black" stroke="black" points="379.35,-133.04 380.02,-122.47 372.9,-130.31 379.35,-133.04"/>
<text text-anchor="middle" x="388" y="-144.8" font-family="Times,serif" font-size="14.00"> 7/0 </text>
</g>
<!-- &#45;0&#45;0&#45;2&#45;&gt;&#45;0&#45;0&#45;2&#45;0 -->
<g id="edge36" class="edge">
<title>&#45;0&#45;0&#45;2&#45;&gt;&#45;0&#45;0&#45;2&#45;0</title>
<path fill="none" stroke="black" d="M495,-260.8C495,-249.16 495,-233.55 495,-220.24"/>
<polygon fill="black" stroke="black" points="498.5,-220.18 495,-210.18 491.5,-220.18 498.5,-220.18"/>
<text text-anchor="middle" x="511" y="-231.8" font-family="Times,serif" font-size="14.00"> 7/1 </text>
</g>
<!-- &#45;0&#45;1&#45;0 -->
<g id="node28" class="node">
<title>&#45;0&#45;1&#45;0</title>
<ellipse fill="none" stroke="black" cx="808" cy="-279" rx="27" ry="18"/>
<text text-anchor="middle" x="808" y="-275.3" font-family="Times,serif" font-size="14.00">7</text>
</g>
<!-- &#45;0&#45;1&#45;0&#45;&gt;&#45;0&#45;1&#45;0&#45;0 -->
<g id="edge26" class="edge">
<title>&#45;0&#45;1&#45;0&#45;&gt;&#45;0&#45;1&#45;0&#45;0</title>
<path fill="none" stroke="black" d="M808,-260.8C808,-249.16 808,-233.55 808,-220.24"/>
<polygon fill="black" stroke="black" points="811.5,-220.18 808,-210.18 804.5,-220.18 811.5,-220.18"/>
<text text-anchor="middle" x="824" y="-231.8" font-family="Times,serif" font-size="14.00"> 4/1 </text>
</g>
<!-- &#45;0&#45;1&#45;2 -->
<g id="node29" class="node">
<title>&#45;0&#45;1&#45;2</title>
<ellipse fill="none" stroke="black" cx="880" cy="-279" rx="27" ry="18"/>
<text text-anchor="middle" x="880" y="-275.3" font-family="Times,serif" font-size="14.00">17</text>
</g>
<!-- &#45;0&#45;0&#45;3&#45;0&#45;1&#45;&gt;&#45;0&#45;0&#45;3&#45;0&#45;1&#45;0 -->
<g id="edge37" class="edge">
<title>&#45;0&#45;0&#45;3&#45;0&#45;1&#45;&gt;&#45;0&#45;0&#45;3&#45;0&#45;1&#45;0</title>
<path fill="none" stroke="black" d="M603,-86.8C603,-75.16 603,-59.55 603,-46.24"/>
<polygon fill="black" stroke="black" points="606.5,-46.18 603,-36.18 599.5,-46.18 606.5,-46.18"/>
<text text-anchor="middle" x="619" y="-57.8" font-family="Times,serif" font-size="14.00"> 0/7 </text>
</g>
<!-- &#45;0&#45;1&#45;&gt;&#45;0&#45;1&#45;0 -->
<g id="edge9" class="edge">
<title>&#45;0&#45;1&#45;&gt;&#45;0&#45;1&#45;0</title>
<path fill="none" stroke="black" d="M864.34,-350.92C857.79,-344.74 850.26,-337.26 844,-330 837.05,-321.94 830.07,-312.6 824.13,-304.19"/>
<polygon fill="black" stroke="black" points="826.92,-302.08 818.36,-295.85 821.17,-306.06 826.92,-302.08"/>
<text text-anchor="middle" x="860" y="-318.8" font-family="Times,serif" font-size="14.00"> 0/7 </text>
</g>
<!-- &#45;0&#45;1&#45;&gt;&#45;0&#45;1&#45;2 -->
<g id="edge11" class="edge">
<title>&#45;0&#45;1&#45;&gt;&#45;0&#45;1&#45;2</title>
<path fill="none" stroke="black" d="M880,-347.8C880,-336.16 880,-320.55 880,-307.24"/>
<polygon fill="black" stroke="black" points="883.5,-307.18 880,-297.18 876.5,-307.18 883.5,-307.18"/>
<text text-anchor="middle" x="896" y="-318.8" font-family="Times,serif" font-size="14.00"> 4/1 </text>
</g>
<!-- &#45;0&#45;1&#45;3 -->
<g id="node35" class="node">
<title>&#45;0&#45;1&#45;3</title>
<ellipse fill="none" stroke="black" cx="952" cy="-279" rx="27" ry="18"/>
<text text-anchor="middle" x="952" y="-275.3" font-family="Times,serif" font-size="14.00">11</text>
</g>
<!-- &#45;0&#45;1&#45;&gt;&#45;0&#45;1&#45;3 -->
<g id="edge12" class="edge">
<title>&#45;0&#45;1&#45;&gt;&#45;0&#45;1&#45;3</title>
<path fill="none" stroke="black" d="M895.66,-350.92C902.21,-344.74 909.74,-337.26 916,-330 922.95,-321.94 929.93,-312.6 935.87,-304.19"/>
<polygon fill="black" stroke="black" points="938.83,-306.06 941.64,-295.85 933.08,-302.08 938.83,-306.06"/>
<text text-anchor="middle" x="944" y="-318.8" font-family="Times,serif" font-size="14.00"> 7/0 </text>
</g>
<!-- &#45;0&#45;1&#45;1 -->
<g id="node42" class="node">
<title>&#45;0&#45;1&#45;1</title>
<ellipse fill="none" stroke="black" cx="1046" cy="-279" rx="27" ry="18"/>
<text text-anchor="middle" x="1046" y="-275.3" font-family="Times,serif" font-size="14.00">5</text>
</g>
<!-- &#45;0&#45;1&#45;&gt;&#45;0&#45;1&#45;1 -->
<g id="edge10" class="edge">
<title>&#45;0&#45;1&#45;&gt;&#45;0&#45;1&#45;1</title>
<path fill="none" stroke="black" d="M903.24,-356.42C920.35,-349.84 944.01,-340.18 964,-330 982.88,-320.38 1003.22,-307.99 1018.92,-297.96"/>
<polygon fill="black" stroke="black" points="1021.08,-300.72 1027.58,-292.35 1017.28,-294.85 1021.08,-300.72"/>
<text text-anchor="middle" x="1005" y="-318.8" font-family="Times,serif" font-size="14.00"> 1/6 </text>
</g>
<!-- &#45;0&#45;1&#45;1&#45;0 -->
<g id="node33" class="node">
<title>&#45;0&#45;1&#45;1&#45;0</title>
<ellipse fill="none" stroke="black" cx="1179" cy="-192" rx="27" ry="18"/>
<text text-anchor="middle" x="1179" y="-188.3" font-family="Times,serif" font-size="14.00">16</text>
</g>
<!-- &#45;0&#45;1&#45;1&#45;0&#45;&gt;&#45;0&#45;1&#45;1&#45;0&#45;0 -->
<g id="edge38" class="edge">
<title>&#45;0&#45;1&#45;1&#45;0&#45;&gt;&#45;0&#45;1&#45;1&#45;0&#45;0</title>
<path fill="none" stroke="black" d="M1179,-173.8C1179,-162.16 1179,-146.55 1179,-133.24"/>
<polygon fill="black" stroke="black" points="1182.5,-133.18 1179,-123.18 1175.5,-133.18 1182.5,-133.18"/>
<text text-anchor="middle" x="1195" y="-144.8" font-family="Times,serif" font-size="14.00"> 4/1 </text>
</g>
<!-- &#45;0&#45;1&#45;1&#45;0&#45;&gt;&#45;0&#45;1&#45;1&#45;0&#45;1 -->
<g id="edge39" class="edge">
<title>&#45;0&#45;1&#45;1&#45;0&#45;&gt;&#45;0&#45;1&#45;1&#45;0&#45;1</title>
<path fill="none" stroke="black" d="M1194.66,-176.92C1201.21,-170.74 1208.74,-163.26 1215,-156 1221.95,-147.94 1228.93,-138.6 1234.87,-130.19"/>
<polygon fill="black" stroke="black" points="1237.83,-132.06 1240.64,-121.85 1232.08,-128.08 1237.83,-132.06"/>
<text text-anchor="middle" x="1242" y="-144.8" font-family="Times,serif" font-size="14.00"> 7/0 </text>
</g>
<!-- &#45;0&#45;1&#45;3&#45;&gt;&#45;0&#45;1&#45;3&#45;0 -->
<g id="edge14" class="edge">
<title>&#45;0&#45;1&#45;3&#45;&gt;&#45;0&#45;1&#45;3&#45;0</title>
<path fill="none" stroke="black" d="M952,-260.8C952,-249.16 952,-233.55 952,-220.24"/>
<polygon fill="black" stroke="black" points="955.5,-220.18 952,-210.18 948.5,-220.18 955.5,-220.18"/>
<text text-anchor="middle" x="968" y="-231.8" font-family="Times,serif" font-size="14.00"> 4/1 </text>
</g>
<!-- &#45;0&#45;0&#45;1&#45;0&#45;1&#45;&gt;&#45;0&#45;0&#45;1&#45;0&#45;1&#45;0 -->
<g id="edge1" class="edge">
<title>&#45;0&#45;0&#45;1&#45;0&#45;1&#45;&gt;&#45;0&#45;0&#45;1&#45;0&#45;1&#45;0</title>
<path fill="none" stroke="black" d="M243,-86.8C243,-75.16 243,-59.55 243,-46.24"/>
<polygon fill="black" stroke="black" points="246.5,-46.18 243,-36.18 239.5,-46.18 246.5,-46.18"/>
<text text-anchor="middle" x="259" y="-57.8" font-family="Times,serif" font-size="14.00"> 7/0 </text>
</g>
<!-- &#45;0&#45;0&#45;3&#45;&gt;&#45;0&#45;0&#45;3&#45;0 -->
<g id="edge25" class="edge">
<title>&#45;0&#45;0&#45;3&#45;&gt;&#45;0&#45;0&#45;3&#45;0</title>
<path fill="none" stroke="black" d="M574.11,-261.21C579.22,-249.14 586.21,-232.64 592.03,-218.89"/>
<polygon fill="black" stroke="black" points="595.35,-220.04 596.02,-209.47 588.9,-217.31 595.35,-220.04"/>
<text text-anchor="middle" x="604" y="-231.8" font-family="Times,serif" font-size="14.00"> 7/0 </text>
</g>
<!-- &#45;0&#45;1&#45;1&#45;&gt;&#45;0&#45;1&#45;1&#45;1 -->
<g id="edge18" class="edge">
<title>&#45;0&#45;1&#45;1&#45;&gt;&#45;0&#45;1&#45;1&#45;1</title>
<path fill="none" stroke="black" d="M1046,-260.8C1046,-249.16 1046,-233.55 1046,-220.24"/>
<polygon fill="black" stroke="black" points="1049.5,-220.18 1046,-210.18 1042.5,-220.18 1049.5,-220.18"/>
<text text-anchor="middle" x="1062" y="-231.8" font-family="Times,serif" font-size="14.00"> 4/1 </text>
</g>
<!-- &#45;0&#45;1&#45;1&#45;&gt;&#45;0&#45;1&#45;1&#45;0 -->
<g id="edge17" class="edge">
<title>&#45;0&#45;1&#45;1&#45;&gt;&#45;0&#45;1&#45;1&#45;0</title>
<path fill="none" stroke="black" d="M1064.77,-266C1087.32,-251.59 1125.34,-227.3 1151.27,-210.72"/>
<polygon fill="black" stroke="black" points="1153.35,-213.55 1159.89,-205.21 1149.58,-207.65 1153.35,-213.55"/>
<text text-anchor="middle" x="1136" y="-231.8" font-family="Times,serif" font-size="14.00"> 0/7 </text>
</g>
</g>
</svg>
