<?xml version="1.0" encoding="UTF-8" standalone="no"?>
<!DOCTYPE svg PUBLIC "-//W3C//DTD SVG 1.1//EN"
 "http://www.w3.org/Graphics/SVG/1.1/DTD/svg11.dtd">
<!-- Generated by graphviz version 2.42.3 (0)
 -->
<!-- Title: gametree Pages: 1 -->
<svg width="854pt" height="305pt"
 viewBox="0.00 0.00 854.00 305.00" xmlns="http://www.w3.org/2000/svg" xmlns:xlink="http://www.w3.org/1999/xlink">
<g id="graph0" class="graph" transform="scale(1 1) rotate(0) translate(4 301)">
<title>gametree</title>
<polygon fill="white" stroke="transparent" points="-4,4 -4,-301 850,-301 850,4 -4,4"/>
<!-- &#45;0&#45;1 -->
<g id="node1" class="node">
<title>&#45;0&#45;1</title>
<ellipse fill="none" stroke="black" cx="352" cy="-192" rx="27" ry="18"/>
<text text-anchor="middle" x="352" y="-188.3" font-family="Times,serif" font-size="14.00">&#45;21</text>
</g>
<!-- &#45;0&#45;1&#45;0 -->
<g id="node2" class="node">
<title>&#45;0&#45;1&#45;0</title>
<ellipse fill="none" stroke="black" cx="99" cy="-105" rx="27" ry="18"/>
<text text-anchor="middle" x="99" y="-101.3" font-family="Times,serif" font-size="14.00">&#45;10</text>
</g>
<!-- &#45;0&#45;1&#45;&gt;&#45;0&#45;1&#45;0 -->
<g id="edge3" class="edge">
<title>&#45;0&#45;1&#45;&gt;&#45;0&#45;1&#45;0</title>
<path fill="none" stroke="black" d="M327.65,-183.99C304.3,-177.17 268.09,-166.35 237,-156 200.61,-143.88 159.31,-128.73 131.45,-118.3"/>
<polygon fill="black" stroke="black" points="132.42,-114.92 121.82,-114.68 129.96,-121.48 132.42,-114.92"/>
<text text-anchor="middle" x="253" y="-144.8" font-family="Times,serif" font-size="14.00"> 0/1 </text>
</g>
<!-- &#45;0&#45;1&#45;2 -->
<g id="node8" class="node">
<title>&#45;0&#45;1&#45;2</title>
<ellipse fill="none" stroke="black" cx="243" cy="-105" rx="27" ry="18"/>
<text text-anchor="middle" x="243" y="-101.3" font-family="Times,serif" font-size="14.00">&#45;12</text>
</g>
<!-- &#45;0&#45;1&#45;&gt;&#45;0&#45;1&#45;2 -->
<g id="edge5" class="edge">
<title>&#45;0&#45;1&#45;&gt;&#45;0&#45;1&#45;2</title>
<path fill="none" stroke="black" d="M330.23,-181.08C317.58,-174.8 301.68,-165.99 289,-156 278.97,-148.1 269.19,-137.94 261.25,-128.84"/>
<polygon fill="black" stroke="black" points="263.92,-126.57 254.78,-121.2 258.57,-131.1 263.92,-126.57"/>
<text text-anchor="middle" x="305" y="-144.8" font-family="Times,serif" font-size="14.00"> 0/7 </text>
</g>
<!-- &#45;0&#45;1&#45;4 -->
<g id="node10" class="node">
<title>&#45;0&#45;1&#45;4</title>
<ellipse fill="none" stroke="black" cx="315" cy="-105" rx="27" ry="18"/>
<text text-anchor="middle" x="315" y="-101.3" font-family="Times,serif" font-size="14.00">&#45;12</text>
</g>
<!-- &#45;0&#45;1&#45;&gt;&#45;0&#45;1&#45;4 -->
<g id="edge7" class="edge">
<title>&#45;0&#45;1&#45;&gt;&#45;0&#45;1&#45;4</title>
<path fill="none" stroke="black" d="M341.58,-175.39C337.92,-169.48 333.98,-162.58 331,-156 327.65,-148.61 324.7,-140.32 322.27,-132.64"/>
<polygon fill="black" stroke="black" points="325.62,-131.6 319.39,-123.03 318.91,-133.61 325.62,-131.6"/>
<text text-anchor="middle" x="347" y="-144.8" font-family="Times,serif" font-size="14.00"> 4/5 </text>
</g>
<!-- &#45;0&#45;1&#45;3 -->
<g id="node18" class="node">
<title>&#45;0&#45;1&#45;3</title>
<ellipse fill="none" stroke="black" cx="387" cy="-105" rx="27" ry="18"/>
<text text-anchor="middle" x="387" y="-101.3" font-family="Times,serif" font-size="14.00">&#45;10</text>
</g>
<!-- &#45;0&#45;1&#45;&gt;&#45;0&#45;1&#45;3 -->
<g id="edge6" class="edge">
<title>&#45;0&#45;1&#45;&gt;&#45;0&#45;1&#45;3</title>
<path fill="none" stroke="black" d="M358.91,-174.21C363.88,-162.14 370.68,-145.64 376.34,-131.89"/>
<polygon fill="black" stroke="black" points="379.65,-133.05 380.22,-122.47 373.17,-130.38 379.65,-133.05"/>
<text text-anchor="middle" x="387" y="-144.8" font-family="Times,serif" font-size="14.00"> 2/0 </text>
</g>
<!-- &#45;0&#45;1&#45;1 -->
<g id="node23" class="node">
<title>&#45;0&#45;1&#45;1</title>
<ellipse fill="none" stroke="black" cx="459" cy="-105" rx="27" ry="18"/>
<text text-anchor="middle" x="459" y="-101.3" font-family="Times,serif" font-size="14.00">&#45;16</text>
</g>
<!-- &#45;0&#45;1&#45;&gt;&#45;0&#45;1&#45;1 -->
<g id="edge4" class="edge">
<title>&#45;0&#45;1&#45;&gt;&#45;0&#45;1&#45;1</title>
<path fill="none" stroke="black" d="M371.99,-179.6C382.72,-173.16 395.97,-164.67 407,-156 417.77,-147.53 428.83,-137.17 437.96,-128.09"/>
<polygon fill="black" stroke="black" points="440.6,-130.4 445.14,-120.82 435.62,-125.48 440.6,-130.4"/>
<text text-anchor="middle" x="439" y="-144.8" font-family="Times,serif" font-size="14.00"> 0/6 </text>
</g>
<!-- &#45;0&#45;1&#45;0&#45;0 -->
<g id="node16" class="node">
<title>&#45;0&#45;1&#45;0&#45;0</title>
<ellipse fill="none" stroke="black" cx="27" cy="-18" rx="27" ry="18"/>
<text text-anchor="middle" x="27" y="-14.3" font-family="Times,serif" font-size="14.00">&#45;19</text>
</g>
<!-- &#45;0&#45;1&#45;0&#45;&gt;&#45;0&#45;1&#45;0&#45;0 -->
<g id="edge12" class="edge">
<title>&#45;0&#45;1&#45;0&#45;&gt;&#45;0&#45;1&#45;0&#45;0</title>
<path fill="none" stroke="black" d="M83.34,-89.92C76.79,-83.74 69.26,-76.26 63,-69 56.05,-60.94 49.07,-51.6 43.13,-43.19"/>
<polygon fill="black" stroke="black" points="45.92,-41.08 37.36,-34.85 40.17,-45.06 45.92,-41.08"/>
<text text-anchor="middle" x="79" y="-57.8" font-family="Times,serif" font-size="14.00"> 0/7 </text>
</g>
<!-- &#45;0&#45;1&#45;0&#45;1 -->
<g id="node17" class="node">
<title>&#45;0&#45;1&#45;0&#45;1</title>
<ellipse fill="none" stroke="black" cx="99" cy="-18" rx="27" ry="18"/>
<text text-anchor="middle" x="99" y="-14.3" font-family="Times,serif" font-size="14.00">&#45;17</text>
</g>
<!-- &#45;0&#45;1&#45;0&#45;&gt;&#45;0&#45;1&#45;0&#45;1 -->
<g id="edge13" class="edge">
<title>&#45;0&#45;1&#45;0&#45;&gt;&#45;0&#45;1&#45;0&#45;1</title>
<path fill="none" stroke="black" d="M99,-86.8C99,-75.16 99,-59.55 99,-46.24"/>
<polygon fill="black" stroke="black" points="102.5,-46.18 99,-36.18 95.5,-46.18 102.5,-46.18"/>
<text text-anchor="middle" x="115" y="-57.8" font-family="Times,serif" font-size="14.00"> 2/0 </text>
</g>
<!-- &#45;0&#45;1&#45;1&#45;0 -->
<g id="node3" class="node">
<title>&#45;0&#45;1&#45;1&#45;0</title>
<ellipse fill="none" stroke="black" cx="459" cy="-18" rx="27" ry="18"/>
<text text-anchor="middle" x="459" y="-14.3" font-family="Times,serif" font-size="14.00">&#45;29</text>
</g>
<!-- &#45;0&#45;1&#45;2&#45;1 -->
<g id="node4" class="node">
<title>&#45;0&#45;1&#45;2&#45;1</title>
<ellipse fill="none" stroke="black" cx="171" cy="-18" rx="27" ry="18"/>
<text text-anchor="middle" x="171" y="-14.3" font-family="Times,serif" font-size="14.00">&#45;17</text>
</g>
<!-- &#45;0&#45;1&#45;3&#45;0 -->
<g id="node5" class="node">
<title>&#45;0&#45;1&#45;3&#45;0</title>
<ellipse fill="none" stroke="black" cx="387" cy="-18" rx="27" ry="18"/>
<text text-anchor="middle" x="387" y="-14.3" font-family="Times,serif" font-size="14.00">&#45;19</text>
</g>
<!-- &#45;0&#45;0&#45;3&#45;0 -->
<g id="node6" class="node">
<title>&#45;0&#45;0&#45;3&#45;0</title>
<ellipse fill="none" stroke="black" cx="675" cy="-18" rx="27" ry="18"/>
<text text-anchor="middle" x="675" y="-14.3" font-family="Times,serif" font-size="14.00">&#45;23</text>
</g>
<!-- &#45;0&#45;0 -->
<g id="node7" class="node">
<title>&#45;0&#45;0</title>
<ellipse fill="none" stroke="black" cx="603" cy="-192" rx="27" ry="18"/>
<text text-anchor="middle" x="603" y="-188.3" font-family="Times,serif" font-size="14.00">&#45;21</text>
</g>
<!-- &#45;0&#45;0&#45;1 -->
<g id="node12" class="node">
<title>&#45;0&#45;0&#45;1</title>
<ellipse fill="none" stroke="black" cx="531" cy="-105" rx="27" ry="18"/>
<text text-anchor="middle" x="531" y="-101.3" font-family="Times,serif" font-size="14.00">&#45;16</text>
</g>
<!-- &#45;0&#45;0&#45;&gt;&#45;0&#45;0&#45;1 -->
<g id="edge19" class="edge">
<title>&#45;0&#45;0&#45;&gt;&#45;0&#45;0&#45;1</title>
<path fill="none" stroke="black" d="M587.34,-176.92C580.79,-170.74 573.26,-163.26 567,-156 560.05,-147.94 553.07,-138.6 547.13,-130.19"/>
<polygon fill="black" stroke="black" points="549.92,-128.08 541.36,-121.85 544.17,-132.06 549.92,-128.08"/>
<text text-anchor="middle" x="583" y="-144.8" font-family="Times,serif" font-size="14.00"> 0/6 </text>
</g>
<!-- &#45;0&#45;0&#45;2 -->
<g id="node14" class="node">
<title>&#45;0&#45;0&#45;2</title>
<ellipse fill="none" stroke="black" cx="603" cy="-105" rx="27" ry="18"/>
<text text-anchor="middle" x="603" y="-101.3" font-family="Times,serif" font-size="14.00">&#45;8</text>
</g>
<!-- &#45;0&#45;0&#45;&gt;&#45;0&#45;0&#45;2 -->
<g id="edge20" class="edge">
<title>&#45;0&#45;0&#45;&gt;&#45;0&#45;0&#45;2</title>
<path fill="none" stroke="black" d="M603,-173.8C603,-162.16 603,-146.55 603,-133.24"/>
<polygon fill="black" stroke="black" points="606.5,-133.18 603,-123.18 599.5,-133.18 606.5,-133.18"/>
<text text-anchor="middle" x="619" y="-144.8" font-family="Times,serif" font-size="14.00"> 2/0 </text>
</g>
<!-- &#45;0&#45;0&#45;3 -->
<g id="node22" class="node">
<title>&#45;0&#45;0&#45;3</title>
<ellipse fill="none" stroke="black" cx="675" cy="-105" rx="27" ry="18"/>
<text text-anchor="middle" x="675" y="-101.3" font-family="Times,serif" font-size="14.00">&#45;10</text>
</g>
<!-- &#45;0&#45;0&#45;&gt;&#45;0&#45;0&#45;3 -->
<g id="edge21" class="edge">
<title>&#45;0&#45;0&#45;&gt;&#45;0&#45;0&#45;3</title>
<path fill="none" stroke="black" d="M618.66,-176.92C625.21,-170.74 632.74,-163.26 639,-156 645.95,-147.94 652.93,-138.6 658.87,-130.19"/>
<polygon fill="black" stroke="black" points="661.83,-132.06 664.64,-121.85 656.08,-128.08 661.83,-132.06"/>
<text text-anchor="middle" x="666" y="-144.8" font-family="Times,serif" font-size="14.00"> 4/5 </text>
</g>
<!-- &#45;0&#45;0&#45;0 -->
<g id="node24" class="node">
<title>&#45;0&#45;0&#45;0</title>
<ellipse fill="none" stroke="black" cx="747" cy="-105" rx="27" ry="18"/>
<text text-anchor="middle" x="747" y="-101.3" font-family="Times,serif" font-size="14.00">&#45;10</text>
</g>
<!-- &#45;0&#45;0&#45;&gt;&#45;0&#45;0&#45;0 -->
<g id="edge18" class="edge">
<title>&#45;0&#45;0&#45;&gt;&#45;0&#45;0&#45;0</title>
<path fill="none" stroke="black" d="M626.77,-183.05C643.86,-176.85 667.12,-167.39 686,-156 699.59,-147.8 713.37,-136.78 724.39,-127.17"/>
<polygon fill="black" stroke="black" points="726.75,-129.76 731.88,-120.49 722.09,-124.53 726.75,-129.76"/>
<text text-anchor="middle" x="723" y="-144.8" font-family="Times,serif" font-size="14.00"> 0/1 </text>
</g>
<!-- &#45;0&#45;1&#45;2&#45;&gt;&#45;0&#45;1&#45;2&#45;1 -->
<g id="edge23" class="edge">
<title>&#45;0&#45;1&#45;2&#45;&gt;&#45;0&#45;1&#45;2&#45;1</title>
<path fill="none" stroke="black" d="M227.34,-89.92C220.79,-83.74 213.26,-76.26 207,-69 200.05,-60.94 193.07,-51.6 187.13,-43.19"/>
<polygon fill="black" stroke="black" points="189.92,-41.08 181.36,-34.85 184.17,-45.06 189.92,-41.08"/>
<text text-anchor="middle" x="223" y="-57.8" font-family="Times,serif" font-size="14.00"> 4/5 </text>
</g>
<!-- &#45;0&#45;1&#45;2&#45;0 -->
<g id="node9" class="node">
<title>&#45;0&#45;1&#45;2&#45;0</title>
<ellipse fill="none" stroke="black" cx="243" cy="-18" rx="27" ry="18"/>
<text text-anchor="middle" x="243" y="-14.3" font-family="Times,serif" font-size="14.00">&#45;17</text>
</g>
<!-- &#45;0&#45;1&#45;2&#45;&gt;&#45;0&#45;1&#45;2&#45;0 -->
<g id="edge22" class="edge">
<title>&#45;0&#45;1&#45;2&#45;&gt;&#45;0&#45;1&#45;2&#45;0</title>
<path fill="none" stroke="black" d="M243,-86.8C243,-75.16 243,-59.55 243,-46.24"/>
<polygon fill="black" stroke="black" points="246.5,-46.18 243,-36.18 239.5,-46.18 246.5,-46.18"/>
<text text-anchor="middle" x="259" y="-57.8" font-family="Times,serif" font-size="14.00"> 0/6 </text>
</g>
<!-- &#45;0&#45;1&#45;4&#45;0 -->
<g id="node20" class="node">
<title>&#45;0&#45;1&#45;4&#45;0</title>
<ellipse fill="none" stroke="black" cx="315" cy="-18" rx="27" ry="18"/>
<text text-anchor="middle" x="315" y="-14.3" font-family="Times,serif" font-size="14.00">&#45;21</text>
</g>
<!-- &#45;0&#45;1&#45;4&#45;&gt;&#45;0&#45;1&#45;4&#45;0 -->
<g id="edge17" class="edge">
<title>&#45;0&#45;1&#45;4&#45;&gt;&#45;0&#45;1&#45;4&#45;0</title>
<path fill="none" stroke="black" d="M315,-86.8C315,-75.16 315,-59.55 315,-46.24"/>
<polygon fill="black" stroke="black" points="318.5,-46.18 315,-36.18 311.5,-46.18 318.5,-46.18"/>
<text text-anchor="middle" x="331" y="-57.8" font-family="Times,serif" font-size="14.00"> 0/7 </text>
</g>
<!-- &#45;0 -->
<g id="node11" class="node">
<title>&#45;0</title>
<ellipse fill="none" stroke="black" cx="473" cy="-279" rx="27" ry="18"/>
<text text-anchor="middle" x="473" y="-275.3" font-family="Times,serif" font-size="14.00">&#45;12</text>
</g>
<!-- &#45;0&#45;&gt;&#45;0&#45;1 -->
<g id="edge10" class="edge">
<title>&#45;0&#45;&gt;&#45;0&#45;1</title>
<path fill="none" stroke="black" d="M455.15,-265.46C434.86,-251.21 401.56,-227.82 378.3,-211.48"/>
<polygon fill="black" stroke="black" points="380.12,-208.48 369.93,-205.59 376.1,-214.21 380.12,-208.48"/>
<text text-anchor="middle" x="435" y="-231.8" font-family="Times,serif" font-size="14.00"> 7/5 </text>
</g>
<!-- &#45;0&#45;&gt;&#45;0&#45;0 -->
<g id="edge9" class="edge">
<title>&#45;0&#45;&gt;&#45;0&#45;0</title>
<path fill="none" stroke="black" d="M491.63,-265.82C513.73,-251.37 550.77,-227.15 576.02,-210.64"/>
<polygon fill="black" stroke="black" points="577.95,-213.56 584.41,-205.16 574.12,-207.7 577.95,-213.56"/>
<text text-anchor="middle" x="561" y="-231.8" font-family="Times,serif" font-size="14.00"> 0/7 </text>
</g>
<!-- &#45;0&#45;0&#45;1&#45;0 -->
<g id="node13" class="node">
<title>&#45;0&#45;0&#45;1&#45;0</title>
<ellipse fill="none" stroke="black" cx="531" cy="-18" rx="27" ry="18"/>
<text text-anchor="middle" x="531" y="-14.3" font-family="Times,serif" font-size="14.00">&#45;25</text>
</g>
<!-- &#45;0&#45;0&#45;1&#45;&gt;&#45;0&#45;0&#45;1&#45;0 -->
<g id="edge16" class="edge">
<title>&#45;0&#45;0&#45;1&#45;&gt;&#45;0&#45;0&#45;1&#45;0</title>
<path fill="none" stroke="black" d="M531,-86.8C531,-75.16 531,-59.55 531,-46.24"/>
<polygon fill="black" stroke="black" points="534.5,-46.18 531,-36.18 527.5,-46.18 534.5,-46.18"/>
<text text-anchor="middle" x="547" y="-57.8" font-family="Times,serif" font-size="14.00"> 7/5 </text>
</g>
<!-- &#45;0&#45;0&#45;2&#45;0 -->
<g id="node15" class="node">
<title>&#45;0&#45;0&#45;2&#45;0</title>
<ellipse fill="none" stroke="black" cx="603" cy="-18" rx="27" ry="18"/>
<text text-anchor="middle" x="603" y="-14.3" font-family="Times,serif" font-size="14.00">&#45;11</text>
</g>
<!-- &#45;0&#45;0&#45;2&#45;&gt;&#45;0&#45;0&#45;2&#45;0 -->
<g id="edge11" class="edge">
<title>&#45;0&#45;0&#45;2&#45;&gt;&#45;0&#45;0&#45;2&#45;0</title>
<path fill="none" stroke="black" d="M603,-86.8C603,-75.16 603,-59.55 603,-46.24"/>
<polygon fill="black" stroke="black" points="606.5,-46.18 603,-36.18 599.5,-46.18 606.5,-46.18"/>
<text text-anchor="middle" x="619" y="-57.8" font-family="Times,serif" font-size="14.00"> 7/5 </text>
</g>
<!-- &#45;0&#45;1&#45;3&#45;&gt;&#45;0&#45;1&#45;3&#45;0 -->
<g id="edge1" class="edge">
<title>&#45;0&#45;1&#45;3&#45;&gt;&#45;0&#45;1&#45;3&#45;0</title>
<path fill="none" stroke="black" d="M387,-86.8C387,-75.16 387,-59.55 387,-46.24"/>
<polygon fill="black" stroke="black" points="390.5,-46.18 387,-36.18 383.5,-46.18 390.5,-46.18"/>
<text text-anchor="middle" x="403" y="-57.8" font-family="Times,serif" font-size="14.00"> 0/7 </text>
</g>
<!-- &#45;0&#45;0&#45;0&#45;1 -->
<g id="node19" class="node">
<title>&#45;0&#45;0&#45;0&#45;1</title>
<ellipse fill="none" stroke="black" cx="747" cy="-18" rx="27" ry="18"/>
<text text-anchor="middle" x="747" y="-14.3" font-family="Times,serif" font-size="14.00">&#45;13</text>
</g>
<!-- &#45;0&#45;0&#45;0&#45;0 -->
<g id="node21" class="node">
<title>&#45;0&#45;0&#45;0&#45;0</title>
<ellipse fill="none" stroke="black" cx="819" cy="-18" rx="27" ry="18"/>
<text text-anchor="middle" x="819" y="-14.3" font-family="Times,serif" font-size="14.00">&#45;15</text>
</g>
<!-- &#45;0&#45;0&#45;3&#45;&gt;&#45;0&#45;0&#45;3&#45;0 -->
<g id="edge2" class="edge">
<title>&#45;0&#45;0&#45;3&#45;&gt;&#45;0&#45;0&#45;3&#45;0</title>
<path fill="none" stroke="black" d="M675,-86.8C675,-75.16 675,-59.55 675,-46.24"/>
<polygon fill="black" stroke="black" points="678.5,-46.18 675,-36.18 671.5,-46.18 678.5,-46.18"/>
<text text-anchor="middle" x="691" y="-57.8" font-family="Times,serif" font-size="14.00"> 7/5 </text>
</g>
<!-- &#45;0&#45;1&#45;1&#45;&gt;&#45;0&#45;1&#45;1&#45;0 -->
<g id="edge8" class="edge">
<title>&#45;0&#45;1&#45;1&#45;&gt;&#45;0&#45;1&#45;1&#45;0</title>
<path fill="none" stroke="black" d="M459,-86.8C459,-75.16 459,-59.55 459,-46.24"/>
<polygon fill="black" stroke="black" points="462.5,-46.18 459,-36.18 455.5,-46.18 462.5,-46.18"/>
<text text-anchor="middle" x="475" y="-57.8" font-family="Times,serif" font-size="14.00"> 0/7 </text>
</g>
<!-- &#45;0&#45;0&#45;0&#45;&gt;&#45;0&#45;0&#45;0&#45;1 -->
<g id="edge15" class="edge">
<title>&#45;0&#45;0&#45;0&#45;&gt;&#45;0&#45;0&#45;0&#45;1</title>
<path fill="none" stroke="black" d="M747,-86.8C747,-75.16 747,-59.55 747,-46.24"/>
<polygon fill="black" stroke="black" points="750.5,-46.18 747,-36.18 743.5,-46.18 750.5,-46.18"/>
<text text-anchor="middle" x="763" y="-57.8" font-family="Times,serif" font-size="14.00"> 7/5 </text>
</g>
<!-- &#45;0&#45;0&#45;0&#45;&gt;&#45;0&#45;0&#45;0&#45;0 -->
<g id="edge14" class="edge">
<title>&#45;0&#45;0&#45;0&#45;&gt;&#45;0&#45;0&#45;0&#45;0</title>
<path fill="none" stroke="black" d="M762.66,-89.92C769.21,-83.74 776.74,-76.26 783,-69 789.95,-60.94 796.93,-51.6 802.87,-43.19"/>
<polygon fill="black" stroke="black" points="805.83,-45.06 808.64,-34.85 800.08,-41.08 805.83,-45.06"/>
<text text-anchor="middle" x="810" y="-57.8" font-family="Times,serif" font-size="14.00"> 2/0 </text>
</g>
</g>
</svg>
