<?xml version="1.0" encoding="UTF-8" standalone="no"?>
<!DOCTYPE svg PUBLIC "-//W3C//DTD SVG 1.1//EN"
 "http://www.w3.org/Graphics/SVG/1.1/DTD/svg11.dtd">
<!-- Generated by graphviz version 2.42.3 (0)
 -->
<!-- Title: gametree Pages: 1 -->
<svg width="278pt" height="131pt"
 viewBox="0.00 0.00 278.00 131.00" xmlns="http://www.w3.org/2000/svg" xmlns:xlink="http://www.w3.org/1999/xlink">
<g id="graph0" class="graph" transform="scale(1 1) rotate(0) translate(4 127)">
<title>gametree</title>
<polygon fill="white" stroke="transparent" points="-4,4 -4,-127 274,-127 274,4 -4,4"/>
<!-- &#45;0&#45;0 -->
<g id="node1" class="node">
<title>&#45;0&#45;0</title>
<ellipse fill="none" stroke="black" cx="27" cy="-18" rx="27" ry="18"/>
<text text-anchor="middle" x="27" y="-14.3" font-family="Times,serif" font-size="14.00">3</text>
</g>
<!-- &#45;0&#45;1 -->
<g id="node2" class="node">
<title>&#45;0&#45;1</title>
<ellipse fill="none" stroke="black" cx="99" cy="-18" rx="27" ry="18"/>
<text text-anchor="middle" x="99" y="-14.3" font-family="Times,serif" font-size="14.00">3</text>
</g>
<!-- &#45;0&#45;2 -->
<g id="node3" class="node">
<title>&#45;0&#45;2</title>
<ellipse fill="none" stroke="black" cx="171" cy="-18" rx="27" ry="18"/>
<text text-anchor="middle" x="171" y="-14.3" font-family="Times,serif" font-size="14.00">3</text>
</g>
<!-- &#45;0&#45;3 -->
<g id="node4" class="node">
<title>&#45;0&#45;3</title>
<ellipse fill="none" stroke="black" cx="243" cy="-18" rx="27" ry="18"/>
<text text-anchor="middle" x="243" y="-14.3" font-family="Times,serif" font-size="14.00">3</text>
</g>
<!-- &#45;0 -->
<g id="node5" class="node">
<title>&#45;0</title>
<ellipse fill="none" stroke="black" cx="135" cy="-105" rx="27" ry="18"/>
<text text-anchor="middle" x="135" y="-101.3" font-family="Times,serif" font-size="14.00">0</text>
</g>
<!-- &#45;0&#45;&gt;&#45;0&#45;0 -->
<g id="edge1" class="edge">
<title>&#45;0&#45;&gt;&#45;0&#45;0</title>
<path fill="none" stroke="black" d="M113.7,-93.77C101.51,-87.44 86.26,-78.69 74,-69 63.88,-61 53.91,-50.83 45.78,-41.74"/>
<polygon fill="black" stroke="black" points="48.35,-39.37 39.14,-34.13 43.07,-43.97 48.35,-39.37"/>
<text text-anchor="middle" x="90" y="-57.8" font-family="Times,serif" font-size="14.00"> 2/3 </text>
</g>
<!-- &#45;0&#45;&gt;&#45;0&#45;1 -->
<g id="edge2" class="edge">
<title>&#45;0&#45;&gt;&#45;0&#45;1</title>
<path fill="none" stroke="black" d="M126.13,-87.83C123.07,-81.98 119.73,-75.27 117,-69 113.72,-61.47 110.55,-53.13 107.8,-45.46"/>
<polygon fill="black" stroke="black" points="111.06,-44.17 104.47,-35.88 104.45,-46.47 111.06,-44.17"/>
<text text-anchor="middle" x="133" y="-57.8" font-family="Times,serif" font-size="14.00"> 3/2 </text>
</g>
<!-- &#45;0&#45;&gt;&#45;0&#45;2 -->
<g id="edge3" class="edge">
<title>&#45;0&#45;&gt;&#45;0&#45;2</title>
<path fill="none" stroke="black" d="M142.11,-87.21C147.22,-75.14 154.21,-58.64 160.03,-44.89"/>
<polygon fill="black" stroke="black" points="163.35,-46.04 164.02,-35.47 156.9,-43.31 163.35,-46.04"/>
<text text-anchor="middle" x="171" y="-57.8" font-family="Times,serif" font-size="14.00"> 4/5 </text>
</g>
<!-- &#45;0&#45;&gt;&#45;0&#45;3 -->
<g id="edge4" class="edge">
<title>&#45;0&#45;&gt;&#45;0&#45;3</title>
<path fill="none" stroke="black" d="M155.11,-92.81C166.08,-86.36 179.7,-77.81 191,-69 201.8,-60.58 212.87,-50.23 222,-41.13"/>
<polygon fill="black" stroke="black" points="224.64,-43.43 229.16,-33.85 219.65,-38.52 224.64,-43.43"/>
<text text-anchor="middle" x="223" y="-57.8" font-family="Times,serif" font-size="14.00"> 5/4 </text>
</g>
</g>
</svg>
