<?xml version="1.0" encoding="UTF-8" standalone="no"?>
<!DOCTYPE svg PUBLIC "-//W3C//DTD SVG 1.1//EN"
 "http://www.w3.org/Graphics/SVG/1.1/DTD/svg11.dtd">
<!-- Generated by graphviz version 2.42.3 (0)
 -->
<!-- Title: gametree Pages: 1 -->
<svg width="710pt" height="218pt"
 viewBox="0.00 0.00 710.00 218.00" xmlns="http://www.w3.org/2000/svg" xmlns:xlink="http://www.w3.org/1999/xlink">
<g id="graph0" class="graph" transform="scale(1 1) rotate(0) translate(4 214)">
<title>gametree</title>
<polygon fill="white" stroke="transparent" points="-4,4 -4,-214 706,-214 706,4 -4,4"/>
<!-- &#45;0&#45;1&#45;0 -->
<g id="node1" class="node">
<title>&#45;0&#45;1&#45;0</title>
<ellipse fill="none" stroke="black" cx="27" cy="-18" rx="27" ry="18"/>
<text text-anchor="middle" x="27" y="-14.3" font-family="Times,serif" font-size="14.00">21</text>
</g>
<!-- &#45;0&#45;1&#45;2 -->
<g id="node2" class="node">
<title>&#45;0&#45;1&#45;2</title>
<ellipse fill="none" stroke="black" cx="99" cy="-18" rx="27" ry="18"/>
<text text-anchor="middle" x="99" y="-14.3" font-family="Times,serif" font-size="14.00">9</text>
</g>
<!-- &#45;0&#45;2&#45;2 -->
<g id="node3" class="node">
<title>&#45;0&#45;2&#45;2</title>
<ellipse fill="none" stroke="black" cx="459" cy="-18" rx="27" ry="18"/>
<text text-anchor="middle" x="459" y="-14.3" font-family="Times,serif" font-size="14.00">15</text>
</g>
<!-- &#45;0&#45;2&#45;3 -->
<g id="node4" class="node">
<title>&#45;0&#45;2&#45;3</title>
<ellipse fill="none" stroke="black" cx="531" cy="-18" rx="27" ry="18"/>
<text text-anchor="middle" x="531" y="-14.3" font-family="Times,serif" font-size="14.00">15</text>
</g>
<!-- &#45;0 -->
<g id="node5" class="node">
<title>&#45;0</title>
<ellipse fill="none" stroke="black" cx="351" cy="-192" rx="27" ry="18"/>
<text text-anchor="middle" x="351" y="-188.3" font-family="Times,serif" font-size="14.00">19</text>
</g>
<!-- &#45;0&#45;1 -->
<g id="node7" class="node">
<title>&#45;0&#45;1</title>
<ellipse fill="none" stroke="black" cx="171" cy="-105" rx="27" ry="18"/>
<text text-anchor="middle" x="171" y="-101.3" font-family="Times,serif" font-size="14.00">24</text>
</g>
<!-- &#45;0&#45;&gt;&#45;0&#45;1 -->
<g id="edge10" class="edge">
<title>&#45;0&#45;&gt;&#45;0&#45;1</title>
<path fill="none" stroke="black" d="M329.64,-180.92C297.84,-165.9 237.89,-137.59 201.49,-120.4"/>
<polygon fill="black" stroke="black" points="202.86,-117.18 192.33,-116.07 199.88,-123.51 202.86,-117.18"/>
<text text-anchor="middle" x="287" y="-144.8" font-family="Times,serif" font-size="14.00"> 6/4 </text>
</g>
<!-- &#45;0&#45;0 -->
<g id="node11" class="node">
<title>&#45;0&#45;0</title>
<ellipse fill="none" stroke="black" cx="351" cy="-105" rx="27" ry="18"/>
<text text-anchor="middle" x="351" y="-101.3" font-family="Times,serif" font-size="14.00">22</text>
</g>
<!-- &#45;0&#45;&gt;&#45;0&#45;0 -->
<g id="edge9" class="edge">
<title>&#45;0&#45;&gt;&#45;0&#45;0</title>
<path fill="none" stroke="black" d="M351,-173.8C351,-162.16 351,-146.55 351,-133.24"/>
<polygon fill="black" stroke="black" points="354.5,-133.18 351,-123.18 347.5,-133.18 354.5,-133.18"/>
<text text-anchor="middle" x="367" y="-144.8" font-family="Times,serif" font-size="14.00"> 1/1 </text>
</g>
<!-- &#45;0&#45;2 -->
<g id="node13" class="node">
<title>&#45;0&#45;2</title>
<ellipse fill="none" stroke="black" cx="531" cy="-105" rx="27" ry="18"/>
<text text-anchor="middle" x="531" y="-101.3" font-family="Times,serif" font-size="14.00">24</text>
</g>
<!-- &#45;0&#45;&gt;&#45;0&#45;2 -->
<g id="edge11" class="edge">
<title>&#45;0&#45;&gt;&#45;0&#45;2</title>
<path fill="none" stroke="black" d="M372.36,-180.92C404.16,-165.9 464.11,-137.59 500.51,-120.4"/>
<polygon fill="black" stroke="black" points="502.12,-123.51 509.67,-116.07 499.14,-117.18 502.12,-123.51"/>
<text text-anchor="middle" x="467" y="-144.8" font-family="Times,serif" font-size="14.00"> 7/5 </text>
</g>
<!-- &#45;0&#45;0&#45;0 -->
<g id="node6" class="node">
<title>&#45;0&#45;0&#45;0</title>
<ellipse fill="none" stroke="black" cx="315" cy="-18" rx="27" ry="18"/>
<text text-anchor="middle" x="315" y="-14.3" font-family="Times,serif" font-size="14.00">9</text>
</g>
<!-- &#45;0&#45;1&#45;&gt;&#45;0&#45;1&#45;0 -->
<g id="edge1" class="edge">
<title>&#45;0&#45;1&#45;&gt;&#45;0&#45;1&#45;0</title>
<path fill="none" stroke="black" d="M147.23,-96.05C130.14,-89.85 106.88,-80.39 88,-69 74.41,-60.8 60.63,-49.78 49.61,-40.17"/>
<polygon fill="black" stroke="black" points="51.91,-37.53 42.12,-33.49 47.25,-42.76 51.91,-37.53"/>
<text text-anchor="middle" x="104" y="-57.8" font-family="Times,serif" font-size="14.00"> 1/1 </text>
</g>
<!-- &#45;0&#45;1&#45;&gt;&#45;0&#45;1&#45;2 -->
<g id="edge3" class="edge">
<title>&#45;0&#45;1&#45;&gt;&#45;0&#45;1&#45;2</title>
<path fill="none" stroke="black" d="M155.34,-89.92C148.79,-83.74 141.26,-76.26 135,-69 128.05,-60.94 121.07,-51.6 115.13,-43.19"/>
<polygon fill="black" stroke="black" points="117.92,-41.08 109.36,-34.85 112.17,-45.06 117.92,-41.08"/>
<text text-anchor="middle" x="151" y="-57.8" font-family="Times,serif" font-size="14.00"> 7/5 </text>
</g>
<!-- &#45;0&#45;1&#45;1 -->
<g id="node8" class="node">
<title>&#45;0&#45;1&#45;1</title>
<ellipse fill="none" stroke="black" cx="171" cy="-18" rx="27" ry="18"/>
<text text-anchor="middle" x="171" y="-14.3" font-family="Times,serif" font-size="14.00">5</text>
</g>
<!-- &#45;0&#45;1&#45;&gt;&#45;0&#45;1&#45;1 -->
<g id="edge2" class="edge">
<title>&#45;0&#45;1&#45;&gt;&#45;0&#45;1&#45;1</title>
<path fill="none" stroke="black" d="M171,-86.8C171,-75.16 171,-59.55 171,-46.24"/>
<polygon fill="black" stroke="black" points="174.5,-46.18 171,-36.18 167.5,-46.18 174.5,-46.18"/>
<text text-anchor="middle" x="187" y="-57.8" font-family="Times,serif" font-size="14.00"> 6/7 </text>
</g>
<!-- &#45;0&#45;1&#45;3 -->
<g id="node9" class="node">
<title>&#45;0&#45;1&#45;3</title>
<ellipse fill="none" stroke="black" cx="243" cy="-18" rx="27" ry="18"/>
<text text-anchor="middle" x="243" y="-14.3" font-family="Times,serif" font-size="14.00">15</text>
</g>
<!-- &#45;0&#45;1&#45;&gt;&#45;0&#45;1&#45;3 -->
<g id="edge4" class="edge">
<title>&#45;0&#45;1&#45;&gt;&#45;0&#45;1&#45;3</title>
<path fill="none" stroke="black" d="M186.66,-89.92C193.21,-83.74 200.74,-76.26 207,-69 213.95,-60.94 220.93,-51.6 226.87,-43.19"/>
<polygon fill="black" stroke="black" points="229.83,-45.06 232.64,-34.85 224.08,-41.08 229.83,-45.06"/>
<text text-anchor="middle" x="234" y="-57.8" font-family="Times,serif" font-size="14.00"> 7/7 </text>
</g>
<!-- &#45;0&#45;2&#45;0 -->
<g id="node10" class="node">
<title>&#45;0&#45;2&#45;0</title>
<ellipse fill="none" stroke="black" cx="603" cy="-18" rx="27" ry="18"/>
<text text-anchor="middle" x="603" y="-14.3" font-family="Times,serif" font-size="14.00">21</text>
</g>
<!-- &#45;0&#45;0&#45;&gt;&#45;0&#45;0&#45;0 -->
<g id="edge12" class="edge">
<title>&#45;0&#45;0&#45;&gt;&#45;0&#45;0&#45;0</title>
<path fill="none" stroke="black" d="M342.13,-87.83C339.07,-81.98 335.73,-75.27 333,-69 329.72,-61.47 326.55,-53.13 323.8,-45.46"/>
<polygon fill="black" stroke="black" points="327.06,-44.17 320.47,-35.88 320.45,-46.47 327.06,-44.17"/>
<text text-anchor="middle" x="349" y="-57.8" font-family="Times,serif" font-size="14.00"> 6/4 </text>
</g>
<!-- &#45;0&#45;0&#45;1 -->
<g id="node12" class="node">
<title>&#45;0&#45;0&#45;1</title>
<ellipse fill="none" stroke="black" cx="387" cy="-18" rx="27" ry="18"/>
<text text-anchor="middle" x="387" y="-14.3" font-family="Times,serif" font-size="14.00">11</text>
</g>
<!-- &#45;0&#45;0&#45;&gt;&#45;0&#45;0&#45;1 -->
<g id="edge13" class="edge">
<title>&#45;0&#45;0&#45;&gt;&#45;0&#45;0&#45;1</title>
<path fill="none" stroke="black" d="M358.11,-87.21C363.22,-75.14 370.21,-58.64 376.03,-44.89"/>
<polygon fill="black" stroke="black" points="379.35,-46.04 380.02,-35.47 372.9,-43.31 379.35,-46.04"/>
<text text-anchor="middle" x="387" y="-57.8" font-family="Times,serif" font-size="14.00"> 6/7 </text>
</g>
<!-- &#45;0&#45;2&#45;&gt;&#45;0&#45;2&#45;2 -->
<g id="edge7" class="edge">
<title>&#45;0&#45;2&#45;&gt;&#45;0&#45;2&#45;2</title>
<path fill="none" stroke="black" d="M515.34,-89.92C508.79,-83.74 501.26,-76.26 495,-69 488.05,-60.94 481.07,-51.6 475.13,-43.19"/>
<polygon fill="black" stroke="black" points="477.92,-41.08 469.36,-34.85 472.17,-45.06 477.92,-41.08"/>
<text text-anchor="middle" x="511" y="-57.8" font-family="Times,serif" font-size="14.00"> 6/7 </text>
</g>
<!-- &#45;0&#45;2&#45;&gt;&#45;0&#45;2&#45;3 -->
<g id="edge8" class="edge">
<title>&#45;0&#45;2&#45;&gt;&#45;0&#45;2&#45;3</title>
<path fill="none" stroke="black" d="M531,-86.8C531,-75.16 531,-59.55 531,-46.24"/>
<polygon fill="black" stroke="black" points="534.5,-46.18 531,-36.18 527.5,-46.18 534.5,-46.18"/>
<text text-anchor="middle" x="547" y="-57.8" font-family="Times,serif" font-size="14.00"> 7/7 </text>
</g>
<!-- &#45;0&#45;2&#45;&gt;&#45;0&#45;2&#45;0 -->
<g id="edge5" class="edge">
<title>&#45;0&#45;2&#45;&gt;&#45;0&#45;2&#45;0</title>
<path fill="none" stroke="black" d="M546.66,-89.92C553.21,-83.74 560.74,-76.26 567,-69 573.95,-60.94 580.93,-51.6 586.87,-43.19"/>
<polygon fill="black" stroke="black" points="589.83,-45.06 592.64,-34.85 584.08,-41.08 589.83,-45.06"/>
<text text-anchor="middle" x="594" y="-57.8" font-family="Times,serif" font-size="14.00"> 1/1 </text>
</g>
<!-- &#45;0&#45;2&#45;1 -->
<g id="node14" class="node">
<title>&#45;0&#45;2&#45;1</title>
<ellipse fill="none" stroke="black" cx="675" cy="-18" rx="27" ry="18"/>
<text text-anchor="middle" x="675" y="-14.3" font-family="Times,serif" font-size="14.00">11</text>
</g>
<!-- &#45;0&#45;2&#45;&gt;&#45;0&#45;2&#45;1 -->
<g id="edge6" class="edge">
<title>&#45;0&#45;2&#45;&gt;&#45;0&#45;2&#45;1</title>
<path fill="none" stroke="black" d="M554.77,-96.05C571.86,-89.85 595.12,-80.39 614,-69 627.59,-60.8 641.37,-49.78 652.39,-40.17"/>
<polygon fill="black" stroke="black" points="654.75,-42.76 659.88,-33.49 650.09,-37.53 654.75,-42.76"/>
<text text-anchor="middle" x="651" y="-57.8" font-family="Times,serif" font-size="14.00"> 6/4 </text>
</g>
</g>
</svg>
