<?xml version="1.0" encoding="UTF-8" standalone="no"?>
<!DOCTYPE svg PUBLIC "-//W3C//DTD SVG 1.1//EN"
 "http://www.w3.org/Graphics/SVG/1.1/DTD/svg11.dtd">
<!-- Generated by graphviz version 2.42.3 (0)
 -->
<!-- Title: gametree Pages: 1 -->
<svg width="679pt" height="305pt"
 viewBox="0.00 0.00 679.00 305.00" xmlns="http://www.w3.org/2000/svg" xmlns:xlink="http://www.w3.org/1999/xlink">
<g id="graph0" class="graph" transform="scale(1 1) rotate(0) translate(4 301)">
<title>gametree</title>
<polygon fill="white" stroke="transparent" points="-4,4 -4,-301 675,-301 675,4 -4,4"/>
<!-- &#45;0&#45;1&#45;3&#45;0 -->
<g id="node1" class="node">
<title>&#45;0&#45;1&#45;3&#45;0</title>
<ellipse fill="none" stroke="black" cx="135" cy="-18" rx="27" ry="18"/>
<text text-anchor="middle" x="135" y="-14.3" font-family="Times,serif" font-size="14.00">26</text>
</g>
<!-- &#45;0&#45;0&#45;1 -->
<g id="node2" class="node">
<title>&#45;0&#45;0&#45;1</title>
<ellipse fill="none" stroke="black" cx="423" cy="-105" rx="27" ry="18"/>
<text text-anchor="middle" x="423" y="-101.3" font-family="Times,serif" font-size="14.00">5</text>
</g>
<!-- &#45;0&#45;0&#45;1&#45;0 -->
<g id="node3" class="node">
<title>&#45;0&#45;0&#45;1&#45;0</title>
<ellipse fill="none" stroke="black" cx="351" cy="-18" rx="27" ry="18"/>
<text text-anchor="middle" x="351" y="-14.3" font-family="Times,serif" font-size="14.00">8</text>
</g>
<!-- &#45;0&#45;0&#45;1&#45;&gt;&#45;0&#45;0&#45;1&#45;0 -->
<g id="edge12" class="edge">
<title>&#45;0&#45;0&#45;1&#45;&gt;&#45;0&#45;0&#45;1&#45;0</title>
<path fill="none" stroke="black" d="M407.34,-89.92C400.79,-83.74 393.26,-76.26 387,-69 380.05,-60.94 373.07,-51.6 367.13,-43.19"/>
<polygon fill="black" stroke="black" points="369.92,-41.08 361.36,-34.85 364.17,-45.06 369.92,-41.08"/>
<text text-anchor="middle" x="403" y="-57.8" font-family="Times,serif" font-size="14.00"> 0/7 </text>
</g>
<!-- &#45;0&#45;0&#45;1&#45;1 -->
<g id="node14" class="node">
<title>&#45;0&#45;0&#45;1&#45;1</title>
<ellipse fill="none" stroke="black" cx="423" cy="-18" rx="27" ry="18"/>
<text text-anchor="middle" x="423" y="-14.3" font-family="Times,serif" font-size="14.00">18</text>
</g>
<!-- &#45;0&#45;0&#45;1&#45;&gt;&#45;0&#45;0&#45;1&#45;1 -->
<g id="edge13" class="edge">
<title>&#45;0&#45;0&#45;1&#45;&gt;&#45;0&#45;0&#45;1&#45;1</title>
<path fill="none" stroke="black" d="M423,-86.8C423,-75.16 423,-59.55 423,-46.24"/>
<polygon fill="black" stroke="black" points="426.5,-46.18 423,-36.18 419.5,-46.18 426.5,-46.18"/>
<text text-anchor="middle" x="439" y="-57.8" font-family="Times,serif" font-size="14.00"> 7/1 </text>
</g>
<!-- &#45;0&#45;0&#45;2 -->
<g id="node4" class="node">
<title>&#45;0&#45;0&#45;2</title>
<ellipse fill="none" stroke="black" cx="495" cy="-105" rx="27" ry="18"/>
<text text-anchor="middle" x="495" y="-101.3" font-family="Times,serif" font-size="14.00">13</text>
</g>
<!-- &#45;0&#45;0&#45;2&#45;0 -->
<g id="node18" class="node">
<title>&#45;0&#45;0&#45;2&#45;0</title>
<ellipse fill="none" stroke="black" cx="495" cy="-18" rx="27" ry="18"/>
<text text-anchor="middle" x="495" y="-14.3" font-family="Times,serif" font-size="14.00">26</text>
</g>
<!-- &#45;0&#45;0&#45;2&#45;&gt;&#45;0&#45;0&#45;2&#45;0 -->
<g id="edge14" class="edge">
<title>&#45;0&#45;0&#45;2&#45;&gt;&#45;0&#45;0&#45;2&#45;0</title>
<path fill="none" stroke="black" d="M495,-86.8C495,-75.16 495,-59.55 495,-46.24"/>
<polygon fill="black" stroke="black" points="498.5,-46.18 495,-36.18 491.5,-46.18 498.5,-46.18"/>
<text text-anchor="middle" x="511" y="-57.8" font-family="Times,serif" font-size="14.00"> 7/1 </text>
</g>
<!-- &#45;0&#45;0&#45;3 -->
<g id="node5" class="node">
<title>&#45;0&#45;0&#45;3</title>
<ellipse fill="none" stroke="black" cx="567" cy="-105" rx="27" ry="18"/>
<text text-anchor="middle" x="567" y="-101.3" font-family="Times,serif" font-size="14.00">11</text>
</g>
<!-- &#45;0&#45;0&#45;3&#45;0 -->
<g id="node19" class="node">
<title>&#45;0&#45;0&#45;3&#45;0</title>
<ellipse fill="none" stroke="black" cx="567" cy="-18" rx="27" ry="18"/>
<text text-anchor="middle" x="567" y="-14.3" font-family="Times,serif" font-size="14.00">26</text>
</g>
<!-- &#45;0&#45;0&#45;3&#45;&gt;&#45;0&#45;0&#45;3&#45;0 -->
<g id="edge19" class="edge">
<title>&#45;0&#45;0&#45;3&#45;&gt;&#45;0&#45;0&#45;3&#45;0</title>
<path fill="none" stroke="black" d="M567,-86.8C567,-75.16 567,-59.55 567,-46.24"/>
<polygon fill="black" stroke="black" points="570.5,-46.18 567,-36.18 563.5,-46.18 570.5,-46.18"/>
<text text-anchor="middle" x="583" y="-57.8" font-family="Times,serif" font-size="14.00"> 7/0 </text>
</g>
<!-- &#45;0&#45;1&#45;0 -->
<g id="node6" class="node">
<title>&#45;0&#45;1&#45;0</title>
<ellipse fill="none" stroke="black" cx="27" cy="-105" rx="27" ry="18"/>
<text text-anchor="middle" x="27" y="-101.3" font-family="Times,serif" font-size="14.00">7</text>
</g>
<!-- &#45;0&#45;1&#45;0&#45;0 -->
<g id="node10" class="node">
<title>&#45;0&#45;1&#45;0&#45;0</title>
<ellipse fill="none" stroke="black" cx="27" cy="-18" rx="27" ry="18"/>
<text text-anchor="middle" x="27" y="-14.3" font-family="Times,serif" font-size="14.00">14</text>
</g>
<!-- &#45;0&#45;1&#45;0&#45;&gt;&#45;0&#45;1&#45;0&#45;0 -->
<g id="edge8" class="edge">
<title>&#45;0&#45;1&#45;0&#45;&gt;&#45;0&#45;1&#45;0&#45;0</title>
<path fill="none" stroke="black" d="M27,-86.8C27,-75.16 27,-59.55 27,-46.24"/>
<polygon fill="black" stroke="black" points="30.5,-46.18 27,-36.18 23.5,-46.18 30.5,-46.18"/>
<text text-anchor="middle" x="43" y="-57.8" font-family="Times,serif" font-size="14.00"> 4/1 </text>
</g>
<!-- &#45;0&#45;1&#45;1&#45;1 -->
<g id="node7" class="node">
<title>&#45;0&#45;1&#45;1&#45;1</title>
<ellipse fill="none" stroke="black" cx="207" cy="-18" rx="27" ry="18"/>
<text text-anchor="middle" x="207" y="-14.3" font-family="Times,serif" font-size="14.00">26</text>
</g>
<!-- &#45;0&#45;1&#45;2 -->
<g id="node8" class="node">
<title>&#45;0&#45;1&#45;2</title>
<ellipse fill="none" stroke="black" cx="99" cy="-105" rx="27" ry="18"/>
<text text-anchor="middle" x="99" y="-101.3" font-family="Times,serif" font-size="14.00">17</text>
</g>
<!-- &#45;0&#45;1 -->
<g id="node9" class="node">
<title>&#45;0&#45;1</title>
<ellipse fill="none" stroke="black" cx="171" cy="-192" rx="27" ry="18"/>
<text text-anchor="middle" x="171" y="-188.3" font-family="Times,serif" font-size="14.00">20</text>
</g>
<!-- &#45;0&#45;1&#45;&gt;&#45;0&#45;1&#45;0 -->
<g id="edge15" class="edge">
<title>&#45;0&#45;1&#45;&gt;&#45;0&#45;1&#45;0</title>
<path fill="none" stroke="black" d="M147.23,-183.05C130.14,-176.85 106.88,-167.39 88,-156 74.41,-147.8 60.63,-136.78 49.61,-127.17"/>
<polygon fill="black" stroke="black" points="51.91,-124.53 42.12,-120.49 47.25,-129.76 51.91,-124.53"/>
<text text-anchor="middle" x="104" y="-144.8" font-family="Times,serif" font-size="14.00"> 0/7 </text>
</g>
<!-- &#45;0&#45;1&#45;&gt;&#45;0&#45;1&#45;2 -->
<g id="edge17" class="edge">
<title>&#45;0&#45;1&#45;&gt;&#45;0&#45;1&#45;2</title>
<path fill="none" stroke="black" d="M155.34,-176.92C148.79,-170.74 141.26,-163.26 135,-156 128.05,-147.94 121.07,-138.6 115.13,-130.19"/>
<polygon fill="black" stroke="black" points="117.92,-128.08 109.36,-121.85 112.17,-132.06 117.92,-128.08"/>
<text text-anchor="middle" x="151" y="-144.8" font-family="Times,serif" font-size="14.00"> 4/1 </text>
</g>
<!-- &#45;0&#45;1&#45;3 -->
<g id="node11" class="node">
<title>&#45;0&#45;1&#45;3</title>
<ellipse fill="none" stroke="black" cx="171" cy="-105" rx="27" ry="18"/>
<text text-anchor="middle" x="171" y="-101.3" font-family="Times,serif" font-size="14.00">11</text>
</g>
<!-- &#45;0&#45;1&#45;&gt;&#45;0&#45;1&#45;3 -->
<g id="edge18" class="edge">
<title>&#45;0&#45;1&#45;&gt;&#45;0&#45;1&#45;3</title>
<path fill="none" stroke="black" d="M171,-173.8C171,-162.16 171,-146.55 171,-133.24"/>
<polygon fill="black" stroke="black" points="174.5,-133.18 171,-123.18 167.5,-133.18 174.5,-133.18"/>
<text text-anchor="middle" x="187" y="-144.8" font-family="Times,serif" font-size="14.00"> 7/0 </text>
</g>
<!-- &#45;0&#45;1&#45;1 -->
<g id="node15" class="node">
<title>&#45;0&#45;1&#45;1</title>
<ellipse fill="none" stroke="black" cx="243" cy="-105" rx="27" ry="18"/>
<text text-anchor="middle" x="243" y="-101.3" font-family="Times,serif" font-size="14.00">5</text>
</g>
<!-- &#45;0&#45;1&#45;&gt;&#45;0&#45;1&#45;1 -->
<g id="edge16" class="edge">
<title>&#45;0&#45;1&#45;&gt;&#45;0&#45;1&#45;1</title>
<path fill="none" stroke="black" d="M186.66,-176.92C193.21,-170.74 200.74,-163.26 207,-156 213.95,-147.94 220.93,-138.6 226.87,-130.19"/>
<polygon fill="black" stroke="black" points="229.83,-132.06 232.64,-121.85 224.08,-128.08 229.83,-132.06"/>
<text text-anchor="middle" x="234" y="-144.8" font-family="Times,serif" font-size="14.00"> 1/6 </text>
</g>
<!-- &#45;0&#45;1&#45;3&#45;&gt;&#45;0&#45;1&#45;3&#45;0 -->
<g id="edge1" class="edge">
<title>&#45;0&#45;1&#45;3&#45;&gt;&#45;0&#45;1&#45;3&#45;0</title>
<path fill="none" stroke="black" d="M162.13,-87.83C159.07,-81.98 155.73,-75.27 153,-69 149.72,-61.47 146.55,-53.13 143.8,-45.46"/>
<polygon fill="black" stroke="black" points="147.06,-44.17 140.47,-35.88 140.45,-46.47 147.06,-44.17"/>
<text text-anchor="middle" x="169" y="-57.8" font-family="Times,serif" font-size="14.00"> 4/1 </text>
</g>
<!-- &#45;0 -->
<g id="node12" class="node">
<title>&#45;0</title>
<ellipse fill="none" stroke="black" cx="314" cy="-279" rx="27" ry="18"/>
<text text-anchor="middle" x="314" y="-275.3" font-family="Times,serif" font-size="14.00">7</text>
</g>
<!-- &#45;0&#45;&gt;&#45;0&#45;1 -->
<g id="edge3" class="edge">
<title>&#45;0&#45;&gt;&#45;0&#45;1</title>
<path fill="none" stroke="black" d="M294.42,-266.36C269.95,-251.82 227.89,-226.82 199.76,-210.1"/>
<polygon fill="black" stroke="black" points="201.19,-206.87 190.81,-204.77 197.61,-212.89 201.19,-206.87"/>
<text text-anchor="middle" x="267" y="-231.8" font-family="Times,serif" font-size="14.00"> 7/1 </text>
</g>
<!-- &#45;0&#45;0 -->
<g id="node13" class="node">
<title>&#45;0&#45;0</title>
<ellipse fill="none" stroke="black" cx="495" cy="-192" rx="27" ry="18"/>
<text text-anchor="middle" x="495" y="-188.3" font-family="Times,serif" font-size="14.00">20</text>
</g>
<!-- &#45;0&#45;&gt;&#45;0&#45;0 -->
<g id="edge2" class="edge">
<title>&#45;0&#45;&gt;&#45;0&#45;0</title>
<path fill="none" stroke="black" d="M335.47,-267.92C367.45,-252.9 427.74,-224.59 464.34,-207.4"/>
<polygon fill="black" stroke="black" points="465.99,-210.49 473.55,-203.07 463.01,-204.15 465.99,-210.49"/>
<text text-anchor="middle" x="431" y="-231.8" font-family="Times,serif" font-size="14.00"> 4/1 </text>
</g>
<!-- &#45;0&#45;0&#45;&gt;&#45;0&#45;0&#45;1 -->
<g id="edge5" class="edge">
<title>&#45;0&#45;0&#45;&gt;&#45;0&#45;0&#45;1</title>
<path fill="none" stroke="black" d="M479.34,-176.92C472.79,-170.74 465.26,-163.26 459,-156 452.05,-147.94 445.07,-138.6 439.13,-130.19"/>
<polygon fill="black" stroke="black" points="441.92,-128.08 433.36,-121.85 436.17,-132.06 441.92,-128.08"/>
<text text-anchor="middle" x="475" y="-144.8" font-family="Times,serif" font-size="14.00"> 1/6 </text>
</g>
<!-- &#45;0&#45;0&#45;&gt;&#45;0&#45;0&#45;2 -->
<g id="edge6" class="edge">
<title>&#45;0&#45;0&#45;&gt;&#45;0&#45;0&#45;2</title>
<path fill="none" stroke="black" d="M495,-173.8C495,-162.16 495,-146.55 495,-133.24"/>
<polygon fill="black" stroke="black" points="498.5,-133.18 495,-123.18 491.5,-133.18 498.5,-133.18"/>
<text text-anchor="middle" x="511" y="-144.8" font-family="Times,serif" font-size="14.00"> 7/0 </text>
</g>
<!-- &#45;0&#45;0&#45;&gt;&#45;0&#45;0&#45;3 -->
<g id="edge7" class="edge">
<title>&#45;0&#45;0&#45;&gt;&#45;0&#45;0&#45;3</title>
<path fill="none" stroke="black" d="M510.66,-176.92C517.21,-170.74 524.74,-163.26 531,-156 537.95,-147.94 544.93,-138.6 550.87,-130.19"/>
<polygon fill="black" stroke="black" points="553.83,-132.06 556.64,-121.85 548.08,-128.08 553.83,-132.06"/>
<text text-anchor="middle" x="558" y="-144.8" font-family="Times,serif" font-size="14.00"> 7/1 </text>
</g>
<!-- &#45;0&#45;0&#45;0 -->
<g id="node16" class="node">
<title>&#45;0&#45;0&#45;0</title>
<ellipse fill="none" stroke="black" cx="639" cy="-105" rx="27" ry="18"/>
<text text-anchor="middle" x="639" y="-101.3" font-family="Times,serif" font-size="14.00">7</text>
</g>
<!-- &#45;0&#45;0&#45;&gt;&#45;0&#45;0&#45;0 -->
<g id="edge4" class="edge">
<title>&#45;0&#45;0&#45;&gt;&#45;0&#45;0&#45;0</title>
<path fill="none" stroke="black" d="M518.77,-183.05C535.86,-176.85 559.12,-167.39 578,-156 591.59,-147.8 605.37,-136.78 616.39,-127.17"/>
<polygon fill="black" stroke="black" points="618.75,-129.76 623.88,-120.49 614.09,-124.53 618.75,-129.76"/>
<text text-anchor="middle" x="615" y="-144.8" font-family="Times,serif" font-size="14.00"> 0/7 </text>
</g>
<!-- &#45;0&#45;1&#45;1&#45;&gt;&#45;0&#45;1&#45;1&#45;1 -->
<g id="edge10" class="edge">
<title>&#45;0&#45;1&#45;1&#45;&gt;&#45;0&#45;1&#45;1&#45;1</title>
<path fill="none" stroke="black" d="M232.3,-88.07C228.69,-82.24 224.86,-75.48 222,-69 218.78,-61.7 216,-53.52 213.74,-45.91"/>
<polygon fill="black" stroke="black" points="217.04,-44.73 210.98,-36.04 210.3,-46.61 217.04,-44.73"/>
<text text-anchor="middle" x="238" y="-57.8" font-family="Times,serif" font-size="14.00"> 4/1 </text>
</g>
<!-- &#45;0&#45;1&#45;1&#45;0 -->
<g id="node20" class="node">
<title>&#45;0&#45;1&#45;1&#45;0</title>
<ellipse fill="none" stroke="black" cx="279" cy="-18" rx="27" ry="18"/>
<text text-anchor="middle" x="279" y="-14.3" font-family="Times,serif" font-size="14.00">16</text>
</g>
<!-- &#45;0&#45;1&#45;1&#45;&gt;&#45;0&#45;1&#45;1&#45;0 -->
<g id="edge9" class="edge">
<title>&#45;0&#45;1&#45;1&#45;&gt;&#45;0&#45;1&#45;1&#45;0</title>
<path fill="none" stroke="black" d="M250.11,-87.21C255.22,-75.14 262.21,-58.64 268.03,-44.89"/>
<polygon fill="black" stroke="black" points="271.35,-46.04 272.02,-35.47 264.9,-43.31 271.35,-46.04"/>
<text text-anchor="middle" x="279" y="-57.8" font-family="Times,serif" font-size="14.00"> 0/7 </text>
</g>
<!-- &#45;0&#45;0&#45;0&#45;0 -->
<g id="node17" class="node">
<title>&#45;0&#45;0&#45;0&#45;0</title>
<ellipse fill="none" stroke="black" cx="639" cy="-18" rx="27" ry="18"/>
<text text-anchor="middle" x="639" y="-14.3" font-family="Times,serif" font-size="14.00">20</text>
</g>
<!-- &#45;0&#45;0&#45;0&#45;&gt;&#45;0&#45;0&#45;0&#45;0 -->
<g id="edge11" class="edge">
<title>&#45;0&#45;0&#45;0&#45;&gt;&#45;0&#45;0&#45;0&#45;0</title>
<path fill="none" stroke="black" d="M639,-86.8C639,-75.16 639,-59.55 639,-46.24"/>
<polygon fill="black" stroke="black" points="642.5,-46.18 639,-36.18 635.5,-46.18 642.5,-46.18"/>
<text text-anchor="middle" x="655" y="-57.8" font-family="Times,serif" font-size="14.00"> 7/1 </text>
</g>
</g>
</svg>
