<?xml version="1.0" encoding="UTF-8" standalone="no"?>
<!DOCTYPE svg PUBLIC "-//W3C//DTD SVG 1.1//EN"
 "http://www.w3.org/Graphics/SVG/1.1/DTD/svg11.dtd">
<!-- Generated by graphviz version 2.42.3 (0)
 -->
<!-- Title: gametree Pages: 1 -->
<svg width="1286pt" height="392pt"
 viewBox="0.00 0.00 1286.00 392.00" xmlns="http://www.w3.org/2000/svg" xmlns:xlink="http://www.w3.org/1999/xlink">
<g id="graph0" class="graph" transform="scale(1 1) rotate(0) translate(4 388)">
<title>gametree</title>
<polygon fill="white" stroke="transparent" points="-4,4 -4,-388 1282,-388 1282,4 -4,4"/>
<!-- &#45;0&#45;0&#45;2&#45;0&#45;0 -->
<g id="node1" class="node">
<title>&#45;0&#45;0&#45;2&#45;0&#45;0</title>
<ellipse fill="none" stroke="black" cx="315" cy="-18" rx="27" ry="18"/>
<text text-anchor="middle" x="315" y="-14.3" font-family="Times,serif" font-size="14.00">13</text>
</g>
<!-- &#45;0&#45;1&#45;1&#45;1&#45;0 -->
<g id="node2" class="node">
<title>&#45;0&#45;1&#45;1&#45;1&#45;0</title>
<ellipse fill="none" stroke="black" cx="1035" cy="-18" rx="27" ry="18"/>
<text text-anchor="middle" x="1035" y="-14.3" font-family="Times,serif" font-size="14.00">13</text>
</g>
<!-- &#45;0&#45;0&#45;0&#45;0&#45;1 -->
<g id="node3" class="node">
<title>&#45;0&#45;0&#45;0&#45;0&#45;1</title>
<ellipse fill="none" stroke="black" cx="459" cy="-18" rx="27" ry="18"/>
<text text-anchor="middle" x="459" y="-14.3" font-family="Times,serif" font-size="14.00">13</text>
</g>
<!-- &#45;0&#45;0&#45;2&#45;0 -->
<g id="node4" class="node">
<title>&#45;0&#45;0&#45;2&#45;0</title>
<ellipse fill="none" stroke="black" cx="387" cy="-105" rx="27" ry="18"/>
<text text-anchor="middle" x="387" y="-101.3" font-family="Times,serif" font-size="14.00">26</text>
</g>
<!-- &#45;0&#45;0&#45;2&#45;0&#45;&gt;&#45;0&#45;0&#45;2&#45;0&#45;0 -->
<g id="edge33" class="edge">
<title>&#45;0&#45;0&#45;2&#45;0&#45;&gt;&#45;0&#45;0&#45;2&#45;0&#45;0</title>
<path fill="none" stroke="black" d="M371.34,-89.92C364.79,-83.74 357.26,-76.26 351,-69 344.05,-60.94 337.07,-51.6 331.13,-43.19"/>
<polygon fill="black" stroke="black" points="333.92,-41.08 325.36,-34.85 328.17,-45.06 333.92,-41.08"/>
<text text-anchor="middle" x="367" y="-57.8" font-family="Times,serif" font-size="14.00"> 0/7 </text>
</g>
<!-- &#45;0&#45;0&#45;2&#45;0&#45;1 -->
<g id="node37" class="node">
<title>&#45;0&#45;0&#45;2&#45;0&#45;1</title>
<ellipse fill="none" stroke="black" cx="387" cy="-18" rx="27" ry="18"/>
<text text-anchor="middle" x="387" y="-14.3" font-family="Times,serif" font-size="14.00">1</text>
</g>
<!-- &#45;0&#45;0&#45;2&#45;0&#45;&gt;&#45;0&#45;0&#45;2&#45;0&#45;1 -->
<g id="edge34" class="edge">
<title>&#45;0&#45;0&#45;2&#45;0&#45;&gt;&#45;0&#45;0&#45;2&#45;0&#45;1</title>
<path fill="none" stroke="black" d="M387,-86.8C387,-75.16 387,-59.55 387,-46.24"/>
<polygon fill="black" stroke="black" points="390.5,-46.18 387,-36.18 383.5,-46.18 390.5,-46.18"/>
<text text-anchor="middle" x="403" y="-57.8" font-family="Times,serif" font-size="14.00"> 1/6 </text>
</g>
<!-- &#45;0&#45;1&#45;3&#45;0 -->
<g id="node5" class="node">
<title>&#45;0&#45;1&#45;3&#45;0</title>
<ellipse fill="none" stroke="black" cx="819" cy="-105" rx="27" ry="18"/>
<text text-anchor="middle" x="819" y="-101.3" font-family="Times,serif" font-size="14.00">26</text>
</g>
<!-- &#45;0&#45;1&#45;3&#45;0&#45;1 -->
<g id="node6" class="node">
<title>&#45;0&#45;1&#45;3&#45;0&#45;1</title>
<ellipse fill="none" stroke="black" cx="747" cy="-18" rx="27" ry="18"/>
<text text-anchor="middle" x="747" y="-14.3" font-family="Times,serif" font-size="14.00">1</text>
</g>
<!-- &#45;0&#45;1&#45;3&#45;0&#45;&gt;&#45;0&#45;1&#45;3&#45;0&#45;1 -->
<g id="edge6" class="edge">
<title>&#45;0&#45;1&#45;3&#45;0&#45;&gt;&#45;0&#45;1&#45;3&#45;0&#45;1</title>
<path fill="none" stroke="black" d="M803.34,-89.92C796.79,-83.74 789.26,-76.26 783,-69 776.05,-60.94 769.07,-51.6 763.13,-43.19"/>
<polygon fill="black" stroke="black" points="765.92,-41.08 757.36,-34.85 760.17,-45.06 765.92,-41.08"/>
<text text-anchor="middle" x="799" y="-57.8" font-family="Times,serif" font-size="14.00"> 1/6 </text>
</g>
<!-- &#45;0&#45;1&#45;3&#45;0&#45;0 -->
<g id="node34" class="node">
<title>&#45;0&#45;1&#45;3&#45;0&#45;0</title>
<ellipse fill="none" stroke="black" cx="819" cy="-18" rx="27" ry="18"/>
<text text-anchor="middle" x="819" y="-14.3" font-family="Times,serif" font-size="14.00">13</text>
</g>
<!-- &#45;0&#45;1&#45;3&#45;0&#45;&gt;&#45;0&#45;1&#45;3&#45;0&#45;0 -->
<g id="edge5" class="edge">
<title>&#45;0&#45;1&#45;3&#45;0&#45;&gt;&#45;0&#45;1&#45;3&#45;0&#45;0</title>
<path fill="none" stroke="black" d="M819,-86.8C819,-75.16 819,-59.55 819,-46.24"/>
<polygon fill="black" stroke="black" points="822.5,-46.18 819,-36.18 815.5,-46.18 822.5,-46.18"/>
<text text-anchor="middle" x="835" y="-57.8" font-family="Times,serif" font-size="14.00"> 0/7 </text>
</g>
<!-- &#45;0 -->
<g id="node7" class="node">
<title>&#45;0</title>
<ellipse fill="none" stroke="black" cx="701" cy="-366" rx="27" ry="18"/>
<text text-anchor="middle" x="701" y="-362.3" font-family="Times,serif" font-size="14.00">7</text>
</g>
<!-- &#45;0&#45;0 -->
<g id="node30" class="node">
<title>&#45;0&#45;0</title>
<ellipse fill="none" stroke="black" cx="522" cy="-279" rx="27" ry="18"/>
<text text-anchor="middle" x="522" y="-275.3" font-family="Times,serif" font-size="14.00">20</text>
</g>
<!-- &#45;0&#45;&gt;&#45;0&#45;0 -->
<g id="edge7" class="edge">
<title>&#45;0&#45;&gt;&#45;0&#45;0</title>
<path fill="none" stroke="black" d="M679.41,-354.75C647.74,-339.71 588.56,-311.61 552.47,-294.47"/>
<polygon fill="black" stroke="black" points="553.92,-291.28 543.39,-290.16 550.92,-297.61 553.92,-291.28"/>
<text text-anchor="middle" x="638" y="-318.8" font-family="Times,serif" font-size="14.00"> 4/1 </text>
</g>
<!-- &#45;0&#45;1 -->
<g id="node38" class="node">
<title>&#45;0&#45;1</title>
<ellipse fill="none" stroke="black" cx="891" cy="-279" rx="27" ry="18"/>
<text text-anchor="middle" x="891" y="-275.3" font-family="Times,serif" font-size="14.00">20</text>
</g>
<!-- &#45;0&#45;&gt;&#45;0&#45;1 -->
<g id="edge8" class="edge">
<title>&#45;0&#45;&gt;&#45;0&#45;1</title>
<path fill="none" stroke="black" d="M722.8,-355.25C756.49,-340.17 821.37,-311.15 859.96,-293.89"/>
<polygon fill="black" stroke="black" points="861.47,-297.05 869.17,-289.77 858.61,-290.66 861.47,-297.05"/>
<text text-anchor="middle" x="823" y="-318.8" font-family="Times,serif" font-size="14.00"> 7/1 </text>
</g>
<!-- &#45;0&#45;0&#45;1 -->
<g id="node8" class="node">
<title>&#45;0&#45;0&#45;1</title>
<ellipse fill="none" stroke="black" cx="221" cy="-192" rx="27" ry="18"/>
<text text-anchor="middle" x="221" y="-188.3" font-family="Times,serif" font-size="14.00">5</text>
</g>
<!-- &#45;0&#45;0&#45;1&#45;0 -->
<g id="node25" class="node">
<title>&#45;0&#45;0&#45;1&#45;0</title>
<ellipse fill="none" stroke="black" cx="99" cy="-105" rx="27" ry="18"/>
<text text-anchor="middle" x="99" y="-101.3" font-family="Times,serif" font-size="14.00">8</text>
</g>
<!-- &#45;0&#45;0&#45;1&#45;&gt;&#45;0&#45;0&#45;1&#45;0 -->
<g id="edge22" class="edge">
<title>&#45;0&#45;0&#45;1&#45;&gt;&#45;0&#45;0&#45;1&#45;0</title>
<path fill="none" stroke="black" d="M203,-178.46C182.55,-164.21 148.97,-140.82 125.52,-124.48"/>
<polygon fill="black" stroke="black" points="127.28,-121.44 117.08,-118.59 123.28,-127.18 127.28,-121.44"/>
<text text-anchor="middle" x="184" y="-144.8" font-family="Times,serif" font-size="14.00"> 0/7 </text>
</g>
<!-- &#45;0&#45;0&#45;1&#45;1 -->
<g id="node26" class="node">
<title>&#45;0&#45;0&#45;1&#45;1</title>
<ellipse fill="none" stroke="black" cx="221" cy="-105" rx="27" ry="18"/>
<text text-anchor="middle" x="221" y="-101.3" font-family="Times,serif" font-size="14.00">18</text>
</g>
<!-- &#45;0&#45;0&#45;1&#45;&gt;&#45;0&#45;0&#45;1&#45;1 -->
<g id="edge23" class="edge">
<title>&#45;0&#45;0&#45;1&#45;&gt;&#45;0&#45;0&#45;1&#45;1</title>
<path fill="none" stroke="black" d="M221,-173.8C221,-162.16 221,-146.55 221,-133.24"/>
<polygon fill="black" stroke="black" points="224.5,-133.18 221,-123.18 217.5,-133.18 224.5,-133.18"/>
<text text-anchor="middle" x="237" y="-144.8" font-family="Times,serif" font-size="14.00"> 7/1 </text>
</g>
<!-- &#45;0&#45;0&#45;1&#45;1&#45;1 -->
<g id="node9" class="node">
<title>&#45;0&#45;0&#45;1&#45;1&#45;1</title>
<ellipse fill="none" stroke="black" cx="171" cy="-18" rx="27" ry="18"/>
<text text-anchor="middle" x="171" y="-14.3" font-family="Times,serif" font-size="14.00">1</text>
</g>
<!-- &#45;0&#45;0&#45;2 -->
<g id="node10" class="node">
<title>&#45;0&#45;0&#45;2</title>
<ellipse fill="none" stroke="black" cx="414" cy="-192" rx="27" ry="18"/>
<text text-anchor="middle" x="414" y="-188.3" font-family="Times,serif" font-size="14.00">13</text>
</g>
<!-- &#45;0&#45;0&#45;2&#45;&gt;&#45;0&#45;0&#45;2&#45;0 -->
<g id="edge26" class="edge">
<title>&#45;0&#45;0&#45;2&#45;&gt;&#45;0&#45;0&#45;2&#45;0</title>
<path fill="none" stroke="black" d="M408.67,-174.21C404.89,-162.33 399.76,-146.17 395.44,-132.56"/>
<polygon fill="black" stroke="black" points="398.69,-131.23 392.32,-122.76 392.01,-133.35 398.69,-131.23"/>
<text text-anchor="middle" x="418" y="-144.8" font-family="Times,serif" font-size="14.00"> 7/1 </text>
</g>
<!-- &#45;0&#45;1&#45;0&#45;0 -->
<g id="node11" class="node">
<title>&#45;0&#45;1&#45;0&#45;0</title>
<ellipse fill="none" stroke="black" cx="1179" cy="-105" rx="27" ry="18"/>
<text text-anchor="middle" x="1179" y="-101.3" font-family="Times,serif" font-size="14.00">14</text>
</g>
<!-- &#45;0&#45;1&#45;0&#45;0&#45;1 -->
<g id="node18" class="node">
<title>&#45;0&#45;1&#45;0&#45;0&#45;1</title>
<ellipse fill="none" stroke="black" cx="1179" cy="-18" rx="27" ry="18"/>
<text text-anchor="middle" x="1179" y="-14.3" font-family="Times,serif" font-size="14.00">7</text>
</g>
<!-- &#45;0&#45;1&#45;0&#45;0&#45;&gt;&#45;0&#45;1&#45;0&#45;0&#45;1 -->
<g id="edge36" class="edge">
<title>&#45;0&#45;1&#45;0&#45;0&#45;&gt;&#45;0&#45;1&#45;0&#45;0&#45;1</title>
<path fill="none" stroke="black" d="M1179,-86.8C1179,-75.16 1179,-59.55 1179,-46.24"/>
<polygon fill="black" stroke="black" points="1182.5,-46.18 1179,-36.18 1175.5,-46.18 1182.5,-46.18"/>
<text text-anchor="middle" x="1195" y="-57.8" font-family="Times,serif" font-size="14.00"> 7/0 </text>
</g>
<!-- &#45;0&#45;1&#45;0&#45;0&#45;0 -->
<g id="node28" class="node">
<title>&#45;0&#45;1&#45;0&#45;0&#45;0</title>
<ellipse fill="none" stroke="black" cx="1251" cy="-18" rx="27" ry="18"/>
<text text-anchor="middle" x="1251" y="-14.3" font-family="Times,serif" font-size="14.00">5</text>
</g>
<!-- &#45;0&#45;1&#45;0&#45;0&#45;&gt;&#45;0&#45;1&#45;0&#45;0&#45;0 -->
<g id="edge35" class="edge">
<title>&#45;0&#45;1&#45;0&#45;0&#45;&gt;&#45;0&#45;1&#45;0&#45;0&#45;0</title>
<path fill="none" stroke="black" d="M1194.66,-89.92C1201.21,-83.74 1208.74,-76.26 1215,-69 1221.95,-60.94 1228.93,-51.6 1234.87,-43.19"/>
<polygon fill="black" stroke="black" points="1237.83,-45.06 1240.64,-34.85 1232.08,-41.08 1237.83,-45.06"/>
<text text-anchor="middle" x="1242" y="-57.8" font-family="Times,serif" font-size="14.00"> 1/6 </text>
</g>
<!-- &#45;0&#45;1&#45;1&#45;1&#45;1 -->
<g id="node12" class="node">
<title>&#45;0&#45;1&#45;1&#45;1&#45;1</title>
<ellipse fill="none" stroke="black" cx="1107" cy="-18" rx="27" ry="18"/>
<text text-anchor="middle" x="1107" y="-14.3" font-family="Times,serif" font-size="14.00">13</text>
</g>
<!-- &#45;0&#45;1&#45;3 -->
<g id="node13" class="node">
<title>&#45;0&#45;1&#45;3</title>
<ellipse fill="none" stroke="black" cx="819" cy="-192" rx="27" ry="18"/>
<text text-anchor="middle" x="819" y="-188.3" font-family="Times,serif" font-size="14.00">11</text>
</g>
<!-- &#45;0&#45;1&#45;3&#45;&gt;&#45;0&#45;1&#45;3&#45;0 -->
<g id="edge37" class="edge">
<title>&#45;0&#45;1&#45;3&#45;&gt;&#45;0&#45;1&#45;3&#45;0</title>
<path fill="none" stroke="black" d="M819,-173.8C819,-162.16 819,-146.55 819,-133.24"/>
<polygon fill="black" stroke="black" points="822.5,-133.18 819,-123.18 815.5,-133.18 822.5,-133.18"/>
<text text-anchor="middle" x="835" y="-144.8" font-family="Times,serif" font-size="14.00"> 4/1 </text>
</g>
<!-- &#45;0&#45;0&#45;0&#45;0&#45;0 -->
<g id="node14" class="node">
<title>&#45;0&#45;0&#45;0&#45;0&#45;0</title>
<ellipse fill="none" stroke="black" cx="531" cy="-18" rx="27" ry="18"/>
<text text-anchor="middle" x="531" y="-14.3" font-family="Times,serif" font-size="14.00">5</text>
</g>
<!-- &#45;0&#45;0&#45;1&#45;0&#45;1 -->
<g id="node15" class="node">
<title>&#45;0&#45;0&#45;1&#45;0&#45;1</title>
<ellipse fill="none" stroke="black" cx="27" cy="-18" rx="27" ry="18"/>
<text text-anchor="middle" x="27" y="-14.3" font-family="Times,serif" font-size="14.00">&#45;1</text>
</g>
<!-- &#45;0&#45;0&#45;1&#45;1&#45;0 -->
<g id="node16" class="node">
<title>&#45;0&#45;0&#45;1&#45;1&#45;0</title>
<ellipse fill="none" stroke="black" cx="243" cy="-18" rx="27" ry="18"/>
<text text-anchor="middle" x="243" y="-14.3" font-family="Times,serif" font-size="14.00">5</text>
</g>
<!-- &#45;0&#45;0&#45;3&#45;0&#45;0 -->
<g id="node17" class="node">
<title>&#45;0&#45;0&#45;3&#45;0&#45;0</title>
<ellipse fill="none" stroke="black" cx="603" cy="-18" rx="27" ry="18"/>
<text text-anchor="middle" x="603" y="-14.3" font-family="Times,serif" font-size="14.00">13</text>
</g>
<!-- &#45;0&#45;1&#45;1&#45;0&#45;1 -->
<g id="node19" class="node">
<title>&#45;0&#45;1&#45;1&#45;0&#45;1</title>
<ellipse fill="none" stroke="black" cx="891" cy="-18" rx="27" ry="18"/>
<text text-anchor="middle" x="891" y="-14.3" font-family="Times,serif" font-size="14.00">9</text>
</g>
<!-- &#45;0&#45;1&#45;2 -->
<g id="node20" class="node">
<title>&#45;0&#45;1&#45;2</title>
<ellipse fill="none" stroke="black" cx="891" cy="-192" rx="27" ry="18"/>
<text text-anchor="middle" x="891" y="-188.3" font-family="Times,serif" font-size="14.00">17</text>
</g>
<!-- &#45;0&#45;0&#45;0 -->
<g id="node21" class="node">
<title>&#45;0&#45;0&#45;0</title>
<ellipse fill="none" stroke="black" cx="522" cy="-192" rx="27" ry="18"/>
<text text-anchor="middle" x="522" y="-188.3" font-family="Times,serif" font-size="14.00">7</text>
</g>
<!-- &#45;0&#45;0&#45;0&#45;0 -->
<g id="node31" class="node">
<title>&#45;0&#45;0&#45;0&#45;0</title>
<ellipse fill="none" stroke="black" cx="522" cy="-105" rx="27" ry="18"/>
<text text-anchor="middle" x="522" y="-101.3" font-family="Times,serif" font-size="14.00">20</text>
</g>
<!-- &#45;0&#45;0&#45;0&#45;&gt;&#45;0&#45;0&#45;0&#45;0 -->
<g id="edge10" class="edge">
<title>&#45;0&#45;0&#45;0&#45;&gt;&#45;0&#45;0&#45;0&#45;0</title>
<path fill="none" stroke="black" d="M522,-173.8C522,-162.16 522,-146.55 522,-133.24"/>
<polygon fill="black" stroke="black" points="525.5,-133.18 522,-123.18 518.5,-133.18 525.5,-133.18"/>
<text text-anchor="middle" x="538" y="-144.8" font-family="Times,serif" font-size="14.00"> 7/1 </text>
</g>
<!-- &#45;0&#45;0&#45;1&#45;0&#45;0 -->
<g id="node22" class="node">
<title>&#45;0&#45;0&#45;1&#45;0&#45;0</title>
<ellipse fill="none" stroke="black" cx="99" cy="-18" rx="27" ry="18"/>
<text text-anchor="middle" x="99" y="-14.3" font-family="Times,serif" font-size="14.00">1</text>
</g>
<!-- &#45;0&#45;0&#45;3&#45;0 -->
<g id="node23" class="node">
<title>&#45;0&#45;0&#45;3&#45;0</title>
<ellipse fill="none" stroke="black" cx="603" cy="-105" rx="27" ry="18"/>
<text text-anchor="middle" x="603" y="-101.3" font-family="Times,serif" font-size="14.00">26</text>
</g>
<!-- &#45;0&#45;0&#45;3&#45;0&#45;&gt;&#45;0&#45;0&#45;3&#45;0&#45;0 -->
<g id="edge27" class="edge">
<title>&#45;0&#45;0&#45;3&#45;0&#45;&gt;&#45;0&#45;0&#45;3&#45;0&#45;0</title>
<path fill="none" stroke="black" d="M603,-86.8C603,-75.16 603,-59.55 603,-46.24"/>
<polygon fill="black" stroke="black" points="606.5,-46.18 603,-36.18 599.5,-46.18 606.5,-46.18"/>
<text text-anchor="middle" x="619" y="-57.8" font-family="Times,serif" font-size="14.00"> 0/7 </text>
</g>
<!-- &#45;0&#45;0&#45;3&#45;0&#45;1 -->
<g id="node27" class="node">
<title>&#45;0&#45;0&#45;3&#45;0&#45;1</title>
<ellipse fill="none" stroke="black" cx="675" cy="-18" rx="27" ry="18"/>
<text text-anchor="middle" x="675" y="-14.3" font-family="Times,serif" font-size="14.00">11</text>
</g>
<!-- &#45;0&#45;0&#45;3&#45;0&#45;&gt;&#45;0&#45;0&#45;3&#45;0&#45;1 -->
<g id="edge28" class="edge">
<title>&#45;0&#45;0&#45;3&#45;0&#45;&gt;&#45;0&#45;0&#45;3&#45;0&#45;1</title>
<path fill="none" stroke="black" d="M618.66,-89.92C625.21,-83.74 632.74,-76.26 639,-69 645.95,-60.94 652.93,-51.6 658.87,-43.19"/>
<polygon fill="black" stroke="black" points="661.83,-45.06 664.64,-34.85 656.08,-41.08 661.83,-45.06"/>
<text text-anchor="middle" x="666" y="-57.8" font-family="Times,serif" font-size="14.00"> 1/6 </text>
</g>
<!-- &#45;0&#45;1&#45;1&#45;0&#45;0 -->
<g id="node24" class="node">
<title>&#45;0&#45;1&#45;1&#45;0&#45;0</title>
<ellipse fill="none" stroke="black" cx="963" cy="-18" rx="27" ry="18"/>
<text text-anchor="middle" x="963" y="-14.3" font-family="Times,serif" font-size="14.00">13</text>
</g>
<!-- &#45;0&#45;0&#45;1&#45;0&#45;&gt;&#45;0&#45;0&#45;1&#45;0&#45;1 -->
<g id="edge25" class="edge">
<title>&#45;0&#45;0&#45;1&#45;0&#45;&gt;&#45;0&#45;0&#45;1&#45;0&#45;1</title>
<path fill="none" stroke="black" d="M83.34,-89.92C76.79,-83.74 69.26,-76.26 63,-69 56.05,-60.94 49.07,-51.6 43.13,-43.19"/>
<polygon fill="black" stroke="black" points="45.92,-41.08 37.36,-34.85 40.17,-45.06 45.92,-41.08"/>
<text text-anchor="middle" x="79" y="-57.8" font-family="Times,serif" font-size="14.00"> 7/1 </text>
</g>
<!-- &#45;0&#45;0&#45;1&#45;0&#45;&gt;&#45;0&#45;0&#45;1&#45;0&#45;0 -->
<g id="edge24" class="edge">
<title>&#45;0&#45;0&#45;1&#45;0&#45;&gt;&#45;0&#45;0&#45;1&#45;0&#45;0</title>
<path fill="none" stroke="black" d="M99,-86.8C99,-75.16 99,-59.55 99,-46.24"/>
<polygon fill="black" stroke="black" points="102.5,-46.18 99,-36.18 95.5,-46.18 102.5,-46.18"/>
<text text-anchor="middle" x="115" y="-57.8" font-family="Times,serif" font-size="14.00"> 7/0 </text>
</g>
<!-- &#45;0&#45;0&#45;1&#45;1&#45;&gt;&#45;0&#45;0&#45;1&#45;1&#45;1 -->
<g id="edge32" class="edge">
<title>&#45;0&#45;0&#45;1&#45;1&#45;&gt;&#45;0&#45;0&#45;1&#45;1&#45;1</title>
<path fill="none" stroke="black" d="M208.69,-88.76C204.12,-82.78 199.07,-75.74 195,-69 190.4,-61.38 185.99,-52.75 182.24,-44.82"/>
<polygon fill="black" stroke="black" points="185.37,-43.25 178.02,-35.63 179.01,-46.17 185.37,-43.25"/>
<text text-anchor="middle" x="211" y="-57.8" font-family="Times,serif" font-size="14.00"> 7/0 </text>
</g>
<!-- &#45;0&#45;0&#45;1&#45;1&#45;&gt;&#45;0&#45;0&#45;1&#45;1&#45;0 -->
<g id="edge31" class="edge">
<title>&#45;0&#45;0&#45;1&#45;1&#45;&gt;&#45;0&#45;0&#45;1&#45;1&#45;0</title>
<path fill="none" stroke="black" d="M225.35,-87.21C228.4,-75.41 232.55,-59.38 236.06,-45.82"/>
<polygon fill="black" stroke="black" points="239.47,-46.61 238.59,-36.05 232.69,-44.85 239.47,-46.61"/>
<text text-anchor="middle" x="250" y="-57.8" font-family="Times,serif" font-size="14.00"> 0/7 </text>
</g>
<!-- &#45;0&#45;1&#45;1 -->
<g id="node29" class="node">
<title>&#45;0&#45;1&#45;1</title>
<ellipse fill="none" stroke="black" cx="963" cy="-192" rx="27" ry="18"/>
<text text-anchor="middle" x="963" y="-188.3" font-family="Times,serif" font-size="14.00">5</text>
</g>
<!-- &#45;0&#45;1&#45;1&#45;0 -->
<g id="node32" class="node">
<title>&#45;0&#45;1&#45;1&#45;0</title>
<ellipse fill="none" stroke="black" cx="963" cy="-105" rx="27" ry="18"/>
<text text-anchor="middle" x="963" y="-101.3" font-family="Times,serif" font-size="14.00">16</text>
</g>
<!-- &#45;0&#45;1&#45;1&#45;&gt;&#45;0&#45;1&#45;1&#45;0 -->
<g id="edge12" class="edge">
<title>&#45;0&#45;1&#45;1&#45;&gt;&#45;0&#45;1&#45;1&#45;0</title>
<path fill="none" stroke="black" d="M963,-173.8C963,-162.16 963,-146.55 963,-133.24"/>
<polygon fill="black" stroke="black" points="966.5,-133.18 963,-123.18 959.5,-133.18 966.5,-133.18"/>
<text text-anchor="middle" x="979" y="-144.8" font-family="Times,serif" font-size="14.00"> 0/7 </text>
</g>
<!-- &#45;0&#45;1&#45;1&#45;1 -->
<g id="node33" class="node">
<title>&#45;0&#45;1&#45;1&#45;1</title>
<ellipse fill="none" stroke="black" cx="1035" cy="-105" rx="27" ry="18"/>
<text text-anchor="middle" x="1035" y="-101.3" font-family="Times,serif" font-size="14.00">26</text>
</g>
<!-- &#45;0&#45;1&#45;1&#45;&gt;&#45;0&#45;1&#45;1&#45;1 -->
<g id="edge13" class="edge">
<title>&#45;0&#45;1&#45;1&#45;&gt;&#45;0&#45;1&#45;1&#45;1</title>
<path fill="none" stroke="black" d="M978.66,-176.92C985.21,-170.74 992.74,-163.26 999,-156 1005.95,-147.94 1012.93,-138.6 1018.87,-130.19"/>
<polygon fill="black" stroke="black" points="1021.83,-132.06 1024.64,-121.85 1016.08,-128.08 1021.83,-132.06"/>
<text text-anchor="middle" x="1026" y="-144.8" font-family="Times,serif" font-size="14.00"> 4/1 </text>
</g>
<!-- &#45;0&#45;0&#45;&gt;&#45;0&#45;0&#45;1 -->
<g id="edge17" class="edge">
<title>&#45;0&#45;0&#45;&gt;&#45;0&#45;0&#45;1</title>
<path fill="none" stroke="black" d="M497.62,-271.12C444.3,-256.06 317.18,-220.16 255.61,-202.77"/>
<polygon fill="black" stroke="black" points="256.18,-199.3 245.6,-199.95 254.28,-206.03 256.18,-199.3"/>
<text text-anchor="middle" x="405" y="-231.8" font-family="Times,serif" font-size="14.00"> 1/6 </text>
</g>
<!-- &#45;0&#45;0&#45;&gt;&#45;0&#45;0&#45;2 -->
<g id="edge18" class="edge">
<title>&#45;0&#45;0&#45;&gt;&#45;0&#45;0&#45;2</title>
<path fill="none" stroke="black" d="M505.12,-264.72C487.29,-250.68 458.99,-228.41 438.66,-212.41"/>
<polygon fill="black" stroke="black" points="440.78,-209.62 430.76,-206.19 436.45,-215.12 440.78,-209.62"/>
<text text-anchor="middle" x="490" y="-231.8" font-family="Times,serif" font-size="14.00"> 7/0 </text>
</g>
<!-- &#45;0&#45;0&#45;&gt;&#45;0&#45;0&#45;0 -->
<g id="edge16" class="edge">
<title>&#45;0&#45;0&#45;&gt;&#45;0&#45;0&#45;0</title>
<path fill="none" stroke="black" d="M522,-260.8C522,-249.16 522,-233.55 522,-220.24"/>
<polygon fill="black" stroke="black" points="525.5,-220.18 522,-210.18 518.5,-220.18 525.5,-220.18"/>
<text text-anchor="middle" x="538" y="-231.8" font-family="Times,serif" font-size="14.00"> 0/7 </text>
</g>
<!-- &#45;0&#45;0&#45;3 -->
<g id="node35" class="node">
<title>&#45;0&#45;0&#45;3</title>
<ellipse fill="none" stroke="black" cx="594" cy="-192" rx="27" ry="18"/>
<text text-anchor="middle" x="594" y="-188.3" font-family="Times,serif" font-size="14.00">11</text>
</g>
<!-- &#45;0&#45;0&#45;&gt;&#45;0&#45;0&#45;3 -->
<g id="edge19" class="edge">
<title>&#45;0&#45;0&#45;&gt;&#45;0&#45;0&#45;3</title>
<path fill="none" stroke="black" d="M537.66,-263.92C544.21,-257.74 551.74,-250.26 558,-243 564.95,-234.94 571.93,-225.6 577.87,-217.19"/>
<polygon fill="black" stroke="black" points="580.83,-219.06 583.64,-208.85 575.08,-215.08 580.83,-219.06"/>
<text text-anchor="middle" x="585" y="-231.8" font-family="Times,serif" font-size="14.00"> 7/1 </text>
</g>
<!-- &#45;0&#45;0&#45;0&#45;0&#45;&gt;&#45;0&#45;0&#45;0&#45;0&#45;1 -->
<g id="edge21" class="edge">
<title>&#45;0&#45;0&#45;0&#45;0&#45;&gt;&#45;0&#45;0&#45;0&#45;0&#45;1</title>
<path fill="none" stroke="black" d="M507.12,-89.64C501.17,-83.54 494.45,-76.19 489,-69 483.14,-61.26 477.46,-52.3 472.65,-44.13"/>
<polygon fill="black" stroke="black" points="475.62,-42.28 467.62,-35.33 469.54,-45.75 475.62,-42.28"/>
<text text-anchor="middle" x="505" y="-57.8" font-family="Times,serif" font-size="14.00"> 7/0 </text>
</g>
<!-- &#45;0&#45;0&#45;0&#45;0&#45;&gt;&#45;0&#45;0&#45;0&#45;0&#45;0 -->
<g id="edge20" class="edge">
<title>&#45;0&#45;0&#45;0&#45;0&#45;&gt;&#45;0&#45;0&#45;0&#45;0&#45;0</title>
<path fill="none" stroke="black" d="M523.82,-86.8C525.05,-75.16 526.71,-59.55 528.12,-46.24"/>
<polygon fill="black" stroke="black" points="531.61,-46.49 529.18,-36.18 524.65,-45.75 531.61,-46.49"/>
<text text-anchor="middle" x="543" y="-57.8" font-family="Times,serif" font-size="14.00"> 1/6 </text>
</g>
<!-- &#45;0&#45;1&#45;1&#45;0&#45;&gt;&#45;0&#45;1&#45;1&#45;0&#45;1 -->
<g id="edge30" class="edge">
<title>&#45;0&#45;1&#45;1&#45;0&#45;&gt;&#45;0&#45;1&#45;1&#45;0&#45;1</title>
<path fill="none" stroke="black" d="M947.34,-89.92C940.79,-83.74 933.26,-76.26 927,-69 920.05,-60.94 913.07,-51.6 907.13,-43.19"/>
<polygon fill="black" stroke="black" points="909.92,-41.08 901.36,-34.85 904.17,-45.06 909.92,-41.08"/>
<text text-anchor="middle" x="943" y="-57.8" font-family="Times,serif" font-size="14.00"> 7/0 </text>
</g>
<!-- &#45;0&#45;1&#45;1&#45;0&#45;&gt;&#45;0&#45;1&#45;1&#45;0&#45;0 -->
<g id="edge29" class="edge">
<title>&#45;0&#45;1&#45;1&#45;0&#45;&gt;&#45;0&#45;1&#45;1&#45;0&#45;0</title>
<path fill="none" stroke="black" d="M963,-86.8C963,-75.16 963,-59.55 963,-46.24"/>
<polygon fill="black" stroke="black" points="966.5,-46.18 963,-36.18 959.5,-46.18 966.5,-46.18"/>
<text text-anchor="middle" x="979" y="-57.8" font-family="Times,serif" font-size="14.00"> 4/1 </text>
</g>
<!-- &#45;0&#45;1&#45;1&#45;1&#45;&gt;&#45;0&#45;1&#45;1&#45;1&#45;0 -->
<g id="edge14" class="edge">
<title>&#45;0&#45;1&#45;1&#45;1&#45;&gt;&#45;0&#45;1&#45;1&#45;1&#45;0</title>
<path fill="none" stroke="black" d="M1035,-86.8C1035,-75.16 1035,-59.55 1035,-46.24"/>
<polygon fill="black" stroke="black" points="1038.5,-46.18 1035,-36.18 1031.5,-46.18 1038.5,-46.18"/>
<text text-anchor="middle" x="1051" y="-57.8" font-family="Times,serif" font-size="14.00"> 0/7 </text>
</g>
<!-- &#45;0&#45;1&#45;1&#45;1&#45;&gt;&#45;0&#45;1&#45;1&#45;1&#45;1 -->
<g id="edge15" class="edge">
<title>&#45;0&#45;1&#45;1&#45;1&#45;&gt;&#45;0&#45;1&#45;1&#45;1&#45;1</title>
<path fill="none" stroke="black" d="M1050.66,-89.92C1057.21,-83.74 1064.74,-76.26 1071,-69 1077.95,-60.94 1084.93,-51.6 1090.87,-43.19"/>
<polygon fill="black" stroke="black" points="1093.83,-45.06 1096.64,-34.85 1088.08,-41.08 1093.83,-45.06"/>
<text text-anchor="middle" x="1098" y="-57.8" font-family="Times,serif" font-size="14.00"> 7/0 </text>
</g>
<!-- &#45;0&#45;0&#45;3&#45;&gt;&#45;0&#45;0&#45;3&#45;0 -->
<g id="edge11" class="edge">
<title>&#45;0&#45;0&#45;3&#45;&gt;&#45;0&#45;0&#45;3&#45;0</title>
<path fill="none" stroke="black" d="M595.82,-173.8C597.05,-162.16 598.71,-146.55 600.12,-133.24"/>
<polygon fill="black" stroke="black" points="603.61,-133.49 601.18,-123.18 596.65,-132.75 603.61,-133.49"/>
<text text-anchor="middle" x="615" y="-144.8" font-family="Times,serif" font-size="14.00"> 7/0 </text>
</g>
<!-- &#45;0&#45;1&#45;0 -->
<g id="node36" class="node">
<title>&#45;0&#45;1&#45;0</title>
<ellipse fill="none" stroke="black" cx="1086" cy="-192" rx="27" ry="18"/>
<text text-anchor="middle" x="1086" y="-188.3" font-family="Times,serif" font-size="14.00">7</text>
</g>
<!-- &#45;0&#45;1&#45;0&#45;&gt;&#45;0&#45;1&#45;0&#45;0 -->
<g id="edge9" class="edge">
<title>&#45;0&#45;1&#45;0&#45;&gt;&#45;0&#45;1&#45;0&#45;0</title>
<path fill="none" stroke="black" d="M1101.36,-176.96C1116.17,-163.43 1138.77,-142.77 1155.78,-127.22"/>
<polygon fill="black" stroke="black" points="1158.6,-129.39 1163.62,-120.06 1153.88,-124.22 1158.6,-129.39"/>
<text text-anchor="middle" x="1154" y="-144.8" font-family="Times,serif" font-size="14.00"> 4/1 </text>
</g>
<!-- &#45;0&#45;1&#45;&gt;&#45;0&#45;1&#45;3 -->
<g id="edge4" class="edge">
<title>&#45;0&#45;1&#45;&gt;&#45;0&#45;1&#45;3</title>
<path fill="none" stroke="black" d="M875.34,-263.92C868.79,-257.74 861.26,-250.26 855,-243 848.05,-234.94 841.07,-225.6 835.13,-217.19"/>
<polygon fill="black" stroke="black" points="837.92,-215.08 829.36,-208.85 832.17,-219.06 837.92,-215.08"/>
<text text-anchor="middle" x="871" y="-231.8" font-family="Times,serif" font-size="14.00"> 7/0 </text>
</g>
<!-- &#45;0&#45;1&#45;&gt;&#45;0&#45;1&#45;2 -->
<g id="edge3" class="edge">
<title>&#45;0&#45;1&#45;&gt;&#45;0&#45;1&#45;2</title>
<path fill="none" stroke="black" d="M891,-260.8C891,-249.16 891,-233.55 891,-220.24"/>
<polygon fill="black" stroke="black" points="894.5,-220.18 891,-210.18 887.5,-220.18 894.5,-220.18"/>
<text text-anchor="middle" x="907" y="-231.8" font-family="Times,serif" font-size="14.00"> 4/1 </text>
</g>
<!-- &#45;0&#45;1&#45;&gt;&#45;0&#45;1&#45;1 -->
<g id="edge2" class="edge">
<title>&#45;0&#45;1&#45;&gt;&#45;0&#45;1&#45;1</title>
<path fill="none" stroke="black" d="M906.66,-263.92C913.21,-257.74 920.74,-250.26 927,-243 933.95,-234.94 940.93,-225.6 946.87,-217.19"/>
<polygon fill="black" stroke="black" points="949.83,-219.06 952.64,-208.85 944.08,-215.08 949.83,-219.06"/>
<text text-anchor="middle" x="954" y="-231.8" font-family="Times,serif" font-size="14.00"> 1/6 </text>
</g>
<!-- &#45;0&#45;1&#45;&gt;&#45;0&#45;1&#45;0 -->
<g id="edge1" class="edge">
<title>&#45;0&#45;1&#45;&gt;&#45;0&#45;1&#45;0</title>
<path fill="none" stroke="black" d="M913.25,-268.77C929.99,-261.78 953.49,-251.9 974,-243 1001.4,-231.11 1032.39,-217.24 1054.82,-207.13"/>
<polygon fill="black" stroke="black" points="1056.5,-210.21 1064.17,-202.91 1053.61,-203.83 1056.5,-210.21"/>
<text text-anchor="middle" x="1023" y="-231.8" font-family="Times,serif" font-size="14.00"> 0/7 </text>
</g>
</g>
</svg>
