<?xml version="1.0" encoding="UTF-8" standalone="no"?>
<!DOCTYPE svg PUBLIC "-//W3C//DTD SVG 1.1//EN"
 "http://www.w3.org/Graphics/SVG/1.1/DTD/svg11.dtd">
<!-- Generated by graphviz version 2.42.3 (0)
 -->
<!-- Title: gametree Pages: 1 -->
<svg width="854pt" height="218pt"
 viewBox="0.00 0.00 854.00 218.00" xmlns="http://www.w3.org/2000/svg" xmlns:xlink="http://www.w3.org/1999/xlink">
<g id="graph0" class="graph" transform="scale(1 1) rotate(0) translate(4 214)">
<title>gametree</title>
<polygon fill="white" stroke="transparent" points="-4,4 -4,-214 850,-214 850,4 -4,4"/>
<!-- &#45;0&#45;2 -->
<g id="node1" class="node">
<title>&#45;0&#45;2</title>
<ellipse fill="none" stroke="black" cx="135" cy="-105" rx="27" ry="18"/>
<text text-anchor="middle" x="135" y="-101.3" font-family="Times,serif" font-size="14.00">3</text>
</g>
<!-- &#45;0&#45;2&#45;0 -->
<g id="node2" class="node">
<title>&#45;0&#45;2&#45;0</title>
<ellipse fill="none" stroke="black" cx="27" cy="-18" rx="27" ry="18"/>
<text text-anchor="middle" x="27" y="-14.3" font-family="Times,serif" font-size="14.00">0</text>
</g>
<!-- &#45;0&#45;2&#45;&gt;&#45;0&#45;2&#45;0 -->
<g id="edge14" class="edge">
<title>&#45;0&#45;2&#45;&gt;&#45;0&#45;2&#45;0</title>
<path fill="none" stroke="black" d="M113.82,-93.51C101.89,-87.16 87.03,-78.47 75,-69 64.76,-60.94 54.6,-50.75 46.28,-41.68"/>
<polygon fill="black" stroke="black" points="48.75,-39.2 39.48,-34.08 43.53,-43.86 48.75,-39.2"/>
<text text-anchor="middle" x="91" y="-57.8" font-family="Times,serif" font-size="14.00"> 3/5 </text>
</g>
<!-- &#45;0&#45;2&#45;1 -->
<g id="node12" class="node">
<title>&#45;0&#45;2&#45;1</title>
<ellipse fill="none" stroke="black" cx="99" cy="-18" rx="27" ry="18"/>
<text text-anchor="middle" x="99" y="-14.3" font-family="Times,serif" font-size="14.00">0</text>
</g>
<!-- &#45;0&#45;2&#45;&gt;&#45;0&#45;2&#45;1 -->
<g id="edge15" class="edge">
<title>&#45;0&#45;2&#45;&gt;&#45;0&#45;2&#45;1</title>
<path fill="none" stroke="black" d="M126.13,-87.83C123.07,-81.98 119.73,-75.27 117,-69 113.72,-61.47 110.55,-53.13 107.8,-45.46"/>
<polygon fill="black" stroke="black" points="111.06,-44.17 104.47,-35.88 104.45,-46.47 111.06,-44.17"/>
<text text-anchor="middle" x="133" y="-57.8" font-family="Times,serif" font-size="14.00"> 5/3 </text>
</g>
<!-- &#45;0&#45;2&#45;2 -->
<g id="node17" class="node">
<title>&#45;0&#45;2&#45;2</title>
<ellipse fill="none" stroke="black" cx="171" cy="-18" rx="27" ry="18"/>
<text text-anchor="middle" x="171" y="-14.3" font-family="Times,serif" font-size="14.00">0</text>
</g>
<!-- &#45;0&#45;2&#45;&gt;&#45;0&#45;2&#45;2 -->
<g id="edge16" class="edge">
<title>&#45;0&#45;2&#45;&gt;&#45;0&#45;2&#45;2</title>
<path fill="none" stroke="black" d="M142.11,-87.21C147.22,-75.14 154.21,-58.64 160.03,-44.89"/>
<polygon fill="black" stroke="black" points="163.35,-46.04 164.02,-35.47 156.9,-43.31 163.35,-46.04"/>
<text text-anchor="middle" x="172" y="-57.8" font-family="Times,serif" font-size="14.00"> 5/5 </text>
</g>
<!-- &#45;0&#45;3&#45;0 -->
<g id="node3" class="node">
<title>&#45;0&#45;3&#45;0</title>
<ellipse fill="none" stroke="black" cx="675" cy="-18" rx="27" ry="18"/>
<text text-anchor="middle" x="675" y="-14.3" font-family="Times,serif" font-size="14.00">0</text>
</g>
<!-- &#45;0 -->
<g id="node4" class="node">
<title>&#45;0</title>
<ellipse fill="none" stroke="black" cx="442" cy="-192" rx="27" ry="18"/>
<text text-anchor="middle" x="442" y="-188.3" font-family="Times,serif" font-size="14.00">0</text>
</g>
<!-- &#45;0&#45;&gt;&#45;0&#45;2 -->
<g id="edge6" class="edge">
<title>&#45;0&#45;&gt;&#45;0&#45;2</title>
<path fill="none" stroke="black" d="M417.4,-184.19C362.94,-169.11 232.12,-132.89 169.52,-115.56"/>
<polygon fill="black" stroke="black" points="170.29,-112.14 159.72,-112.84 168.42,-118.89 170.29,-112.14"/>
<text text-anchor="middle" x="322" y="-144.8" font-family="Times,serif" font-size="14.00"> 4/5 </text>
</g>
<!-- &#45;0&#45;1 -->
<g id="node7" class="node">
<title>&#45;0&#45;1</title>
<ellipse fill="none" stroke="black" cx="335" cy="-105" rx="27" ry="18"/>
<text text-anchor="middle" x="335" y="-101.3" font-family="Times,serif" font-size="14.00">3</text>
</g>
<!-- &#45;0&#45;&gt;&#45;0&#45;1 -->
<g id="edge5" class="edge">
<title>&#45;0&#45;&gt;&#45;0&#45;1</title>
<path fill="none" stroke="black" d="M425.28,-177.72C407.8,-163.83 380.15,-141.87 360.05,-125.9"/>
<polygon fill="black" stroke="black" points="361.96,-122.95 351.95,-119.47 357.61,-128.43 361.96,-122.95"/>
<text text-anchor="middle" x="410" y="-144.8" font-family="Times,serif" font-size="14.00"> 3/2 </text>
</g>
<!-- &#45;0&#45;0 -->
<g id="node10" class="node">
<title>&#45;0&#45;0</title>
<ellipse fill="none" stroke="black" cx="521" cy="-105" rx="27" ry="18"/>
<text text-anchor="middle" x="521" y="-101.3" font-family="Times,serif" font-size="14.00">3</text>
</g>
<!-- &#45;0&#45;&gt;&#45;0&#45;0 -->
<g id="edge4" class="edge">
<title>&#45;0&#45;&gt;&#45;0&#45;0</title>
<path fill="none" stroke="black" d="M455.76,-176.19C468.11,-162.91 486.4,-143.23 500.47,-128.08"/>
<polygon fill="black" stroke="black" points="503.15,-130.34 507.4,-120.64 498.03,-125.58 503.15,-130.34"/>
<text text-anchor="middle" x="502" y="-144.8" font-family="Times,serif" font-size="14.00"> 2/3 </text>
</g>
<!-- &#45;0&#45;3 -->
<g id="node13" class="node">
<title>&#45;0&#45;3</title>
<ellipse fill="none" stroke="black" cx="711" cy="-105" rx="27" ry="18"/>
<text text-anchor="middle" x="711" y="-101.3" font-family="Times,serif" font-size="14.00">3</text>
</g>
<!-- &#45;0&#45;&gt;&#45;0&#45;3 -->
<g id="edge7" class="edge">
<title>&#45;0&#45;&gt;&#45;0&#45;3</title>
<path fill="none" stroke="black" d="M465.87,-183.46C513.93,-168.27 622.44,-133.98 677.54,-116.57"/>
<polygon fill="black" stroke="black" points="678.7,-119.88 687.18,-113.53 676.59,-113.2 678.7,-119.88"/>
<text text-anchor="middle" x="608" y="-144.8" font-family="Times,serif" font-size="14.00"> 5/4 </text>
</g>
<!-- &#45;0&#45;0&#45;1 -->
<g id="node5" class="node">
<title>&#45;0&#45;0&#45;1</title>
<ellipse fill="none" stroke="black" cx="459" cy="-18" rx="27" ry="18"/>
<text text-anchor="middle" x="459" y="-14.3" font-family="Times,serif" font-size="14.00">0</text>
</g>
<!-- &#45;0&#45;0&#45;2 -->
<g id="node6" class="node">
<title>&#45;0&#45;0&#45;2</title>
<ellipse fill="none" stroke="black" cx="531" cy="-18" rx="27" ry="18"/>
<text text-anchor="middle" x="531" y="-14.3" font-family="Times,serif" font-size="14.00">0</text>
</g>
<!-- &#45;0&#45;1&#45;1 -->
<g id="node8" class="node">
<title>&#45;0&#45;1&#45;1</title>
<ellipse fill="none" stroke="black" cx="243" cy="-18" rx="27" ry="18"/>
<text text-anchor="middle" x="243" y="-14.3" font-family="Times,serif" font-size="14.00">0</text>
</g>
<!-- &#45;0&#45;1&#45;&gt;&#45;0&#45;1&#45;1 -->
<g id="edge12" class="edge">
<title>&#45;0&#45;1&#45;&gt;&#45;0&#45;1&#45;1</title>
<path fill="none" stroke="black" d="M316.03,-91.6C306.89,-85.28 295.99,-77.2 287,-69 277.97,-60.77 268.9,-50.81 261.36,-41.96"/>
<polygon fill="black" stroke="black" points="264,-39.66 254.91,-34.22 258.63,-44.14 264,-39.66"/>
<text text-anchor="middle" x="303" y="-57.8" font-family="Times,serif" font-size="14.00"> 2/4 </text>
</g>
<!-- &#45;0&#45;1&#45;0 -->
<g id="node11" class="node">
<title>&#45;0&#45;1&#45;0</title>
<ellipse fill="none" stroke="black" cx="315" cy="-18" rx="27" ry="18"/>
<text text-anchor="middle" x="315" y="-14.3" font-family="Times,serif" font-size="14.00">0</text>
</g>
<!-- &#45;0&#45;1&#45;&gt;&#45;0&#45;1&#45;0 -->
<g id="edge11" class="edge">
<title>&#45;0&#45;1&#45;&gt;&#45;0&#45;1&#45;0</title>
<path fill="none" stroke="black" d="M330.95,-86.8C328.2,-75.09 324.49,-59.34 321.35,-45.97"/>
<polygon fill="black" stroke="black" points="324.67,-44.82 318.97,-35.89 317.86,-46.42 324.67,-44.82"/>
<text text-anchor="middle" x="342" y="-57.8" font-family="Times,serif" font-size="14.00"> 2/2 </text>
</g>
<!-- &#45;0&#45;1&#45;2 -->
<g id="node15" class="node">
<title>&#45;0&#45;1&#45;2</title>
<ellipse fill="none" stroke="black" cx="387" cy="-18" rx="27" ry="18"/>
<text text-anchor="middle" x="387" y="-14.3" font-family="Times,serif" font-size="14.00">0</text>
</g>
<!-- &#45;0&#45;1&#45;&gt;&#45;0&#45;1&#45;2 -->
<g id="edge13" class="edge">
<title>&#45;0&#45;1&#45;&gt;&#45;0&#45;1&#45;2</title>
<path fill="none" stroke="black" d="M347.77,-88.79C352.51,-82.8 357.76,-75.76 362,-69 366.77,-61.4 371.35,-52.77 375.26,-44.85"/>
<polygon fill="black" stroke="black" points="378.51,-46.18 379.67,-35.65 372.19,-43.16 378.51,-46.18"/>
<text text-anchor="middle" x="386" y="-57.8" font-family="Times,serif" font-size="14.00"> 4/2 </text>
</g>
<!-- &#45;0&#45;3&#45;2 -->
<g id="node9" class="node">
<title>&#45;0&#45;3&#45;2</title>
<ellipse fill="none" stroke="black" cx="747" cy="-18" rx="27" ry="18"/>
<text text-anchor="middle" x="747" y="-14.3" font-family="Times,serif" font-size="14.00">0</text>
</g>
<!-- &#45;0&#45;0&#45;&gt;&#45;0&#45;0&#45;1 -->
<g id="edge9" class="edge">
<title>&#45;0&#45;0&#45;&gt;&#45;0&#45;0&#45;1</title>
<path fill="none" stroke="black" d="M506.61,-89.58C500.84,-83.47 494.31,-76.13 489,-69 483.2,-61.22 477.53,-52.25 472.72,-44.07"/>
<polygon fill="black" stroke="black" points="475.69,-42.22 467.68,-35.29 469.62,-45.7 475.69,-42.22"/>
<text text-anchor="middle" x="505" y="-57.8" font-family="Times,serif" font-size="14.00"> 2/4 </text>
</g>
<!-- &#45;0&#45;0&#45;&gt;&#45;0&#45;0&#45;2 -->
<g id="edge10" class="edge">
<title>&#45;0&#45;0&#45;&gt;&#45;0&#45;0&#45;2</title>
<path fill="none" stroke="black" d="M523.02,-86.8C524.39,-75.16 526.23,-59.55 527.8,-46.24"/>
<polygon fill="black" stroke="black" points="531.29,-46.52 528.98,-36.18 524.33,-45.7 531.29,-46.52"/>
<text text-anchor="middle" x="542" y="-57.8" font-family="Times,serif" font-size="14.00"> 4/2 </text>
</g>
<!-- &#45;0&#45;0&#45;0 -->
<g id="node16" class="node">
<title>&#45;0&#45;0&#45;0</title>
<ellipse fill="none" stroke="black" cx="603" cy="-18" rx="27" ry="18"/>
<text text-anchor="middle" x="603" y="-14.3" font-family="Times,serif" font-size="14.00">0</text>
</g>
<!-- &#45;0&#45;0&#45;&gt;&#45;0&#45;0&#45;0 -->
<g id="edge8" class="edge">
<title>&#45;0&#45;0&#45;&gt;&#45;0&#45;0&#45;0</title>
<path fill="none" stroke="black" d="M537.96,-90.67C545.58,-84.39 554.53,-76.62 562,-69 570.1,-60.74 578.32,-51.03 585.26,-42.37"/>
<polygon fill="black" stroke="black" points="588.04,-44.5 591.46,-34.47 582.53,-40.17 588.04,-44.5"/>
<text text-anchor="middle" x="591" y="-57.8" font-family="Times,serif" font-size="14.00"> 2/2 </text>
</g>
<!-- &#45;0&#45;3&#45;&gt;&#45;0&#45;3&#45;0 -->
<g id="edge1" class="edge">
<title>&#45;0&#45;3&#45;&gt;&#45;0&#45;3&#45;0</title>
<path fill="none" stroke="black" d="M702.13,-87.83C699.07,-81.98 695.73,-75.27 693,-69 689.72,-61.47 686.55,-53.13 683.8,-45.46"/>
<polygon fill="black" stroke="black" points="687.06,-44.17 680.47,-35.88 680.45,-46.47 687.06,-44.17"/>
<text text-anchor="middle" x="709" y="-57.8" font-family="Times,serif" font-size="14.00"> 3/5 </text>
</g>
<!-- &#45;0&#45;3&#45;&gt;&#45;0&#45;3&#45;2 -->
<g id="edge3" class="edge">
<title>&#45;0&#45;3&#45;&gt;&#45;0&#45;3&#45;2</title>
<path fill="none" stroke="black" d="M718.11,-87.21C723.22,-75.14 730.21,-58.64 736.03,-44.89"/>
<polygon fill="black" stroke="black" points="739.35,-46.04 740.02,-35.47 732.9,-43.31 739.35,-46.04"/>
<text text-anchor="middle" x="747" y="-57.8" font-family="Times,serif" font-size="14.00"> 5/5 </text>
</g>
<!-- &#45;0&#45;3&#45;1 -->
<g id="node14" class="node">
<title>&#45;0&#45;3&#45;1</title>
<ellipse fill="none" stroke="black" cx="819" cy="-18" rx="27" ry="18"/>
<text text-anchor="middle" x="819" y="-14.3" font-family="Times,serif" font-size="14.00">0</text>
</g>
<!-- &#45;0&#45;3&#45;&gt;&#45;0&#45;3&#45;1 -->
<g id="edge2" class="edge">
<title>&#45;0&#45;3&#45;&gt;&#45;0&#45;3&#45;1</title>
<path fill="none" stroke="black" d="M731.11,-92.81C742.08,-86.36 755.7,-77.81 767,-69 777.8,-60.58 788.87,-50.23 798,-41.13"/>
<polygon fill="black" stroke="black" points="800.64,-43.43 805.16,-33.85 795.65,-38.52 800.64,-43.43"/>
<text text-anchor="middle" x="799" y="-57.8" font-family="Times,serif" font-size="14.00"> 5/3 </text>
</g>
</g>
</svg>
